<svg width="292" height="512" viewBox="0 0 292 512" fill="none" xmlns="http://www.w3.org/2000/svg">
<path d="M180 512H98.0078C84.3125 512 73.1719 500.859 73.1719 487.164V302.227H25.3359C11.6406 302.227 0.5 291.082 0.5 277.391V198.145C0.5 184.449 11.6406 173.309 25.3359 173.309H73.1719V133.625C73.1719 94.2773 85.5273 60.8008 108.898 36.8203C132.375 12.7305 165.184 0 203.777 0L266.309 0.101562C279.98 0.125 291.102 11.2656 291.102 24.9375V98.5156C291.102 112.211 279.965 123.352 266.273 123.352L224.172 123.367C211.332 123.367 208.063 125.941 207.363 126.73C206.211 128.039 204.84 131.738 204.84 141.953V173.305H263.109C267.496 173.305 271.746 174.387 275.398 176.426C283.277 180.828 288.176 189.152 288.176 198.148L288.145 277.395C288.145 291.082 277.004 302.223 263.309 302.223H204.84V487.164C204.84 500.859 193.695 512 180 512ZM103.188 481.984H174.82V288.789C174.82 279.645 182.262 272.207 191.402 272.207H258.129L258.156 203.324H191.398C182.258 203.324 174.82 195.887 174.82 186.742V141.953C174.82 130.227 176.012 116.891 184.863 106.867C195.559 94.75 212.414 93.3516 224.164 93.3516L261.086 93.3359V30.1094L203.754 30.0156C141.73 30.0156 103.188 69.7188 103.188 133.625V186.742C103.188 195.883 95.75 203.324 86.6094 203.324H30.5156V272.207H86.6094C95.75 272.207 103.188 279.645 103.188 288.789V481.984Z" fill="url(#paint0_linear_44_24)"/>
<defs>
<linearGradient id="paint0_linear_44_24" x1="219.662" y1="395.2" x2="-17.3469" y2="219.241" gradientUnits="userSpaceOnUse">
<stop stop-color="#B41F3E"/>
<stop offset="1" stop-color="#711972"/>
</linearGradient>
</defs>
</svg>
