<svg width="512" height="423" viewBox="0 0 512 423" fill="none" xmlns="http://www.w3.org/2000/svg">
<path d="M194.816 422.711C109.363 422.711 41.824 407.781 9.5115 381.758L8.88259 381.25L8.31228 380.68C0.636499 373 -1.87913 362.926 1.41775 353.043L1.71853 352.223C5.71853 342.219 15.5193 335.484 26.1404 335.422C47.9998 335.043 67.1248 332.438 84.4802 327.379C56.7967 314.504 37.5662 292.211 26.1248 259.945C22.2771 249.883 25.5974 238.727 34.4646 232.074C36.6521 230.43 39.1248 229.188 41.742 228.356C26.3592 210.598 14.9959 190.391 8.63259 169.02L8.43337 168.356L8.29665 167.676C6.1365 156.867 10.9685 145.754 19.824 140.969C23.5388 138.836 27.574 137.731 31.6248 137.637C27.2576 128.231 24.0818 118.574 22.199 108.859C16.9724 81.9376 21.2849 54.9493 35.0115 28.6446L38.1873 22.2931C40.7302 17.211 45.5896 13.6407 51.1912 12.7306C56.7927 11.8243 62.5349 13.6759 66.5467 17.6876L72.3318 23.4806C118.035 71.3946 158.972 94.129 229.75 109.684C232.91 82.5157 244.656 57.2618 263.605 37.3868C286.156 13.7384 316.269 0.468849 348.398 0.0157243H348.609C372.051 0.0157243 401.129 13.3985 418.715 22.836C433.801 17.8985 451.976 10.254 470.836 2.17197C479.66 -1.96865 490.539 -0.07412 497.476 6.86338C504.277 13.6642 506.164 23.254 502.554 32.5743C501.183 36.3907 499.629 40.1368 497.898 43.8009C500.48 44.9845 502.844 46.5899 504.84 48.586C510.875 54.6212 513.39 64.0665 511.246 72.6524L511.015 73.4688C503.789 96.7579 489.906 115.727 471.547 127.633C468.48 290.918 345.519 422.711 194.816 422.711ZM38.3045 365.035C68.7537 382.262 126.781 392.684 194.816 392.684C260.226 392.684 321.953 364.602 368.621 313.609C415.672 262.199 441.582 193.93 441.582 121.375V120.559C441.582 113.988 445.199 107.992 451.019 104.906C462.828 98.6524 472.39 88.0001 478.609 74.379C472.195 75.3907 465.676 72.8165 461.679 67.4493C457.035 61.211 456.984 52.7853 461.551 46.4923C464.015 43.0938 466.25 39.5587 468.242 35.9024C451.957 42.7423 436.492 48.8751 423.066 52.9493C418.187 54.4259 412.75 53.8478 408.293 51.3595C384.39 38.0431 362.129 30.0821 348.707 30.0431C299.179 30.8009 258.91 73.2188 258.91 124.649C258.91 129.965 256.551 134.949 252.445 138.328C248.336 141.703 242.992 143.055 237.773 142.024C156.164 125.945 107.804 101.836 57.5154 51.3009C50.3084 68.5704 48.3396 85.9649 51.6717 103.141C55.0506 120.539 64.0388 137.973 77.6677 153.555C82.8474 159.469 83.5349 167.93 79.3787 174.606C75.2381 181.258 67.367 184.367 59.8006 182.34C53.8865 180.754 48.449 178.672 43.2927 175.996C53.7967 198.813 71.8631 219.914 94.574 235.477C101.156 239.988 103.906 248.399 101.265 255.93C98.6209 263.473 91.2342 268.328 83.2498 267.734C74.5506 267.09 66.8435 265.438 59.7498 262.652C72.4842 288.586 92.8318 302.856 124.179 308.309C131.644 309.609 137.457 315.504 138.644 322.977C139.836 330.449 136.137 337.856 129.445 341.406C102.726 355.57 73.5232 363.172 38.3045 365.035Z" fill="url(#paint0_linear_44_23)"/>
<defs>
<linearGradient id="paint0_linear_44_23" x1="386.134" y1="326.28" x2="201.598" y2="33.9147" gradientUnits="userSpaceOnUse">
<stop stop-color="#B41F3E"/>
<stop offset="1" stop-color="#711972"/>
</linearGradient>
</defs>
</svg>
