<svg width="513" height="388" viewBox="0 0 513 388" fill="none" xmlns="http://www.w3.org/2000/svg">
<path d="M334.809 170.992L221.695 109.102C215.191 105.543 207.504 105.676 201.129 109.453C194.75 113.234 190.945 119.914 190.945 127.328V250.047C190.945 257.426 194.727 264.094 201.062 267.879C204.371 269.855 208.039 270.848 211.715 270.848C215.082 270.848 218.457 270.016 221.562 268.344L334.68 207.52C341.395 203.906 345.586 196.926 345.617 189.297C345.645 181.668 341.504 174.656 334.809 170.992ZM220.949 234.609V142.891L305.488 189.148L220.949 234.609Z" fill="url(#paint0_linear_44_26)"/>
<path d="M508.234 91.5273L508.211 91.293C507.777 87.1719 503.461 50.5156 485.641 31.8711C465.043 9.94141 441.691 7.27734 430.461 6C429.531 5.89453 428.68 5.79688 427.918 5.69531L427.023 5.60156C359.336 0.679688 257.113 0.0078125 256.09 0.00390625L256 0L255.91 0.00390625C254.887 0.0078125 152.664 0.679688 84.3672 5.60156L83.4648 5.69531C82.7383 5.79297 81.9375 5.88281 81.0664 5.98438C69.9648 7.26562 46.8633 9.93359 26.207 32.6562C9.23438 51.1016 4.32812 86.9727 3.82422 91.0039L3.76562 91.5273C3.61328 93.2422 0 134.066 0 175.051V213.363C0 254.348 3.61328 295.172 3.76562 296.891L3.79297 297.148C4.22656 301.203 8.53906 337.188 26.2773 355.84C45.6445 377.035 70.1328 379.84 83.3047 381.348C85.3867 381.586 87.1797 381.789 88.4023 382.004L89.5859 382.168C128.668 385.887 251.203 387.719 256.398 387.793L256.555 387.797L256.711 387.793C257.734 387.789 359.953 387.117 427.641 382.195L428.535 382.102C429.391 381.988 430.352 381.887 431.406 381.777C442.445 380.605 465.422 378.172 485.793 355.758C502.766 337.309 507.676 301.438 508.176 297.41L508.234 296.887C508.387 295.168 512.004 254.348 512.004 213.363V175.051C512 134.066 508.387 93.2461 508.234 91.5273ZM481.996 213.363C481.996 251.297 478.684 290.363 478.371 293.949C477.098 303.828 471.922 326.523 463.652 335.512C450.902 349.539 437.805 350.93 428.242 351.941C427.086 352.063 426.016 352.18 425.047 352.301C359.578 357.035 261.215 357.762 256.684 357.789C251.602 357.715 130.859 355.867 92.9688 352.348C91.0273 352.031 88.9297 351.789 86.7188 351.539C75.5039 350.254 60.1523 348.496 48.3477 335.512L48.0703 335.215C39.9453 326.75 34.918 305.527 33.6406 294.066C33.4023 291.355 30.0039 251.828 30.0039 213.363V175.051C30.0039 137.16 33.3086 98.1367 33.6289 94.4766C35.1484 82.8398 40.4219 61.5195 48.3477 52.9023C61.4883 38.4492 75.3438 36.8477 84.5078 35.7891C85.3828 35.6875 86.1992 35.5937 86.9531 35.4961C153.375 30.7383 252.445 30.0313 256 30.0039C259.555 30.0273 358.59 30.7383 424.422 35.4961C425.23 35.5977 426.113 35.6992 427.062 35.8086C436.488 36.8828 450.734 38.5078 463.809 52.4531L463.93 52.582C472.055 61.0469 477.082 82.6406 478.359 94.332C478.586 96.8906 481.996 136.504 481.996 175.051V213.363Z" fill="url(#paint1_linear_44_26)"/>
<defs>
<linearGradient id="paint0_linear_44_26" x1="386.136" y1="299.331" x2="223.488" y2="18.4396" gradientUnits="userSpaceOnUse">
<stop stop-color="#B41F3E"/>
<stop offset="1" stop-color="#711972"/>
</linearGradient>
<linearGradient id="paint1_linear_44_26" x1="386.136" y1="299.331" x2="223.488" y2="18.4396" gradientUnits="userSpaceOnUse">
<stop stop-color="#B41F3E"/>
<stop offset="1" stop-color="#711972"/>
</linearGradient>
</defs>
</svg>
