<svg width="1725" height="237" viewBox="0 0 1725 237" fill="none" xmlns="http://www.w3.org/2000/svg">
<path d="M471.977 118.83C471.977 131.519 469.572 142.314 464.761 151.216C459.989 160.117 453.473 166.917 445.216 171.614C436.996 176.273 427.754 178.602 417.489 178.602C407.148 178.602 397.867 176.254 389.648 171.557C381.428 166.86 374.932 160.061 370.159 151.159C365.386 142.258 363 131.481 363 118.83C363 106.14 365.386 95.3447 370.159 86.4432C374.932 77.5417 381.428 70.7614 389.648 66.1023C397.867 61.4053 407.148 59.0568 417.489 59.0568C427.754 59.0568 436.996 61.4053 445.216 66.1023C453.473 70.7614 459.989 77.5417 464.761 86.4432C469.572 95.3447 471.977 106.14 471.977 118.83ZM447.034 118.83C447.034 110.61 445.803 103.678 443.341 98.0341C440.917 92.3902 437.489 88.1099 433.057 85.1932C428.625 82.2765 423.436 80.8182 417.489 80.8182C411.542 80.8182 406.352 82.2765 401.92 85.1932C397.489 88.1099 394.042 92.3902 391.58 98.0341C389.155 103.678 387.943 110.61 387.943 118.83C387.943 127.049 389.155 133.981 391.58 139.625C394.042 145.269 397.489 149.549 401.92 152.466C406.352 155.383 411.542 156.841 417.489 156.841C423.436 156.841 428.625 155.383 433.057 152.466C437.489 149.549 440.917 145.269 443.341 139.625C445.803 133.981 447.034 127.049 447.034 118.83Z" fill="white" fill-opacity="0.04"/>
<path d="M545.713 139.852V89.7386H569.918V177.011H546.679V161.159H545.77C543.8 166.273 540.524 170.383 535.94 173.489C531.395 176.595 525.846 178.148 519.293 178.148C513.459 178.148 508.327 176.822 503.895 174.17C499.463 171.519 495.997 167.75 493.497 162.864C491.035 157.977 489.785 152.125 489.747 145.307V89.7386H513.952V140.989C513.99 146.14 515.372 150.212 518.099 153.205C520.827 156.197 524.482 157.693 529.065 157.693C531.982 157.693 534.709 157.03 537.247 155.705C539.785 154.341 541.83 152.333 543.384 149.682C544.974 147.03 545.751 143.754 545.713 139.852Z" fill="white" fill-opacity="0.04"/>
<path d="M589.278 177.011V89.7386H612.744V104.966H613.653C615.244 99.5492 617.915 95.4583 621.665 92.6932C625.415 89.8902 629.733 88.4886 634.619 88.4886C635.831 88.4886 637.138 88.5644 638.54 88.7159C639.941 88.8674 641.172 89.0758 642.233 89.3409V110.818C641.097 110.477 639.525 110.174 637.517 109.909C635.509 109.644 633.672 109.511 632.006 109.511C628.445 109.511 625.263 110.288 622.46 111.841C619.695 113.356 617.498 115.477 615.869 118.205C614.278 120.932 613.483 124.076 613.483 127.636V177.011H589.278Z" fill="white" fill-opacity="0.04"/>
<path d="M755.358 94.1136C754.903 89.5303 752.953 85.9697 749.506 83.4318C746.059 80.8939 741.381 79.625 735.472 79.625C731.456 79.625 728.066 80.1932 725.301 81.3295C722.536 82.428 720.415 83.9621 718.938 85.9318C717.498 87.9015 716.778 90.1364 716.778 92.6364C716.703 94.7197 717.138 96.5379 718.085 98.0909C719.07 99.6439 720.415 100.989 722.119 102.125C723.824 103.223 725.794 104.189 728.028 105.023C730.263 105.818 732.65 106.5 735.188 107.068L745.642 109.568C750.718 110.705 755.377 112.22 759.619 114.114C763.862 116.008 767.536 118.337 770.642 121.102C773.748 123.867 776.153 127.125 777.858 130.875C779.6 134.625 780.491 138.924 780.528 143.773C780.491 150.894 778.672 157.068 775.074 162.295C771.513 167.485 766.362 171.519 759.619 174.398C752.915 177.239 744.828 178.659 735.358 178.659C725.964 178.659 717.782 177.22 710.812 174.341C703.881 171.462 698.464 167.201 694.562 161.557C690.699 155.875 688.672 148.848 688.483 140.477H712.29C712.555 144.379 713.672 147.636 715.642 150.25C717.65 152.826 720.32 154.777 723.653 156.102C727.025 157.39 730.831 158.034 735.074 158.034C739.241 158.034 742.858 157.428 745.926 156.216C749.032 155.004 751.438 153.318 753.142 151.159C754.847 149 755.699 146.519 755.699 143.716C755.699 141.102 754.922 138.905 753.369 137.125C751.854 135.345 749.619 133.83 746.665 132.58C743.748 131.33 740.169 130.193 735.926 129.17L723.256 125.989C713.445 123.602 705.699 119.871 700.017 114.795C694.335 109.72 691.513 102.883 691.551 94.2841C691.513 87.2386 693.388 81.0833 697.176 75.8182C701.002 70.553 706.248 66.4432 712.915 63.4886C719.581 60.5341 727.157 59.0568 735.642 59.0568C744.278 59.0568 751.816 60.5341 758.256 63.4886C764.733 66.4432 769.771 70.553 773.369 75.8182C776.968 81.0833 778.824 87.1818 778.938 94.1136H755.358Z" fill="white" fill-opacity="0.04"/>
<path d="M836.395 178.716C827.418 178.716 819.69 176.898 813.213 173.261C806.774 169.587 801.812 164.398 798.327 157.693C794.842 150.951 793.099 142.977 793.099 133.773C793.099 124.795 794.842 116.917 798.327 110.136C801.812 103.356 806.717 98.072 813.043 94.2841C819.406 90.4962 826.868 88.6023 835.429 88.6023C841.187 88.6023 846.546 89.5303 851.509 91.3864C856.509 93.2045 860.865 95.9508 864.577 99.625C868.327 103.299 871.243 107.92 873.327 113.489C875.41 119.019 876.452 125.496 876.452 132.92V139.568H802.759V124.568H853.668C853.668 121.083 852.91 117.996 851.395 115.307C849.88 112.617 847.777 110.515 845.088 109C842.437 107.447 839.349 106.67 835.827 106.67C832.152 106.67 828.895 107.523 826.054 109.227C823.251 110.894 821.054 113.148 819.463 115.989C817.872 118.792 817.058 121.917 817.02 125.364V139.625C817.02 143.943 817.815 147.674 819.406 150.818C821.035 153.962 823.327 156.386 826.281 158.091C829.236 159.795 832.74 160.648 836.793 160.648C839.482 160.648 841.944 160.269 844.179 159.511C846.414 158.754 848.327 157.617 849.918 156.102C851.509 154.587 852.721 152.731 853.554 150.534L875.94 152.011C874.804 157.39 872.474 162.087 868.952 166.102C865.467 170.08 860.959 173.186 855.429 175.42C849.937 177.617 843.592 178.716 836.395 178.716Z" fill="white" fill-opacity="0.04"/>
<path d="M892.247 177.011V89.7386H915.713V104.966H916.622C918.213 99.5492 920.884 95.4583 924.634 92.6932C928.384 89.8902 932.702 88.4886 937.588 88.4886C938.8 88.4886 940.107 88.5644 941.509 88.7159C942.91 88.8674 944.141 89.0758 945.202 89.3409V110.818C944.065 110.477 942.493 110.174 940.486 109.909C938.478 109.644 936.641 109.511 934.974 109.511C931.414 109.511 928.232 110.288 925.429 111.841C922.664 113.356 920.467 115.477 918.838 118.205C917.247 120.932 916.452 124.076 916.452 127.636V177.011H892.247Z" fill="white" fill-opacity="0.04"/>
<path d="M1041.74 89.7386L1011.22 177.011H983.952L953.44 89.7386H979.009L997.134 152.182H998.043L1016.11 89.7386H1041.74Z" fill="white" fill-opacity="0.04"/>
<path d="M1054.12 177.011V89.7386H1078.33V177.011H1054.12ZM1066.28 78.4886C1062.68 78.4886 1059.6 77.2955 1057.02 74.9091C1054.48 72.4848 1053.21 69.5871 1053.21 66.2159C1053.21 62.8826 1054.48 60.0227 1057.02 57.6364C1059.6 55.2121 1062.68 54 1066.28 54C1069.88 54 1072.95 55.2121 1075.49 57.6364C1078.06 60.0227 1079.35 62.8826 1079.35 66.2159C1079.35 69.5871 1078.06 72.4848 1075.49 74.9091C1072.95 77.2955 1069.88 78.4886 1066.28 78.4886Z" fill="white" fill-opacity="0.04"/>
<path d="M1137.15 178.716C1128.21 178.716 1120.52 176.822 1114.08 173.034C1107.68 169.208 1102.75 163.905 1099.31 157.125C1095.9 150.345 1094.19 142.542 1094.19 133.716C1094.19 124.777 1095.92 116.936 1099.36 110.193C1102.85 103.413 1107.79 98.1288 1114.19 94.3409C1120.59 90.5152 1128.21 88.6023 1137.03 88.6023C1144.65 88.6023 1151.31 89.9849 1157.03 92.75C1162.75 95.5152 1167.28 99.3977 1170.61 104.398C1173.95 109.398 1175.78 115.269 1176.12 122.011H1153.28C1152.64 117.655 1150.94 114.152 1148.17 111.5C1145.44 108.811 1141.86 107.466 1137.43 107.466C1133.68 107.466 1130.41 108.489 1127.6 110.534C1124.84 112.542 1122.68 115.477 1121.12 119.341C1119.57 123.205 1118.8 127.883 1118.8 133.375C1118.8 138.943 1119.55 143.678 1121.07 147.58C1122.62 151.481 1124.8 154.455 1127.6 156.5C1130.41 158.545 1133.68 159.568 1137.43 159.568C1140.2 159.568 1142.68 159 1144.88 157.864C1147.11 156.727 1148.95 155.08 1150.39 152.92C1151.86 150.723 1152.83 148.091 1153.28 145.023H1176.12C1175.75 151.689 1173.93 157.561 1170.67 162.636C1167.45 167.674 1163 171.614 1157.32 174.455C1151.64 177.295 1144.91 178.716 1137.15 178.716Z" fill="white" fill-opacity="0.04"/>
<path d="M1231.39 178.716C1222.42 178.716 1214.69 176.898 1208.21 173.261C1201.77 169.587 1196.81 164.398 1193.33 157.693C1189.84 150.951 1188.1 142.977 1188.1 133.773C1188.1 124.795 1189.84 116.917 1193.33 110.136C1196.81 103.356 1201.72 98.072 1208.04 94.2841C1214.41 90.4962 1221.87 88.6023 1230.43 88.6023C1236.19 88.6023 1241.55 89.5303 1246.51 91.3864C1251.51 93.2045 1255.86 95.9508 1259.58 99.625C1263.33 103.299 1266.24 107.92 1268.33 113.489C1270.41 119.019 1271.45 125.496 1271.45 132.92V139.568H1197.76V124.568H1248.67C1248.67 121.083 1247.91 117.996 1246.39 115.307C1244.88 112.617 1242.78 110.515 1240.09 109C1237.44 107.447 1234.35 106.67 1230.83 106.67C1227.15 106.67 1223.89 107.523 1221.05 109.227C1218.25 110.894 1216.05 113.148 1214.46 115.989C1212.87 118.792 1212.06 121.917 1212.02 125.364V139.625C1212.02 143.943 1212.82 147.674 1214.41 150.818C1216.04 153.962 1218.33 156.386 1221.28 158.091C1224.24 159.795 1227.74 160.648 1231.79 160.648C1234.48 160.648 1236.94 160.269 1239.18 159.511C1241.41 158.754 1243.33 157.617 1244.92 156.102C1246.51 154.587 1247.72 152.731 1248.55 150.534L1270.94 152.011C1269.8 157.39 1267.47 162.087 1263.95 166.102C1260.47 170.08 1255.96 173.186 1250.43 175.42C1244.94 177.617 1238.59 178.716 1231.39 178.716Z" fill="white" fill-opacity="0.04"/>
<path d="M1359.86 114.625L1337.7 115.989C1337.32 114.095 1336.51 112.39 1335.26 110.875C1334.01 109.322 1332.36 108.091 1330.32 107.182C1328.31 106.235 1325.9 105.761 1323.1 105.761C1319.35 105.761 1316.19 106.557 1313.61 108.148C1311.04 109.701 1309.75 111.784 1309.75 114.398C1309.75 116.481 1310.58 118.242 1312.25 119.682C1313.91 121.121 1316.77 122.277 1320.83 123.148L1336.62 126.33C1345.11 128.072 1351.43 130.875 1355.6 134.739C1359.77 138.602 1361.85 143.678 1361.85 149.966C1361.85 155.686 1360.16 160.705 1356.79 165.023C1353.46 169.341 1348.88 172.712 1343.04 175.136C1337.25 177.523 1330.56 178.716 1322.99 178.716C1311.43 178.716 1302.23 176.311 1295.37 171.5C1288.55 166.652 1284.56 160.061 1283.38 151.727L1307.19 150.477C1307.91 154 1309.65 156.689 1312.42 158.545C1315.18 160.364 1318.72 161.273 1323.04 161.273C1327.29 161.273 1330.69 160.458 1333.27 158.83C1335.88 157.163 1337.21 155.023 1337.25 152.409C1337.21 150.212 1336.28 148.413 1334.46 147.011C1332.64 145.572 1329.84 144.473 1326.05 143.716L1310.94 140.705C1302.42 139 1296.07 136.045 1291.91 131.841C1287.78 127.636 1285.71 122.277 1285.71 115.761C1285.71 110.155 1287.23 105.326 1290.26 101.273C1293.33 97.2197 1297.63 94.0947 1303.16 91.8977C1308.72 89.7008 1315.24 88.6023 1322.7 88.6023C1333.72 88.6023 1342.4 90.9318 1348.72 95.5909C1355.09 100.25 1358.8 106.595 1359.86 114.625Z" fill="white" fill-opacity="0.04"/>
</svg>
