<svg width="1725" height="237" viewBox="0 0 1725 237" fill="none" xmlns="http://www.w3.org/2000/svg">
<path d="M424.977 115.773C424.977 128.462 422.572 139.258 417.761 148.159C412.989 157.061 406.473 163.86 398.216 168.557C389.996 173.216 380.754 175.545 370.489 175.545C360.148 175.545 350.867 173.197 342.648 168.5C334.428 163.803 327.932 157.004 323.159 148.102C318.386 139.201 316 128.424 316 115.773C316 103.083 318.386 92.2879 323.159 83.3864C327.932 74.4848 334.428 67.7045 342.648 63.0455C350.867 58.3485 360.148 56 370.489 56C380.754 56 389.996 58.3485 398.216 63.0455C406.473 67.7045 412.989 74.4848 417.761 83.3864C422.572 92.2879 424.977 103.083 424.977 115.773ZM400.034 115.773C400.034 107.553 398.803 100.621 396.341 94.9773C393.917 89.3333 390.489 85.053 386.057 82.1364C381.625 79.2197 376.436 77.7614 370.489 77.7614C364.542 77.7614 359.352 79.2197 354.92 82.1364C350.489 85.053 347.042 89.3333 344.58 94.9773C342.155 100.621 340.943 107.553 340.943 115.773C340.943 123.992 342.155 130.924 344.58 136.568C347.042 142.212 350.489 146.492 354.92 149.409C359.352 152.326 364.542 153.784 370.489 153.784C376.436 153.784 381.625 152.326 386.057 149.409C390.489 146.492 393.917 142.212 396.341 136.568C398.803 130.924 400.034 123.992 400.034 115.773Z" fill="white" fill-opacity="0.04"/>
<path d="M498.713 136.795V86.6818H522.918V173.955H499.679V158.102H498.77C496.8 163.216 493.524 167.326 488.94 170.432C484.395 173.538 478.846 175.091 472.293 175.091C466.459 175.091 461.327 173.765 456.895 171.114C452.463 168.462 448.997 164.693 446.497 159.807C444.035 154.92 442.785 149.068 442.747 142.25V86.6818H466.952V137.932C466.99 143.083 468.372 147.155 471.099 150.148C473.827 153.14 477.482 154.636 482.065 154.636C484.982 154.636 487.709 153.973 490.247 152.648C492.785 151.284 494.83 149.277 496.384 146.625C497.974 143.973 498.751 140.697 498.713 136.795Z" fill="white" fill-opacity="0.04"/>
<path d="M542.278 173.955V86.6818H565.744V101.909H566.653C568.244 96.4924 570.915 92.4015 574.665 89.6364C578.415 86.8333 582.733 85.4318 587.619 85.4318C588.831 85.4318 590.138 85.5076 591.54 85.6591C592.941 85.8106 594.172 86.0189 595.233 86.2841V107.761C594.097 107.42 592.525 107.117 590.517 106.852C588.509 106.587 586.672 106.455 585.006 106.455C581.445 106.455 578.263 107.231 575.46 108.784C572.695 110.299 570.498 112.42 568.869 115.148C567.278 117.875 566.483 121.019 566.483 124.58V173.955H542.278Z" fill="white" fill-opacity="0.04"/>
<path d="M708.358 91.0568C707.903 86.4735 705.953 82.9129 702.506 80.375C699.059 77.8371 694.381 76.5682 688.472 76.5682C684.456 76.5682 681.066 77.1364 678.301 78.2727C675.536 79.3712 673.415 80.9053 671.938 82.875C670.498 84.8447 669.778 87.0796 669.778 89.5796C669.703 91.6629 670.138 93.4811 671.085 95.0341C672.07 96.5871 673.415 97.9318 675.119 99.0682C676.824 100.167 678.794 101.133 681.028 101.966C683.263 102.761 685.65 103.443 688.188 104.011L698.642 106.511C703.718 107.648 708.377 109.163 712.619 111.057C716.862 112.951 720.536 115.28 723.642 118.045C726.748 120.811 729.153 124.068 730.858 127.818C732.6 131.568 733.491 135.867 733.528 140.716C733.491 147.837 731.672 154.011 728.074 159.239C724.513 164.428 719.362 168.462 712.619 171.341C705.915 174.182 697.828 175.602 688.358 175.602C678.964 175.602 670.782 174.163 663.812 171.284C656.881 168.405 651.464 164.144 647.562 158.5C643.699 152.818 641.672 145.792 641.483 137.42H665.29C665.555 141.322 666.672 144.58 668.642 147.193C670.65 149.769 673.32 151.72 676.653 153.045C680.025 154.333 683.831 154.977 688.074 154.977C692.241 154.977 695.858 154.371 698.926 153.159C702.032 151.947 704.438 150.261 706.142 148.102C707.847 145.943 708.699 143.462 708.699 140.659C708.699 138.045 707.922 135.848 706.369 134.068C704.854 132.288 702.619 130.773 699.665 129.523C696.748 128.273 693.169 127.136 688.926 126.114L676.256 122.932C666.445 120.545 658.699 116.814 653.017 111.739C647.335 106.663 644.513 99.8258 644.551 91.2273C644.513 84.1818 646.388 78.0265 650.176 72.7614C654.002 67.4962 659.248 63.3864 665.915 60.4318C672.581 57.4773 680.157 56 688.642 56C697.278 56 704.816 57.4773 711.256 60.4318C717.733 63.3864 722.771 67.4962 726.369 72.7614C729.968 78.0265 731.824 84.125 731.938 91.0568H708.358Z" fill="white" fill-opacity="0.04"/>
<path d="M796.043 86.6818V104.864H743.486V86.6818H796.043ZM755.418 65.7727H779.622V147.136C779.622 149.371 779.963 151.114 780.645 152.364C781.327 153.576 782.274 154.428 783.486 154.92C784.736 155.413 786.175 155.659 787.804 155.659C788.94 155.659 790.077 155.564 791.213 155.375C792.349 155.148 793.221 154.977 793.827 154.864L797.634 172.875C796.421 173.254 794.717 173.689 792.52 174.182C790.323 174.712 787.652 175.034 784.509 175.148C778.675 175.375 773.562 174.598 769.168 172.818C764.812 171.038 761.421 168.273 758.997 164.523C756.573 160.773 755.38 156.038 755.418 150.318V65.7727Z" fill="white" fill-opacity="0.04"/>
<path d="M811.81 173.955V86.6818H835.276V101.909H836.185C837.776 96.4924 840.446 92.4015 844.196 89.6364C847.946 86.8333 852.264 85.4318 857.151 85.4318C858.363 85.4318 859.67 85.5076 861.071 85.6591C862.473 85.8106 863.704 86.0189 864.764 86.2841V107.761C863.628 107.42 862.056 107.117 860.048 106.852C858.041 106.587 856.204 106.455 854.537 106.455C850.976 106.455 847.794 107.231 844.991 108.784C842.226 110.299 840.029 112.42 838.401 115.148C836.81 117.875 836.014 121.019 836.014 124.58V173.955H811.81Z" fill="white" fill-opacity="0.04"/>
<path d="M912.989 175.659C904.011 175.659 896.284 173.841 889.807 170.205C883.367 166.53 878.405 161.341 874.92 154.636C871.436 147.894 869.693 139.92 869.693 130.716C869.693 121.739 871.436 113.86 874.92 107.08C878.405 100.299 883.311 95.0152 889.636 91.2273C896 87.4394 903.462 85.5455 912.023 85.5455C917.78 85.5455 923.14 86.4735 928.102 88.3296C933.102 90.1477 937.458 92.8939 941.17 96.5682C944.92 100.242 947.837 104.864 949.92 110.432C952.004 115.962 953.045 122.439 953.045 129.864V136.511H879.352V121.511H930.261C930.261 118.027 929.504 114.939 927.989 112.25C926.473 109.561 924.371 107.458 921.682 105.943C919.03 104.39 915.943 103.614 912.42 103.614C908.746 103.614 905.489 104.466 902.648 106.17C899.845 107.837 897.648 110.091 896.057 112.932C894.466 115.735 893.652 118.86 893.614 122.307V136.568C893.614 140.886 894.409 144.617 896 147.761C897.629 150.905 899.92 153.33 902.875 155.034C905.83 156.739 909.333 157.591 913.386 157.591C916.076 157.591 918.538 157.212 920.773 156.455C923.008 155.697 924.92 154.561 926.511 153.045C928.102 151.53 929.314 149.674 930.148 147.477L952.534 148.955C951.398 154.333 949.068 159.03 945.545 163.045C942.061 167.023 937.553 170.129 932.023 172.364C926.53 174.561 920.186 175.659 912.989 175.659Z" fill="white" fill-opacity="0.04"/>
<path d="M993.045 123.5V173.955H968.841V86.6818H991.909V102.08H992.932C994.864 97.0038 998.102 92.9886 1002.65 90.0341C1007.19 87.0417 1012.7 85.5455 1019.18 85.5455C1025.24 85.5455 1030.53 86.8712 1035.03 89.5227C1039.54 92.1742 1043.05 95.9621 1045.55 100.886C1048.05 105.773 1049.3 111.606 1049.3 118.386V173.955H1025.09V122.705C1025.13 117.364 1023.77 113.197 1021 110.205C1018.23 107.174 1014.43 105.659 1009.58 105.659C1006.32 105.659 1003.44 106.36 1000.94 107.761C998.481 109.163 996.549 111.208 995.148 113.898C993.784 116.549 993.083 119.75 993.045 123.5Z" fill="white" fill-opacity="0.04"/>
<path d="M1107.69 208.5C1099.85 208.5 1093.13 207.42 1087.52 205.261C1081.95 203.14 1077.52 200.242 1074.22 196.568C1070.93 192.894 1068.79 188.765 1067.8 184.182L1090.19 181.17C1090.87 182.913 1091.95 184.542 1093.43 186.057C1094.91 187.572 1096.86 188.784 1099.28 189.693C1101.74 190.64 1104.74 191.114 1108.26 191.114C1113.52 191.114 1117.86 189.826 1121.27 187.25C1124.72 184.712 1126.44 180.451 1126.44 174.466V158.5H1125.42C1124.36 160.924 1122.77 163.216 1120.64 165.375C1118.52 167.534 1115.8 169.295 1112.46 170.659C1109.13 172.023 1105.15 172.705 1100.53 172.705C1093.98 172.705 1088.01 171.189 1082.63 168.159C1077.29 165.091 1073.03 160.413 1069.85 154.125C1066.71 147.799 1065.13 139.807 1065.13 130.148C1065.13 120.261 1066.74 112.004 1069.96 105.375C1073.18 98.7462 1077.46 93.7841 1082.8 90.4886C1088.18 87.1932 1094.07 85.5455 1100.47 85.5455C1105.36 85.5455 1109.45 86.3788 1112.75 88.0455C1116.04 89.6742 1118.69 91.7197 1120.7 94.1818C1122.75 96.6061 1124.32 98.9924 1125.42 101.341H1126.33V86.6818H1150.36V174.807C1150.36 182.231 1148.54 188.443 1144.91 193.443C1141.27 198.443 1136.23 202.193 1129.79 204.693C1123.39 207.231 1116.02 208.5 1107.69 208.5ZM1108.2 154.523C1112.1 154.523 1115.4 153.557 1118.09 151.625C1120.82 149.655 1122.9 146.852 1124.34 143.216C1125.82 139.542 1126.55 135.148 1126.55 130.034C1126.55 124.92 1125.83 120.489 1124.39 116.739C1122.96 112.951 1120.87 110.015 1118.14 107.932C1115.42 105.848 1112.1 104.807 1108.2 104.807C1104.22 104.807 1100.87 105.886 1098.14 108.045C1095.42 110.167 1093.35 113.121 1091.95 116.909C1090.55 120.697 1089.85 125.072 1089.85 130.034C1089.85 135.072 1090.55 139.428 1091.95 143.102C1093.39 146.739 1095.46 149.561 1098.14 151.568C1100.87 153.538 1104.22 154.523 1108.2 154.523Z" fill="white" fill-opacity="0.04"/>
<path d="M1216.04 86.6818V104.864H1163.49V86.6818H1216.04ZM1175.42 65.7727H1199.62V147.136C1199.62 149.371 1199.96 151.114 1200.64 152.364C1201.33 153.576 1202.27 154.428 1203.49 154.92C1204.74 155.413 1206.18 155.659 1207.8 155.659C1208.94 155.659 1210.08 155.564 1211.21 155.375C1212.35 155.148 1213.22 154.977 1213.83 154.864L1217.63 172.875C1216.42 173.254 1214.72 173.689 1212.52 174.182C1210.32 174.712 1207.65 175.034 1204.51 175.148C1198.68 175.375 1193.56 174.598 1189.17 172.818C1184.81 171.038 1181.42 168.273 1179 164.523C1176.57 160.773 1175.38 156.038 1175.42 150.318V65.7727Z" fill="white" fill-opacity="0.04"/>
<path d="M1257.89 123.5V173.955H1233.68V57.5909H1257.21V102.08H1258.23C1260.2 96.928 1263.38 92.8939 1267.78 89.9773C1272.17 87.0227 1277.68 85.5455 1284.31 85.5455C1290.37 85.5455 1295.65 86.8712 1300.16 89.5227C1304.71 92.1364 1308.23 95.9053 1310.73 100.83C1313.27 105.716 1314.52 111.568 1314.48 118.386V173.955H1290.28V122.705C1290.31 117.326 1288.95 113.14 1286.18 110.148C1283.46 107.155 1279.63 105.659 1274.71 105.659C1271.41 105.659 1268.5 106.36 1265.96 107.761C1263.46 109.163 1261.49 111.208 1260.05 113.898C1258.65 116.549 1257.93 119.75 1257.89 123.5Z" fill="white" fill-opacity="0.04"/>
<path d="M1406.14 111.568L1383.98 112.932C1383.6 111.038 1382.79 109.333 1381.54 107.818C1380.29 106.265 1378.64 105.034 1376.6 104.125C1374.59 103.178 1372.18 102.705 1369.38 102.705C1365.63 102.705 1362.47 103.5 1359.89 105.091C1357.32 106.644 1356.03 108.727 1356.03 111.341C1356.03 113.424 1356.86 115.186 1358.53 116.625C1360.2 118.064 1363.05 119.22 1367.11 120.091L1382.9 123.273C1391.39 125.015 1397.71 127.818 1401.88 131.682C1406.05 135.545 1408.13 140.621 1408.13 146.909C1408.13 152.629 1406.45 157.648 1403.07 161.966C1399.74 166.284 1395.16 169.655 1389.32 172.08C1383.53 174.466 1376.84 175.659 1369.27 175.659C1357.71 175.659 1348.51 173.254 1341.65 168.443C1334.84 163.595 1330.84 157.004 1329.66 148.67L1353.47 147.42C1354.19 150.943 1355.93 153.633 1358.7 155.489C1361.46 157.307 1365.01 158.216 1369.32 158.216C1373.57 158.216 1376.98 157.402 1379.55 155.773C1382.16 154.106 1383.49 151.966 1383.53 149.352C1383.49 147.155 1382.56 145.356 1380.74 143.955C1378.93 142.515 1376.12 141.417 1372.34 140.659L1357.22 137.648C1348.7 135.943 1342.35 132.989 1338.19 128.784C1334.06 124.58 1331.99 119.22 1331.99 112.705C1331.99 107.098 1333.51 102.269 1336.54 98.2159C1339.61 94.1629 1343.91 91.0379 1349.44 88.8409C1355.01 86.6439 1361.52 85.5455 1368.98 85.5455C1380.01 85.5455 1388.68 87.875 1395.01 92.5341C1401.37 97.1932 1405.08 103.538 1406.14 111.568Z" fill="white" fill-opacity="0.04"/>
</svg>
