<svg width="480" height="480" viewBox="0 0 480 480" fill="none" xmlns="http://www.w3.org/2000/svg">
<path d="M456 0H24C17.6406 0.0189927 11.5472 2.55366 7.05042 7.05042C2.55366 11.5472 0.0189927 17.6406 0 24V456C0.0189927 462.359 2.55366 468.453 7.05042 472.95C11.5472 477.446 17.6406 479.981 24 480H456C462.359 479.981 468.453 477.446 472.95 472.95C477.446 468.453 479.981 462.359 480 456V24C479.981 17.6406 477.446 11.5472 472.95 7.05042C468.453 2.55366 462.359 0.0189927 456 0ZM464 456C464 458.122 463.157 460.157 461.657 461.657C460.157 463.157 458.122 464 456 464H24C21.8783 464 19.8434 463.157 18.3431 461.657C16.8429 460.157 16 458.122 16 456V80H464V456ZM464 64H16V24C16 21.8783 16.8429 19.8434 18.3431 18.3431C19.8434 16.8429 21.8783 16 24 16H456C458.122 16 460.157 16.8429 461.657 18.3431C463.157 19.8434 464 21.8783 464 24V64Z" fill="url(#paint0_linear_7_1405)"/>
<path d="M48 32H40C37.8783 32 35.8434 32.8429 34.3431 34.3431C32.8429 35.8434 32 37.8783 32 40C32 42.1217 32.8429 44.1566 34.3431 45.6569C35.8434 47.1571 37.8783 48 40 48H48C50.1217 48 52.1566 47.1571 53.6569 45.6569C55.1571 44.1566 56 42.1217 56 40C56 37.8783 55.1571 35.8434 53.6569 34.3431C52.1566 32.8429 50.1217 32 48 32Z" fill="url(#paint1_linear_7_1405)"/>
<path d="M80 32H72C69.8783 32 67.8434 32.8429 66.3431 34.3431C64.8429 35.8434 64 37.8783 64 40C64 42.1217 64.8429 44.1566 66.3431 45.6569C67.8434 47.1571 69.8783 48 72 48H80C82.1217 48 84.1566 47.1571 85.6569 45.6569C87.1571 44.1566 88 42.1217 88 40C88 37.8783 87.1571 35.8434 85.6569 34.3431C84.1566 32.8429 82.1217 32 80 32Z" fill="url(#paint2_linear_7_1405)"/>
<path d="M112 32H104C101.878 32 99.8434 32.8429 98.3431 34.3431C96.8429 35.8434 96 37.8783 96 40C96 42.1217 96.8429 44.1566 98.3431 45.6569C99.8434 47.1571 101.878 48 104 48H112C114.122 48 116.157 47.1571 117.657 45.6569C119.157 44.1566 120 42.1217 120 40C120 37.8783 119.157 35.8434 117.657 34.3431C116.157 32.8429 114.122 32 112 32Z" fill="url(#paint3_linear_7_1405)"/>
<path d="M440 32H160C157.878 32 155.843 32.8429 154.343 34.3431C152.843 35.8434 152 37.8783 152 40C152 42.1217 152.843 44.1566 154.343 45.6569C155.843 47.1571 157.878 48 160 48H440C442.122 48 444.157 47.1571 445.657 45.6569C447.157 44.1566 448 42.1217 448 40C448 37.8783 447.157 35.8434 445.657 34.3431C444.157 32.8429 442.122 32 440 32Z" fill="url(#paint4_linear_7_1405)"/>
<path d="M392 232H378.4C375.432 221.697 371.298 211.766 366.08 202.4L375.76 192.8C380.221 188.266 382.721 182.16 382.721 175.8C382.721 169.44 380.221 163.334 375.76 158.8L353.12 136.24C348.602 131.78 342.509 129.28 336.16 129.28C329.811 129.28 323.718 131.78 319.2 136.24L309.6 145.92C300.234 140.702 290.303 136.568 280 133.6V120C279.981 113.641 277.446 107.547 272.95 103.05C268.453 98.5537 262.359 96.019 256 96H224C217.641 96.019 211.547 98.5537 207.05 103.05C202.554 107.547 200.019 113.641 200 120V133.6C189.697 136.568 179.766 140.702 170.4 145.92L160.8 136.24C156.266 131.779 150.16 129.279 143.8 129.279C137.44 129.279 131.334 131.779 126.8 136.24L104.24 158.88C99.7805 163.398 97.28 169.491 97.28 175.84C97.28 182.189 99.7805 188.282 104.24 192.8L113.92 202.4C108.702 211.766 104.568 221.697 101.6 232H88C81.6406 232.019 75.5472 234.554 71.0504 239.05C66.5537 243.547 64.019 249.641 64 256V288C64.019 294.359 66.5537 300.453 71.0504 304.95C75.5472 309.446 81.6406 311.981 88 312H101.6C104.568 322.303 108.702 332.234 113.92 341.6L104.24 351.2C99.7793 355.734 97.2794 361.84 97.2794 368.2C97.2794 374.56 99.7793 380.666 104.24 385.2L126.88 407.76C131.398 412.22 137.491 414.72 143.84 414.72C150.189 414.72 156.282 412.22 160.8 407.76L170.4 398.08C179.766 403.298 189.697 407.432 200 410.4V424C200.019 430.359 202.554 436.453 207.05 440.95C211.547 445.446 217.641 447.981 224 448H256C262.359 447.981 268.453 445.446 272.95 440.95C277.446 436.453 279.981 430.359 280 424V410.4C290.303 407.432 300.234 403.298 309.6 398.08L319.2 407.76C323.734 412.221 329.84 414.721 336.2 414.721C342.56 414.721 348.666 412.221 353.2 407.76L375.76 385.12C380.22 380.602 382.72 374.509 382.72 368.16C382.72 361.811 380.22 355.718 375.76 351.2L366.08 341.6C371.298 332.234 375.432 322.303 378.4 312H392C398.359 311.981 404.453 309.446 408.95 304.95C413.446 300.453 415.981 294.359 416 288V256C415.981 249.641 413.446 243.547 408.95 239.05C404.453 234.554 398.359 232.019 392 232ZM400 288C400 290.122 399.157 292.157 397.657 293.657C396.157 295.157 394.122 296 392 296H372.24C370.443 296.006 368.699 296.617 367.292 297.734C365.884 298.852 364.893 300.411 364.48 302.16C361.351 315.065 356.222 327.401 349.28 338.72C348.353 340.253 347.959 342.051 348.162 343.831C348.365 345.611 349.152 347.274 350.4 348.56L364.4 362.56C365.159 363.29 365.763 364.166 366.176 365.135C366.589 366.104 366.801 367.147 366.801 368.2C366.801 369.253 366.589 370.296 366.176 371.265C365.763 372.234 365.159 373.11 364.4 373.84L341.92 396.4C341.182 397.16 340.299 397.763 339.323 398.176C338.348 398.588 337.299 398.801 336.24 398.801C335.181 398.801 334.132 398.588 333.157 398.176C332.181 397.763 331.298 397.16 330.56 396.4L316.56 382.4C315.274 381.152 313.611 380.365 311.831 380.162C310.051 379.959 308.253 380.353 306.72 381.28C295.401 388.222 283.065 393.351 270.16 396.48C268.411 396.893 266.852 397.884 265.734 399.292C264.617 400.699 264.006 402.443 264 404.24V424C264 426.122 263.157 428.157 261.657 429.657C260.157 431.157 258.122 432 256 432H224C221.878 432 219.843 431.157 218.343 429.657C216.843 428.157 216 426.122 216 424V404.24C215.994 402.443 215.383 400.699 214.266 399.292C213.148 397.884 211.589 396.893 209.84 396.48C196.935 393.351 184.599 388.222 173.28 381.28C172.033 380.497 170.592 380.082 169.12 380.08C166.998 380.088 164.961 380.92 163.44 382.4L149.44 396.4C148.705 397.15 147.827 397.746 146.859 398.153C145.89 398.56 144.85 398.77 143.8 398.77C142.75 398.77 141.71 398.56 140.741 398.153C139.773 397.746 138.895 397.15 138.16 396.4L115.6 373.92C114.84 373.182 114.237 372.299 113.824 371.323C113.412 370.348 113.199 369.299 113.199 368.24C113.199 367.181 113.412 366.132 113.824 365.157C114.237 364.181 114.84 363.298 115.6 362.56L129.6 348.56C130.848 347.274 131.635 345.611 131.838 343.831C132.041 342.051 131.647 340.253 130.72 338.72C123.778 327.401 118.649 315.065 115.52 302.16C115.107 300.411 114.116 298.852 112.708 297.734C111.301 296.617 109.557 296.006 107.76 296H88C85.8783 296 83.8434 295.157 82.3431 293.657C80.8429 292.157 80 290.122 80 288V256C80 253.878 80.8429 251.843 82.3431 250.343C83.8434 248.843 85.8783 248 88 248H107.76C109.557 247.994 111.301 247.383 112.708 246.266C114.116 245.148 115.107 243.589 115.52 241.84C118.649 228.935 123.778 216.599 130.72 205.28C131.647 203.747 132.041 201.949 131.838 200.169C131.635 198.389 130.848 196.726 129.6 195.44L115.6 181.44C114.841 180.71 114.237 179.834 113.824 178.865C113.411 177.896 113.199 176.853 113.199 175.8C113.199 174.747 113.411 173.704 113.824 172.735C114.237 171.766 114.841 170.89 115.6 170.16L138.08 147.6C138.818 146.84 139.701 146.237 140.677 145.824C141.652 145.412 142.701 145.199 143.76 145.199C144.819 145.199 145.868 145.412 146.843 145.824C147.819 146.237 148.702 146.84 149.44 147.6L163.44 161.6C164.726 162.848 166.389 163.635 168.169 163.838C169.949 164.041 171.747 163.647 173.28 162.72C184.599 155.778 196.935 150.649 209.84 147.52C211.589 147.107 213.148 146.116 214.266 144.708C215.383 143.301 215.994 141.557 216 139.76V120C216 117.878 216.843 115.843 218.343 114.343C219.843 112.843 221.878 112 224 112H256C258.122 112 260.157 112.843 261.657 114.343C263.157 115.843 264 117.878 264 120V139.76C264.006 141.557 264.617 143.301 265.734 144.708C266.852 146.116 268.411 147.107 270.16 147.52C283.065 150.649 295.401 155.778 306.72 162.72C308.253 163.647 310.051 164.041 311.831 163.838C313.611 163.635 315.274 162.848 316.56 161.6L330.56 147.6C331.29 146.841 332.166 146.237 333.135 145.824C334.104 145.411 335.147 145.199 336.2 145.199C337.253 145.199 338.296 145.411 339.265 145.824C340.234 146.237 341.11 146.841 341.84 147.6L364.4 170.08C365.16 170.818 365.763 171.701 366.176 172.677C366.588 173.652 366.801 174.701 366.801 175.76C366.801 176.819 366.588 177.868 366.176 178.843C365.763 179.819 365.16 180.702 364.4 181.44L350.4 195.44C349.152 196.726 348.365 198.389 348.162 200.169C347.959 201.949 348.353 203.747 349.28 205.28C356.222 216.599 361.351 228.935 364.48 241.84C364.893 243.589 365.884 245.148 367.292 246.266C368.699 247.383 370.443 247.994 372.24 248H392C394.122 248 396.157 248.843 397.657 250.343C399.157 251.843 400 253.878 400 256V288Z" fill="url(#paint5_linear_7_1405)"/>
<path d="M240 168C219.431 168 199.323 174.099 182.221 185.527C165.118 196.955 151.788 213.197 143.917 232.201C136.045 251.204 133.985 272.115 137.998 292.289C142.011 312.463 151.916 330.994 166.461 345.539C181.006 360.084 199.537 369.989 219.711 374.002C239.885 378.015 260.796 375.955 279.799 368.083C298.803 360.212 315.045 346.882 326.473 329.779C337.901 312.677 344 292.569 344 272C343.975 244.425 333.009 217.987 313.511 198.489C294.013 178.991 267.575 168.025 240 168ZM268 320.4C266.779 321.105 265.766 322.12 265.064 323.342C264.361 324.564 263.994 325.95 264 327.36V356.56C248.329 361.147 231.671 361.147 216 356.56V327.36C216.006 325.95 215.639 324.564 214.936 323.342C214.234 322.12 213.221 321.105 212 320.4C203.836 315.692 196.993 308.997 192.107 300.938C187.221 292.879 184.45 283.716 184.051 274.3C183.652 264.883 185.638 255.519 189.825 247.075C194.012 238.632 200.263 231.382 208 226V272C208.007 273.318 208.339 274.613 208.967 275.772C209.595 276.93 210.5 277.915 211.6 278.64L235.6 294.64C236.891 295.539 238.427 296.02 240 296.02C241.573 296.02 243.109 295.539 244.4 294.64L268.4 278.64C269.5 277.915 270.405 276.93 271.033 275.772C271.661 274.613 271.993 273.318 272 272V226C279.737 231.382 285.988 238.632 290.175 247.075C294.362 255.519 296.348 264.883 295.949 274.3C295.55 283.716 292.779 292.879 287.893 300.938C283.007 308.997 276.164 315.692 268 320.4ZM280 350.32V331.84C290.892 324.573 299.596 314.474 305.176 302.629C310.756 290.784 313 277.642 311.667 264.616C310.334 251.591 305.474 239.175 297.611 228.706C289.747 218.237 279.178 210.11 267.04 205.2C265.812 204.733 264.491 204.562 263.184 204.701C261.878 204.84 260.622 205.285 259.52 206C258.446 206.746 257.566 207.737 256.954 208.893C256.341 210.048 256.014 211.333 256 212.64V267.68L240 278.4L224 267.68V212.64C224.007 211.323 223.688 210.025 223.072 208.86C222.457 207.696 221.563 206.702 220.471 205.966C219.379 205.23 218.122 204.775 216.811 204.641C215.501 204.508 214.178 204.7 212.96 205.2C200.822 210.11 190.253 218.237 182.389 228.706C174.526 239.175 169.666 251.591 168.333 264.616C167 277.642 169.244 290.784 174.824 302.629C180.404 314.474 189.108 324.573 200 331.84V350.32C182.398 341.337 168.331 326.691 160.066 308.741C151.801 290.791 149.819 270.581 154.438 251.366C159.057 232.152 170.009 215.052 185.531 202.82C201.052 190.588 220.238 183.936 240 183.936C259.762 183.936 278.948 190.588 294.47 202.82C309.991 215.052 320.943 232.152 325.562 251.366C330.181 270.581 328.199 290.791 319.934 308.741C311.669 326.691 297.602 341.337 280 350.32Z" fill="url(#paint6_linear_7_1405)"/>
<defs>
<linearGradient id="paint0_linear_7_1405" x1="292.867" y1="328.55" x2="195.8" y2="201.583" gradientUnits="userSpaceOnUse">
<stop stop-color="#B41F3E"/>
<stop offset="1" stop-color="#711972"/>
</linearGradient>
<linearGradient id="paint1_linear_7_1405" x1="292.867" y1="328.55" x2="195.8" y2="201.583" gradientUnits="userSpaceOnUse">
<stop stop-color="#B41F3E"/>
<stop offset="1" stop-color="#711972"/>
</linearGradient>
<linearGradient id="paint2_linear_7_1405" x1="292.867" y1="328.55" x2="195.8" y2="201.583" gradientUnits="userSpaceOnUse">
<stop stop-color="#B41F3E"/>
<stop offset="1" stop-color="#711972"/>
</linearGradient>
<linearGradient id="paint3_linear_7_1405" x1="292.867" y1="328.55" x2="195.8" y2="201.583" gradientUnits="userSpaceOnUse">
<stop stop-color="#B41F3E"/>
<stop offset="1" stop-color="#711972"/>
</linearGradient>
<linearGradient id="paint4_linear_7_1405" x1="292.867" y1="328.55" x2="195.8" y2="201.583" gradientUnits="userSpaceOnUse">
<stop stop-color="#B41F3E"/>
<stop offset="1" stop-color="#711972"/>
</linearGradient>
<linearGradient id="paint5_linear_7_1405" x1="292.867" y1="328.55" x2="195.8" y2="201.583" gradientUnits="userSpaceOnUse">
<stop stop-color="#B41F3E"/>
<stop offset="1" stop-color="#711972"/>
</linearGradient>
<linearGradient id="paint6_linear_7_1405" x1="292.867" y1="328.55" x2="195.8" y2="201.583" gradientUnits="userSpaceOnUse">
<stop stop-color="#B41F3E"/>
<stop offset="1" stop-color="#711972"/>
</linearGradient>
</defs>
</svg>
