<svg width="513" height="512" viewBox="0 0 513 512" fill="none" xmlns="http://www.w3.org/2000/svg">
<path d="M508.452 27.4347C507.524 21.7069 504.822 16.4146 500.727 12.304C496.632 8.1934 491.35 5.47174 485.625 4.52273C400.463 -9.26714 329.755 9.11366 281.149 57.7366L216.467 122.411L99.9868 105.813C95.7482 105.228 91.4318 105.629 87.3734 106.985C83.3151 108.341 79.6244 110.615 76.5884 113.63L9.07264 181.154C3.9008 186.344 0.996826 193.373 0.996826 200.7C0.996826 208.027 3.9008 215.055 9.07264 220.245L64.9148 276.07C62.9307 279.891 61.867 284.122 61.8086 288.427C61.767 292.046 62.4482 295.637 63.8124 298.99C65.1766 302.343 67.1963 305.389 69.7532 307.951L50.0326 317.798C46.1127 319.757 42.7145 322.62 40.1183 326.15C37.5221 329.68 35.8022 333.777 35.1005 338.103C34.3987 342.428 34.7352 346.859 36.0822 351.029C37.4291 355.199 39.748 358.989 42.8476 362.086L50.9628 370.193C49.9814 371.217 48.9745 372.207 48.0529 373.316C19.5174 407.45 17.6316 461.926 18.1862 483.584C18.2477 485.709 18.9066 487.773 20.0875 489.54C21.2684 491.307 22.9234 492.705 24.8627 493.575C26.8021 494.444 28.9472 494.749 31.0521 494.455C33.157 494.161 35.1364 493.28 36.7633 491.913C44.2793 484.982 53.3936 480.019 63.2934 477.466C64.8038 477.107 65.8534 478.251 65.239 480.026C64.5998 481.872 64.4546 483.854 64.8179 485.774C65.1812 487.694 66.0404 489.486 67.3102 490.971C68.5799 492.457 70.2161 493.584 72.0562 494.242C73.8964 494.899 75.8765 495.064 77.8001 494.72C102.41 490.778 125.359 479.814 143.891 463.147L150.897 470.153C153.439 472.723 156.466 474.764 159.803 476.156C163.14 477.547 166.72 478.262 170.336 478.259C171.871 478.248 173.403 478.117 174.918 477.867C179.25 477.185 183.356 475.473 186.888 472.874C190.421 470.276 193.278 466.866 195.219 462.933L205.109 443.153C210.266 448.276 217.244 451.146 224.514 451.132C228.843 451.092 233.103 450.043 236.955 448.068L292.78 503.893C297.972 509.063 305 511.966 312.326 511.966C319.652 511.966 326.68 509.063 331.872 503.893L399.421 436.352C402.436 433.305 404.71 429.605 406.067 425.539C407.424 421.473 407.827 417.149 407.247 412.902L390.624 296.61L455.332 231.91C503.929 183.313 522.293 112.64 508.452 27.4347ZM482.852 21.3675C485.053 21.7193 487.085 22.7621 488.655 24.3452C490.224 25.9284 491.249 27.9697 491.581 30.1739C500.047 82.2273 495.72 128.307 479.268 166.443L346.703 33.8774C373.947 22.459 403.249 16.7659 432.787 17.1521C449.566 17.2056 466.313 18.6039 482.869 21.3334L482.852 21.3675ZM21.1388 193.22L88.6886 125.679C89.8535 124.525 91.2686 123.656 92.824 123.138C94.3794 122.62 96.0333 122.467 97.6572 122.692L201.38 137.498L75.9398 262.938L21.1388 208.213C20.1539 207.229 19.3727 206.061 18.8396 204.774C18.3066 203.488 18.0322 202.109 18.0322 200.717C18.0322 199.325 18.3066 197.946 18.8396 196.66C19.3727 195.373 20.1539 194.205 21.1388 193.22ZM82.7238 476.271C82.4871 472.324 80.8991 468.579 78.2268 465.664C75.8073 463.234 72.7746 461.505 69.451 460.66C66.1274 459.816 62.6371 459.888 59.351 460.868C50.7647 462.976 42.6163 466.578 35.2785 471.509C35.9526 449.246 40.279 409.216 61.1345 384.265C61.7404 383.548 62.3889 382.916 63.0204 382.251L131.876 451.106C118.01 463.7 101.048 472.385 82.7238 476.271ZM179.953 455.33C179.202 456.83 178.106 458.13 176.755 459.123C175.404 460.117 173.836 460.776 172.181 461.046C170.526 461.316 168.831 461.189 167.234 460.676C165.637 460.163 164.185 459.278 162.997 458.095L54.9137 350.02C53.7282 348.834 52.8416 347.382 52.327 345.786C51.8123 344.189 51.6843 342.493 51.9534 340.837C52.2226 339.182 52.8812 337.613 53.8751 336.262C54.8689 334.911 56.1696 333.815 57.67 333.065L82.4678 320.666L192.377 430.49L179.953 455.33ZM390.342 415.292C390.572 416.925 390.422 418.589 389.904 420.155C389.386 421.721 388.514 423.146 387.355 424.32L319.805 491.861C317.817 493.836 315.128 494.944 312.326 494.944C309.524 494.944 306.835 493.836 304.847 491.861L250.105 437.12L375.545 311.68L390.342 415.292ZM232.143 430.933C230.151 432.933 227.449 434.066 224.627 434.083C221.804 434.101 219.089 433.002 217.073 431.027L81.8961 295.979C79.9249 293.955 78.836 291.233 78.868 288.409C78.9 285.584 80.0503 282.887 82.0668 280.909L293.216 69.8027C304.311 58.8089 316.874 49.404 330.549 41.8561L471.349 182.656C463.738 196.285 454.275 208.794 443.232 219.827L232.143 430.933Z" fill="url(#paint0_linear_7_1407)"/>
<path d="M298.08 133.871C292.825 128.82 285.819 125.999 278.53 125.999C271.241 125.999 264.235 128.82 258.98 133.871C254.551 138.317 251.765 144.138 251.081 150.376C250.397 156.615 251.856 162.9 255.217 168.201L237.595 209.331L204.247 242.671C202.006 244.925 200.44 247.761 199.728 250.859C199.016 253.957 199.187 257.192 200.219 260.198L184.006 276.412C182.42 277.997 181.163 279.878 180.305 281.949C179.446 284.021 179.005 286.24 179.005 288.482C179.005 290.724 179.446 292.944 180.305 295.015C181.163 297.086 182.42 298.968 184.006 300.553L212.473 329.011C215.674 332.211 220.014 334.008 224.539 334.008C229.065 334.008 233.405 332.211 236.605 329.011L252.819 312.798C254.573 313.42 256.419 313.749 258.28 313.771C260.144 313.748 261.991 313.422 263.75 312.806L279.264 328.32C280.941 330.005 282.936 331.341 285.133 332.251C287.33 333.16 289.686 333.625 292.064 333.619C294.442 333.63 296.799 333.166 298.996 332.257C301.194 331.347 303.188 330.009 304.864 328.32L318.389 314.803C321.782 311.408 323.688 306.804 323.688 302.003C323.688 297.203 321.782 292.599 318.389 289.203L304.335 275.14L344.893 257.784C350.631 261.433 357.514 262.836 364.222 261.722C370.93 260.609 376.991 257.059 381.242 251.752C385.493 246.445 387.636 239.756 387.259 232.966C386.881 226.177 384.011 219.766 379.197 214.963L298.08 133.871ZM300.768 258.125L254.901 212.258L267.914 181.888L331.189 245.086L300.768 258.125ZM224.514 317.005L196.047 288.538L211.005 273.587L239.473 302.046L224.514 317.005ZM216.313 254.771L244.78 226.313L286.747 268.28L258.289 296.704L216.313 254.771ZM306.297 302.771L292.78 316.245H291.338L277.113 302.012L292.064 287.061L306.289 301.286C306.481 301.479 306.589 301.739 306.591 302.01C306.592 302.282 306.487 302.543 306.297 302.737V302.771ZM367.123 241.946C365.124 243.896 362.44 244.985 359.647 244.977C356.855 244.969 354.177 243.865 352.189 241.903L271.08 160.896C269.606 159.407 268.604 157.515 268.203 155.458C267.801 153.402 268.016 151.272 268.821 149.338C269.627 147.403 270.986 145.75 272.729 144.586C274.472 143.422 276.519 142.8 278.615 142.797C280 142.803 281.37 143.083 282.646 143.622C283.922 144.161 285.078 144.948 286.048 145.937L367.157 227.004C368.135 227.984 368.91 229.148 369.438 230.428C369.965 231.708 370.235 233.08 370.232 234.465C370.229 235.849 369.953 237.22 369.419 238.498C368.886 239.776 368.105 240.936 367.123 241.912V241.946Z" fill="url(#paint1_linear_7_1407)"/>
<defs>
<linearGradient id="paint0_linear_7_1407" x1="387.082" y1="395.19" x2="148.203" y2="82.7017" gradientUnits="userSpaceOnUse">
<stop stop-color="#B41F3E"/>
<stop offset="1" stop-color="#711972"/>
</linearGradient>
<linearGradient id="paint1_linear_7_1407" x1="387.082" y1="395.19" x2="148.203" y2="82.7017" gradientUnits="userSpaceOnUse">
<stop stop-color="#B41F3E"/>
<stop offset="1" stop-color="#711972"/>
</linearGradient>
</defs>
</svg>
