<svg width="513" height="436" viewBox="0 0 513 436" fill="none" xmlns="http://www.w3.org/2000/svg">
<path d="M491.947 367.333H434.389C455.96 358.043 474.288 342.558 487.049 322.84C489.768 318.316 490.115 312.751 487.979 307.924C487.416 306.644 486.716 305.108 485.931 303.436C496.059 288.805 503.606 272.547 508.245 255.367C512.165 236.751 513.064 217.625 510.908 198.723C510.03 190.719 504.617 183.937 497.007 181.307C488.354 139.783 476.706 133.153 472.764 130.96C467.755 128.089 461.709 127.662 456.346 129.799C435.217 137.846 435.14 156.731 435.072 173.379C435.072 177.364 434.944 181.435 434.688 185.496C426.49 187.41 419.874 193.442 417.212 201.428C415.509 206.405 413.144 211.129 410.18 215.474C406.659 213.599 403.032 211.93 399.317 210.474C395.785 209.165 391.899 209.18 388.378 210.516L344.559 227.259C341.118 228.591 338.249 231.08 336.444 234.299C334.415 238 332.589 241.808 330.974 245.708C328.689 245.009 326.449 244.171 324.267 243.199V145.467C324.267 136.041 316.626 128.4 307.2 128.4H102.4C92.9743 128.4 85.3333 136.041 85.3333 145.467V157.089C77.4472 155.039 69.3322 154.001 61.184 154C0 154 0 221.243 0 243.344C0 292.743 24.0128 324.667 61.184 324.667C71.0309 324.612 80.8241 323.211 90.2912 320.502C96.5911 339.438 108.801 355.853 125.124 367.333H54.1867C49.2591 366.914 44.3683 368.481 40.6022 371.686C36.8361 374.891 34.5071 379.469 34.1333 384.4V401.467C34.1333 420.607 53.0603 435.6 77.2267 435.6H468.907C493.073 435.6 512 420.607 512 401.467V384.4C511.626 379.469 509.297 374.891 505.531 371.686C501.765 368.481 496.874 366.914 491.947 367.333V367.333ZM462.404 145.688C463.042 145.345 463.818 145.384 464.418 145.791C465.877 146.602 472.883 151.986 479.326 180.24C472.149 180.539 462.848 181.17 452.019 182.57C452.13 179.387 452.156 176.28 452.164 173.388C452.207 155.707 453.069 149.247 462.404 145.688ZM433.493 206.599C434.363 204.06 436.561 202.207 439.211 201.778C440.789 201.454 442.351 201.223 444.083 200.925C458.984 198.407 474.062 197.086 489.173 196.974H489.737C491.821 196.832 493.662 198.32 493.961 200.387C495.927 217.372 495.161 234.563 491.691 251.306C488.469 263.481 483.475 275.117 476.868 285.84C463.946 261.96 446.189 241.035 424.73 224.4C428.42 218.877 431.367 212.892 433.493 206.599V206.599ZM351.147 242.96L393.924 226.619C439.603 244.581 467.311 303.18 472.431 314.171C467.712 322.328 452.523 342.919 413.474 357.819C400.081 363.09 385.965 366.298 371.61 367.333H360.354C354.398 367.059 348.504 365.998 342.827 364.176C342.34 362.085 341.683 359.218 341.026 355.771C336.964 334.634 329.873 281.514 351.113 242.96H351.147ZM299.17 354.166C307.583 358.249 316.334 361.595 325.325 364.167C325.581 365.362 325.82 366.378 326.033 367.333H284.16C289.616 363.488 294.647 359.075 299.17 354.166ZM321.98 345.147C310.494 341.349 299.686 335.746 289.963 328.549C277.241 317.902 266.413 305.178 257.937 290.917C256.923 288.738 257.562 286.146 259.473 284.688C259.584 284.585 259.695 284.483 259.789 284.381C271.554 274.244 284.081 265.027 297.259 256.81C298.615 255.956 299.972 255.043 301.619 254.087C303.607 252.794 306.156 252.738 308.198 253.942C313.541 257.329 319.327 259.957 325.393 261.75C318.732 289.047 317.572 317.397 321.98 345.147V345.147ZM248.115 228.479C248.383 227.576 249.079 226.864 249.975 226.576C259.021 223.163 263.159 227.242 273.698 240.75C275.507 243.062 277.444 245.537 279.526 248.02C270.225 254.258 262.571 260.044 256.785 264.703C247.91 244.923 246.323 233.104 248.115 228.479ZM85.3333 268.116C77.7328 271.528 69.5145 273.349 61.184 273.467C54.6987 273.467 51.2 257.944 51.2 243.344C51.2 205.2 56.9685 205.2 61.184 205.2C69.9207 204.844 78.4935 207.646 85.3333 213.093V268.116ZM17.0667 243.37C17.0667 209.697 22.0843 171.067 61.184 171.067C69.3829 171.026 77.5356 172.296 85.3333 174.83V193.168C77.7475 189.747 69.5047 188.029 61.184 188.133C36.1984 188.133 34.1333 214.254 34.1333 243.344C34.1333 272.895 44.2453 290.533 61.184 290.533C69.4136 290.449 77.573 289.007 85.3333 286.267V290.533C85.3696 294.994 85.7289 299.445 86.4085 303.854C78.2163 306.273 69.7258 307.534 61.184 307.6C33.5616 307.6 17.0667 283.579 17.0667 243.344V243.37ZM104.388 307.805C103.059 302.144 102.392 296.348 102.4 290.533L102.4 145.467H307.2V236.304C302.728 235.887 298.232 236.777 294.255 238.864C291.789 236.048 289.417 233.147 287.155 230.245C277.487 217.855 265.481 202.401 243.908 210.619C238.501 212.616 234.231 216.868 232.209 222.267C227.763 233.727 231.637 251.783 243.806 277.144C239.346 284.033 239.197 292.859 243.422 299.894C252.973 315.889 265.176 330.141 279.509 342.04C281.003 343.192 282.547 344.242 284.092 345.3C269.804 359.443 250.504 367.363 230.4 367.333H179.2C143.383 367.48 112.276 342.717 104.388 307.779V307.805ZM494.933 401.467C494.933 410.717 482.987 418.533 468.907 418.533H77.2267C63.1467 418.533 51.2 410.717 51.2 401.467V385.176C52.0998 384.635 53.1371 384.365 54.1867 384.4H491.947C492.996 384.365 494.034 384.635 494.933 385.176V401.467Z" fill="url(#paint0_linear_21_6)"/>
<path d="M187.734 94.2666C187.734 98.9794 191.554 102.8 196.267 102.8C200.98 102.8 204.8 98.9794 204.8 94.2666C204.744 88.2469 207.152 82.466 211.465 78.2666C225.335 63.194 225.335 40.0058 211.465 24.9332C207.152 20.7338 204.744 14.9529 204.8 8.93324C204.8 4.22041 200.98 0.399902 196.267 0.399902C191.554 0.399902 187.734 4.22041 187.734 8.93324C187.658 18.8262 191.382 28.3709 198.136 35.5999C202.402 39.8314 204.801 45.5913 204.801 51.5999C204.801 57.6085 202.402 63.3684 198.136 67.5999C191.382 74.8289 187.658 84.3736 187.734 94.2666Z" fill="url(#paint1_linear_21_6)"/>
<path d="M136.533 94.2666C136.533 98.9794 140.354 102.8 145.067 102.8C149.78 102.8 153.6 98.9794 153.6 94.2666C153.543 88.2469 155.951 82.466 160.265 78.2666C174.134 63.194 174.134 40.0058 160.265 24.9332C155.951 20.7338 153.543 14.9529 153.6 8.93324C153.6 4.22041 149.78 0.399902 145.067 0.399902C140.354 0.399902 136.533 4.22041 136.533 8.93324C136.458 18.8262 140.181 28.3709 146.935 35.5999C151.201 39.8314 153.601 45.5913 153.601 51.5999C153.601 57.6085 151.201 63.3684 146.935 67.5999C140.181 74.8289 136.458 84.3736 136.533 94.2666Z" fill="url(#paint2_linear_21_6)"/>
<path d="M238.933 94.2666C238.933 98.9794 242.754 102.8 247.467 102.8C252.179 102.8 256 98.9794 256 94.2666C255.943 88.2469 258.351 82.466 262.664 78.2666C276.534 63.194 276.534 40.0058 262.664 24.9332C258.351 20.7338 255.943 14.9529 256 8.93324C256 4.22041 252.179 0.399902 247.467 0.399902C242.754 0.399902 238.933 4.22041 238.933 8.93324C238.858 18.8262 242.581 28.3709 249.335 35.5999C253.601 39.8314 256.001 45.5913 256.001 51.5999C256.001 57.6085 253.601 63.3684 249.335 67.5999C242.581 74.8289 238.858 84.3736 238.933 94.2666Z" fill="url(#paint3_linear_21_6)"/>
<defs>
<linearGradient id="paint0_linear_21_6" x1="386.171" y1="365.52" x2="273.581" y2="120.041" gradientUnits="userSpaceOnUse">
<stop stop-color="#B41F3E"/>
<stop offset="1" stop-color="#711972"/>
</linearGradient>
<linearGradient id="paint1_linear_21_6" x1="213.476" y1="79.4399" x2="177.19" y2="63.6183" gradientUnits="userSpaceOnUse">
<stop stop-color="#B41F3E"/>
<stop offset="1" stop-color="#711972"/>
</linearGradient>
<linearGradient id="paint2_linear_21_6" x1="162.275" y1="79.4399" x2="125.99" y2="63.6183" gradientUnits="userSpaceOnUse">
<stop stop-color="#B41F3E"/>
<stop offset="1" stop-color="#711972"/>
</linearGradient>
<linearGradient id="paint3_linear_21_6" x1="264.675" y1="79.4399" x2="228.39" y2="63.6183" gradientUnits="userSpaceOnUse">
<stop stop-color="#B41F3E"/>
<stop offset="1" stop-color="#711972"/>
</linearGradient>
</defs>
</svg>
