<svg width="480" height="480" viewBox="0 0 480 480" fill="none" xmlns="http://www.w3.org/2000/svg">
<path d="M144 136C152.837 136 160 128.837 160 120C160 111.163 152.837 104 144 104C135.163 104 128 111.163 128 120C128 128.837 135.163 136 144 136Z" fill="url(#paint0_linear_21_16)"/>
<path d="M472 400H464V352C463.97 332.914 456.375 314.617 442.879 301.121C429.383 287.625 411.086 280.03 392 280H384V269.92C390.278 265.531 395.59 259.902 399.608 253.38C403.625 246.858 406.264 239.581 407.36 232H416C420.853 232.018 425.597 230.558 429.601 227.815C433.605 225.072 436.68 221.176 438.416 216.643C440.152 212.111 440.469 207.158 439.323 202.442C438.177 197.726 435.623 193.47 432 190.24V144C432 133.391 427.786 123.217 420.284 115.716C412.783 108.214 402.609 104 392 104H384C379.24 104.002 374.589 105.423 370.64 108.08C367.146 101.978 362.103 96.9081 356.02 93.382C349.937 89.856 343.031 87.9993 336 88H280C277.878 88 275.843 88.8429 274.343 90.3431C272.843 91.8434 272 93.8783 272 96V190.24C268.377 193.47 265.823 197.726 264.677 202.442C263.531 207.158 263.848 212.111 265.584 216.643C267.32 221.176 270.395 225.072 274.399 227.815C278.403 230.558 283.147 232.018 288 232H296.64C297.736 239.581 300.375 246.858 304.392 253.38C308.41 259.902 313.722 265.531 320 269.92V280H296C287.991 280.039 280.082 281.785 272.8 285.12C270.822 281.172 267.783 277.854 264.024 275.536C260.266 273.219 255.936 271.994 251.52 272H92.48C88.831 272 85.23 272.832 81.9508 274.432C78.6716 276.033 75.8006 278.36 73.556 281.237C71.3115 284.114 69.7526 287.465 68.9977 291.035C68.2429 294.605 68.3121 298.301 69.2 301.84L93.2 397.84C93.36 398.56 93.68 399.28 93.92 400H8C5.87827 400 3.84344 400.843 2.34315 402.343C0.842854 403.843 0 405.878 0 408V440C0 442.122 0.842854 444.157 2.34315 445.657C3.84344 447.157 5.87827 448 8 448H16V472C16 474.122 16.8429 476.157 18.3431 477.657C19.8434 479.157 21.8783 480 24 480C26.1217 480 28.1566 479.157 29.6569 477.657C31.1571 476.157 32 474.122 32 472V448H448V472C448 474.122 448.843 476.157 450.343 477.657C451.843 479.157 453.878 480 456 480C458.122 480 460.157 479.157 461.657 477.657C463.157 476.157 464 474.122 464 472V448H472C474.122 448 476.157 447.157 477.657 445.657C479.157 444.157 480 442.122 480 440V408C480 405.878 479.157 403.843 477.657 402.343C476.157 400.843 474.122 400 472 400ZM424 208C424 210.122 423.157 212.157 421.657 213.657C420.157 215.157 418.122 216 416 216H408V200H416C418.122 200 420.157 200.843 421.657 202.343C423.157 203.843 424 205.878 424 208ZM296 216H288C285.878 216 283.843 215.157 282.343 213.657C280.843 212.157 280 210.122 280 208C280 205.878 280.843 203.843 282.343 202.343C283.843 200.843 285.878 200 288 200H296V216ZM296 184H288V104H336C342.359 104.019 348.453 106.554 352.95 111.05C357.446 115.547 359.981 121.641 360 128C360 130.122 360.843 132.157 362.343 133.657C363.843 135.157 365.878 136 368 136C370.122 136 372.157 135.157 373.657 133.657C375.157 132.157 376 130.122 376 128C376 125.878 376.843 123.843 378.343 122.343C379.843 120.843 381.878 120 384 120H392C398.359 120.019 404.453 122.554 408.95 127.05C413.446 131.547 415.981 137.641 416 144V184H408C407.981 177.641 405.446 171.547 400.95 167.05C396.453 162.554 390.359 160.019 384 160H320C313.641 160.019 307.547 162.554 303.05 167.05C298.554 171.547 296.019 177.641 296 184ZM312 224V184C312 181.878 312.843 179.843 314.343 178.343C315.843 176.843 317.878 176 320 176H384C386.122 176 388.157 176.843 389.657 178.343C391.157 179.843 392 181.878 392 184V224C392 234.609 387.786 244.783 380.284 252.284C372.783 259.786 362.609 264 352 264C341.391 264 331.217 259.786 323.716 252.284C316.214 244.783 312 234.609 312 224ZM379.28 296H384V316.16L366.24 309.04L379.28 296ZM352 300.72L336 284.72V277.68C346.442 280.773 357.558 280.773 368 277.68V284.72L352 300.72ZM320 296H324.72L337.76 309.04L320 316.16V296ZM296 296H304V328C304 330.122 304.843 332.157 306.343 333.657C307.843 335.157 309.878 336 312 336C313.014 336.016 314.021 335.825 314.96 335.44L352 320.64L389.04 335.44C389.979 335.825 390.986 336.016 392 336C394.122 336 396.157 335.157 397.657 333.657C399.157 332.157 400 330.122 400 328V296.64C413.317 298.562 425.496 305.215 434.311 315.38C443.125 325.546 447.984 338.545 448 352V368H416V352C416 349.878 415.157 347.843 413.657 346.343C412.157 344.843 410.122 344 408 344C405.878 344 403.843 344.843 402.343 346.343C400.843 347.843 400 349.878 400 352V400H355.52C358.43 395.169 359.978 389.64 360 384V376C360 373.878 359.157 371.843 357.657 370.343C356.157 368.843 354.122 368 352 368H294.24L277.44 300.64C283.148 297.584 289.525 295.99 296 296ZM448 384V400H416V384H448ZM344 384C343.987 388.24 342.298 392.302 339.3 395.3C336.302 398.298 332.24 399.987 328 400H302.24L298.24 384H344ZM84.72 297.92C84.4333 296.738 84.4138 295.508 84.6629 294.317C84.912 293.127 85.4235 292.008 86.16 291.04C86.9134 290.087 87.8741 289.317 88.9691 288.791C90.0642 288.264 91.2649 287.993 92.48 288H251.52C253.307 288.001 255.041 288.601 256.448 289.703C257.854 290.805 258.851 292.346 259.28 294.08L285.76 400H116.48C114.693 399.999 112.959 399.399 111.552 398.297C110.146 397.195 109.149 395.654 108.72 393.92L84.72 297.92ZM464 432H16V416H464V432Z" fill="url(#paint1_linear_21_16)"/>
<path d="M216 0H24C17.6406 0.0189927 11.5472 2.55366 7.05042 7.05042C2.55366 11.5472 0.0189927 17.6406 0 24V216C0.0189927 222.359 2.55366 228.453 7.05042 232.95C11.5472 237.446 17.6406 239.981 24 240H125.2L163.04 270.24C164.435 271.392 166.191 272.015 168 272C169.195 272.021 170.377 271.746 171.44 271.2C172.801 270.552 173.952 269.532 174.759 268.258C175.565 266.984 175.996 265.508 176 264V240H216C222.359 239.981 228.453 237.446 232.95 232.95C237.446 228.453 239.981 222.359 240 216V24C239.981 17.6406 237.446 11.5472 232.95 7.05042C228.453 2.55366 222.359 0.0189927 216 0ZM224 216C224 218.122 223.157 220.157 221.657 221.657C220.157 223.157 218.122 224 216 224H168C165.878 224 163.843 224.843 162.343 226.343C160.843 227.843 160 229.878 160 232V247.36L132.96 225.76C131.56 224.618 129.807 223.996 128 224H24C21.8783 224 19.8434 223.157 18.3431 221.657C16.8429 220.157 16 218.122 16 216V64H224V216ZM224 48H16V24C16 21.8783 16.8429 19.8434 18.3431 18.3431C19.8434 16.8429 21.8783 16 24 16H216C218.122 16 220.157 16.8429 221.657 18.3431C223.157 19.8434 224 21.8783 224 24V48Z" fill="url(#paint2_linear_21_16)"/>
<path d="M200 80H40C37.8783 80 35.8434 80.8429 34.3431 82.3431C32.8429 83.8434 32 85.8783 32 88V200C32 202.122 32.8429 204.157 34.3431 205.657C35.8434 207.157 37.8783 208 40 208H200C202.122 208 204.157 207.157 205.657 205.657C207.157 204.157 208 202.122 208 200V88C208 85.8783 207.157 83.8434 205.657 82.3431C204.157 80.8429 202.122 80 200 80ZM56.64 192L103.6 133.36L144.64 192H56.64ZM164.16 192L157.36 182.32L168 166.4L185.04 192H164.16ZM192 173.6L174.64 147.6C173.915 146.5 172.93 145.595 171.772 144.967C170.613 144.339 169.318 144.007 168 144C166.691 144.005 165.403 144.328 164.246 144.941C163.089 145.554 162.099 146.439 161.36 147.52L147.52 168.24L110.56 115.44C109.848 114.413 108.906 113.567 107.809 112.969C106.711 112.372 105.489 112.04 104.24 112C102.995 111.95 101.757 112.2 100.629 112.729C99.5012 113.258 98.5172 114.051 97.76 115.04L48 177.2V96H192V173.6Z" fill="url(#paint3_linear_21_16)"/>
<path d="M336 216C338.122 216 340.157 215.157 341.657 213.657C343.157 212.157 344 210.122 344 208V200C344 197.878 343.157 195.843 341.657 194.343C340.157 192.843 338.122 192 336 192C333.878 192 331.843 192.843 330.343 194.343C328.843 195.843 328 197.878 328 200V208C328 210.122 328.843 212.157 330.343 213.657C331.843 215.157 333.878 216 336 216Z" fill="url(#paint4_linear_21_16)"/>
<path d="M368 216C370.122 216 372.157 215.157 373.657 213.657C375.157 212.157 376 210.122 376 208V200C376 197.878 375.157 195.843 373.657 194.343C372.157 192.843 370.122 192 368 192C365.878 192 363.843 192.843 362.343 194.343C360.843 195.843 360 197.878 360 200V208C360 210.122 360.843 212.157 362.343 213.657C363.843 215.157 365.878 216 368 216Z" fill="url(#paint5_linear_21_16)"/>
<path d="M352 246.616C356.022 246.624 360.006 245.836 363.723 244.298C367.439 242.76 370.815 240.503 373.656 237.656C375.113 236.147 375.92 234.126 375.901 232.029C375.883 229.931 375.042 227.925 373.559 226.441C372.075 224.958 370.069 224.117 367.971 224.099C365.874 224.08 363.853 224.887 362.344 226.344C359.598 229.083 355.878 230.621 352 230.621C348.122 230.621 344.402 229.083 341.656 226.344C340.147 224.887 338.126 224.08 336.029 224.099C333.931 224.117 331.925 224.958 330.441 226.441C328.958 227.925 328.117 229.931 328.099 232.029C328.08 234.126 328.887 236.147 330.344 237.656C333.185 240.503 336.561 242.76 340.277 244.298C343.994 245.836 347.978 246.624 352 246.616Z" fill="url(#paint6_linear_21_16)"/>
<path d="M352 360C354.122 360 356.157 359.157 357.657 357.657C359.157 356.157 360 354.122 360 352V344C360 341.878 359.157 339.843 357.657 338.343C356.157 336.843 354.122 336 352 336C349.878 336 347.843 336.843 346.343 338.343C344.843 339.843 344 341.878 344 344V352C344 354.122 344.843 356.157 346.343 357.657C347.843 359.157 349.878 360 352 360Z" fill="url(#paint7_linear_21_16)"/>
<path d="M184 320C179.253 320 174.613 321.408 170.666 324.045C166.72 326.682 163.643 330.43 161.827 334.816C160.01 339.201 159.535 344.027 160.461 348.682C161.387 353.338 163.673 357.614 167.029 360.971C170.386 364.327 174.662 366.613 179.318 367.539C183.973 368.465 188.799 367.99 193.184 366.173C197.57 364.357 201.318 361.28 203.955 357.334C206.592 353.387 208 348.747 208 344C208 337.635 205.471 331.53 200.971 327.029C196.47 322.529 190.365 320 184 320ZM184 352C182.418 352 180.871 351.531 179.555 350.652C178.24 349.773 177.214 348.523 176.609 347.061C176.003 345.6 175.845 343.991 176.154 342.439C176.462 340.887 177.224 339.462 178.343 338.343C179.462 337.224 180.887 336.462 182.439 336.154C183.991 335.845 185.6 336.003 187.061 336.609C188.523 337.214 189.773 338.24 190.652 339.555C191.531 340.871 192 342.418 192 344C192 346.122 191.157 348.157 189.657 349.657C188.157 351.157 186.122 352 184 352Z" fill="url(#paint8_linear_21_16)"/>
<path d="M32 40H40C42.1217 40 44.1566 39.1571 45.6569 37.6569C47.1571 36.1566 48 34.1217 48 32C48 29.8783 47.1571 27.8434 45.6569 26.3431C44.1566 24.8429 42.1217 24 40 24H32C29.8783 24 27.8434 24.8429 26.3431 26.3431C24.8429 27.8434 24 29.8783 24 32C24 34.1217 24.8429 36.1566 26.3431 37.6569C27.8434 39.1571 29.8783 40 32 40Z" fill="url(#paint9_linear_21_16)"/>
<path d="M64 40H72C74.1217 40 76.1566 39.1571 77.6569 37.6569C79.1571 36.1566 80 34.1217 80 32C80 29.8783 79.1571 27.8434 77.6569 26.3431C76.1566 24.8429 74.1217 24 72 24H64C61.8783 24 59.8434 24.8429 58.3431 26.3431C56.8429 27.8434 56 29.8783 56 32C56 34.1217 56.8429 36.1566 58.3431 37.6569C59.8434 39.1571 61.8783 40 64 40Z" fill="url(#paint10_linear_21_16)"/>
<path d="M96 40H104C106.122 40 108.157 39.1571 109.657 37.6569C111.157 36.1566 112 34.1217 112 32C112 29.8783 111.157 27.8434 109.657 26.3431C108.157 24.8429 106.122 24 104 24H96C93.8783 24 91.8434 24.8429 90.3431 26.3431C88.8429 27.8434 88 29.8783 88 32C88 34.1217 88.8429 36.1566 90.3431 37.6569C91.8434 39.1571 93.8783 40 96 40Z" fill="url(#paint11_linear_21_16)"/>
<path d="M136 40H208C210.122 40 212.157 39.1571 213.657 37.6569C215.157 36.1566 216 34.1217 216 32C216 29.8783 215.157 27.8434 213.657 26.3431C212.157 24.8429 210.122 24 208 24H136C133.878 24 131.843 24.8429 130.343 26.3431C128.843 27.8434 128 29.8783 128 32C128 34.1217 128.843 36.1566 130.343 37.6569C131.843 39.1571 133.878 40 136 40Z" fill="url(#paint12_linear_21_16)"/>
<defs>
<linearGradient id="paint0_linear_21_16" x1="362" y1="370.5" x2="138" y2="77.5" gradientUnits="userSpaceOnUse">
<stop stop-color="#B41F3E"/>
<stop offset="1" stop-color="#711972"/>
</linearGradient>
<linearGradient id="paint1_linear_21_16" x1="362" y1="370.5" x2="138" y2="77.5" gradientUnits="userSpaceOnUse">
<stop stop-color="#B41F3E"/>
<stop offset="1" stop-color="#711972"/>
</linearGradient>
<linearGradient id="paint2_linear_21_16" x1="362" y1="370.5" x2="138" y2="77.5" gradientUnits="userSpaceOnUse">
<stop stop-color="#B41F3E"/>
<stop offset="1" stop-color="#711972"/>
</linearGradient>
<linearGradient id="paint3_linear_21_16" x1="362" y1="370.5" x2="138" y2="77.5" gradientUnits="userSpaceOnUse">
<stop stop-color="#B41F3E"/>
<stop offset="1" stop-color="#711972"/>
</linearGradient>
<linearGradient id="paint4_linear_21_16" x1="362" y1="370.5" x2="138" y2="77.5" gradientUnits="userSpaceOnUse">
<stop stop-color="#B41F3E"/>
<stop offset="1" stop-color="#711972"/>
</linearGradient>
<linearGradient id="paint5_linear_21_16" x1="362" y1="370.5" x2="138" y2="77.5" gradientUnits="userSpaceOnUse">
<stop stop-color="#B41F3E"/>
<stop offset="1" stop-color="#711972"/>
</linearGradient>
<linearGradient id="paint6_linear_21_16" x1="362" y1="370.5" x2="138" y2="77.5" gradientUnits="userSpaceOnUse">
<stop stop-color="#B41F3E"/>
<stop offset="1" stop-color="#711972"/>
</linearGradient>
<linearGradient id="paint7_linear_21_16" x1="362" y1="370.5" x2="138" y2="77.5" gradientUnits="userSpaceOnUse">
<stop stop-color="#B41F3E"/>
<stop offset="1" stop-color="#711972"/>
</linearGradient>
<linearGradient id="paint8_linear_21_16" x1="362" y1="370.5" x2="138" y2="77.5" gradientUnits="userSpaceOnUse">
<stop stop-color="#B41F3E"/>
<stop offset="1" stop-color="#711972"/>
</linearGradient>
<linearGradient id="paint9_linear_21_16" x1="362" y1="370.5" x2="138" y2="77.5" gradientUnits="userSpaceOnUse">
<stop stop-color="#B41F3E"/>
<stop offset="1" stop-color="#711972"/>
</linearGradient>
<linearGradient id="paint10_linear_21_16" x1="362" y1="370.5" x2="138" y2="77.5" gradientUnits="userSpaceOnUse">
<stop stop-color="#B41F3E"/>
<stop offset="1" stop-color="#711972"/>
</linearGradient>
<linearGradient id="paint11_linear_21_16" x1="362" y1="370.5" x2="138" y2="77.5" gradientUnits="userSpaceOnUse">
<stop stop-color="#B41F3E"/>
<stop offset="1" stop-color="#711972"/>
</linearGradient>
<linearGradient id="paint12_linear_21_16" x1="362" y1="370.5" x2="138" y2="77.5" gradientUnits="userSpaceOnUse">
<stop stop-color="#B41F3E"/>
<stop offset="1" stop-color="#711972"/>
</linearGradient>
</defs>
</svg>
