<svg width="513" height="512" viewBox="0 0 513 512" fill="none" xmlns="http://www.w3.org/2000/svg">
<path d="M460.8 388.651V310.801L472.055 306.594C476.73 304.881 480.726 301.703 483.447 297.534C486.169 293.366 487.471 288.429 487.159 283.46C486.967 278.536 485.189 273.806 482.088 269.975C478.988 266.144 474.732 263.418 469.956 262.204L460.8 259.763V34.1333C460.8 25.0806 457.204 16.3987 450.803 9.99742C444.401 3.59618 435.719 0 426.667 0H34.1333C25.0806 0 16.3987 3.59618 9.99742 9.99742C3.59618 16.3987 0 25.0806 0 34.1333V426.667C0 435.719 3.59618 444.401 9.99742 450.803C16.3987 457.204 25.0806 460.8 34.1333 460.8H259.746L262.195 469.948C263.481 474.72 266.249 478.96 270.101 482.057C273.953 485.153 278.688 486.946 283.625 487.177C288.562 487.408 293.444 486.064 297.568 483.34C301.692 480.616 304.843 476.653 306.569 472.021L310.801 460.8H388.659L433.271 505.361C435.373 507.466 437.869 509.135 440.617 510.275C443.365 511.414 446.31 512 449.284 512C452.259 512 455.204 511.414 457.952 510.275C460.699 509.135 463.195 507.466 465.297 505.361L505.404 465.297C507.507 463.195 509.176 460.698 510.315 457.951C511.453 455.203 512.039 452.258 512.039 449.284C512.039 446.31 511.453 443.365 510.315 440.618C509.176 437.87 507.507 435.374 505.404 433.272L460.8 388.651ZM443.733 371.584L404.181 331.947L443.733 317.184V371.584ZM34.1333 17.0667H426.667C431.193 17.0667 435.534 18.8648 438.735 22.0654C441.935 25.266 443.733 29.607 443.733 34.1333V68.2667H17.0667V34.1333C17.0667 29.607 18.8648 25.266 22.0654 22.0654C25.266 18.8648 29.607 17.0667 34.1333 17.0667ZM34.1333 443.733C29.607 443.733 25.266 441.935 22.0654 438.735C18.8648 435.534 17.0667 431.193 17.0667 426.667V85.3333H443.733V255.215L225.553 197.12C221.611 196.063 217.461 196.06 213.517 197.109C209.573 198.159 205.974 200.225 203.079 203.101C200.183 205.978 198.093 209.563 197.018 213.5C195.942 217.437 195.919 221.587 196.949 225.536L255.198 443.733H34.1333ZM317.175 443.733L331.947 404.181L371.567 443.733H317.175ZM493.295 453.222L453.188 493.329C452.13 494.351 450.717 494.922 449.246 494.922C447.775 494.922 446.361 494.351 445.303 493.329L334.652 382.737C333.05 381.14 330.88 380.244 328.619 380.245C328.008 380.244 327.399 380.307 326.801 380.433C325.406 380.737 324.109 381.386 323.03 382.321C321.95 383.255 321.123 384.446 320.623 385.784L290.62 465.997C290.172 467.27 289.322 468.362 288.198 469.109C287.074 469.855 285.737 470.216 284.39 470.136C283.064 470.098 281.787 469.626 280.756 468.792C279.724 467.958 278.995 466.808 278.682 465.519L213.453 221.158C213.182 220.1 213.192 218.989 213.483 217.937C213.775 216.884 214.337 215.926 215.114 215.157C215.89 214.389 216.855 213.838 217.911 213.558C218.967 213.279 220.078 213.281 221.133 213.564L465.596 278.69C466.875 278.987 468.018 279.704 468.842 280.727C469.666 281.749 470.125 283.018 470.144 284.331C470.247 285.681 469.904 287.028 469.167 288.165C468.43 289.301 467.34 290.164 466.065 290.62L385.852 320.623C384.513 321.123 383.322 321.951 382.387 323.031C381.451 324.112 380.802 325.41 380.499 326.806C380.196 328.202 380.248 329.652 380.651 331.023C381.054 332.394 381.795 333.642 382.805 334.652L493.295 445.338C494.343 446.385 494.933 447.806 494.933 449.289C494.935 450.02 494.792 450.745 494.51 451.421C494.229 452.096 493.816 452.709 493.295 453.222Z" fill="url(#paint0_linear_21_17)"/>
<path d="M42.6667 51.2H51.2C53.4632 51.2 55.6337 50.3009 57.234 48.7006C58.8343 47.1003 59.7333 44.9298 59.7333 42.6667C59.7333 40.4035 58.8343 38.233 57.234 36.6327C55.6337 35.0324 53.4632 34.1333 51.2 34.1333H42.6667C40.4035 34.1333 38.233 35.0324 36.6327 36.6327C35.0324 38.233 34.1333 40.4035 34.1333 42.6667C34.1333 44.9298 35.0324 47.1003 36.6327 48.7006C38.233 50.3009 40.4035 51.2 42.6667 51.2Z" fill="url(#paint1_linear_21_17)"/>
<path d="M85.3333 51.2H93.8667C96.1298 51.2 98.3003 50.3009 99.9006 48.7006C101.501 47.1003 102.4 44.9298 102.4 42.6667C102.4 40.4035 101.501 38.233 99.9006 36.6327C98.3003 35.0324 96.1298 34.1333 93.8667 34.1333H85.3333C83.0701 34.1333 80.8997 35.0324 79.2993 36.6327C77.699 38.233 76.8 40.4035 76.8 42.6667C76.8 44.9298 77.699 47.1003 79.2993 48.7006C80.8997 50.3009 83.0701 51.2 85.3333 51.2Z" fill="url(#paint2_linear_21_17)"/>
<path d="M128 51.2H136.533C138.797 51.2 140.967 50.3009 142.567 48.7006C144.168 47.1003 145.067 44.9298 145.067 42.6667C145.067 40.4035 144.168 38.233 142.567 36.6327C140.967 35.0324 138.797 34.1333 136.533 34.1333H128C125.737 34.1333 123.566 35.0324 121.966 36.6327C120.366 38.233 119.467 40.4035 119.467 42.6667C119.467 44.9298 120.366 47.1003 121.966 48.7006C123.566 50.3009 125.737 51.2 128 51.2Z" fill="url(#paint3_linear_21_17)"/>
<path d="M366.933 51.2H418.133C420.397 51.2 422.567 50.3009 424.167 48.7006C425.768 47.1003 426.667 44.9298 426.667 42.6667C426.667 40.4035 425.768 38.233 424.167 36.6327C422.567 35.0324 420.397 34.1333 418.133 34.1333H366.933C364.67 34.1333 362.5 35.0324 360.899 36.6327C359.299 38.233 358.4 40.4035 358.4 42.6667C358.4 44.9298 359.299 47.1003 360.899 48.7006C362.5 50.3009 364.67 51.2 366.933 51.2Z" fill="url(#paint4_linear_21_17)"/>
<path d="M159.633 147.567C158.024 146.012 155.868 145.152 153.631 145.172C151.393 145.191 149.253 146.089 147.671 147.671C146.089 149.253 145.191 151.393 145.172 153.631C145.152 155.868 146.012 158.024 147.567 159.633L173.167 185.233C174.776 186.787 176.932 187.648 179.169 187.628C181.407 187.609 183.547 186.711 185.129 185.129C186.711 183.547 187.609 181.407 187.628 179.169C187.648 176.932 186.787 174.776 185.233 173.167L159.633 147.567Z" fill="url(#paint5_linear_21_17)"/>
<path d="M160.538 272.742L125.551 282.129C123.559 282.67 121.83 283.916 120.686 285.634C119.542 287.353 119.059 289.428 119.328 291.475C119.597 293.522 120.598 295.402 122.147 296.767C123.697 298.131 125.688 298.888 127.753 298.897C128.499 298.902 129.243 298.804 129.963 298.607L164.949 289.22C167.136 288.634 168.999 287.203 170.131 285.243C171.262 283.283 171.569 280.953 170.982 278.767C170.396 276.581 168.966 274.717 167.005 273.585C165.045 272.454 162.715 272.148 160.529 272.734L160.538 272.742Z" fill="url(#paint6_linear_21_17)"/>
<path d="M164.958 222.771L129.971 213.385C128.877 213.054 127.727 212.947 126.591 213.07C125.454 213.193 124.354 213.543 123.355 214.099C122.356 214.655 121.479 215.406 120.776 216.308C120.073 217.209 119.559 218.243 119.263 219.347C118.968 220.451 118.897 221.604 119.055 222.736C119.214 223.868 119.598 224.957 120.185 225.938C120.772 226.919 121.551 227.771 122.474 228.446C123.397 229.12 124.446 229.602 125.559 229.862L160.546 239.249C161.269 239.445 162.016 239.543 162.765 239.539C164.835 239.538 166.834 238.785 168.39 237.419C169.945 236.053 170.952 234.169 171.221 232.116C171.49 230.064 171.004 227.983 169.854 226.263C168.703 224.542 166.966 223.298 164.966 222.763L164.958 222.771Z" fill="url(#paint7_linear_21_17)"/>
<path d="M278.775 170.991C279.499 171.187 280.245 171.285 280.994 171.281C282.871 171.279 284.695 170.659 286.184 169.516C287.672 168.373 288.743 166.771 289.229 164.958L298.615 129.971C298.946 128.877 299.053 127.727 298.93 126.591C298.807 125.454 298.457 124.354 297.901 123.355C297.345 122.356 296.594 121.479 295.692 120.776C294.791 120.073 293.757 119.559 292.653 119.263C291.549 118.968 290.396 118.897 289.264 119.055C288.132 119.214 287.043 119.598 286.062 120.185C285.081 120.772 284.229 121.551 283.554 122.474C282.88 123.397 282.398 124.446 282.138 125.559L272.751 160.546C272.167 162.73 272.473 165.056 273.603 167.015C274.732 168.973 276.593 170.403 278.775 170.991Z" fill="url(#paint8_linear_21_17)"/>
<path d="M222.771 164.958C223.257 166.771 224.328 168.373 225.816 169.516C227.305 170.659 229.129 171.279 231.006 171.281C231.755 171.285 232.501 171.187 233.225 170.991C234.307 170.701 235.322 170.2 236.211 169.518C237.1 168.836 237.846 167.985 238.406 167.014C238.967 166.043 239.33 164.972 239.476 163.86C239.622 162.749 239.548 161.62 239.258 160.538L229.871 125.551C229.61 124.438 229.128 123.389 228.454 122.465C227.78 121.542 226.927 120.764 225.946 120.177C224.966 119.589 223.877 119.205 222.745 119.047C221.612 118.888 220.46 118.959 219.356 119.255C218.251 119.55 217.218 120.065 216.316 120.768C215.415 121.471 214.663 122.347 214.107 123.346C213.551 124.345 213.201 125.445 213.079 126.582C212.956 127.719 213.063 128.868 213.393 129.963L222.771 164.958Z" fill="url(#paint9_linear_21_17)"/>
<defs>
<linearGradient id="paint0_linear_21_17" x1="386.163" y1="395.2" x2="147.234" y2="82.6491" gradientUnits="userSpaceOnUse">
<stop stop-color="#B41F3E"/>
<stop offset="1" stop-color="#711972"/>
</linearGradient>
<linearGradient id="paint1_linear_21_17" x1="386.163" y1="395.2" x2="147.234" y2="82.6491" gradientUnits="userSpaceOnUse">
<stop stop-color="#B41F3E"/>
<stop offset="1" stop-color="#711972"/>
</linearGradient>
<linearGradient id="paint2_linear_21_17" x1="386.163" y1="395.2" x2="147.234" y2="82.6491" gradientUnits="userSpaceOnUse">
<stop stop-color="#B41F3E"/>
<stop offset="1" stop-color="#711972"/>
</linearGradient>
<linearGradient id="paint3_linear_21_17" x1="386.163" y1="395.2" x2="147.234" y2="82.6491" gradientUnits="userSpaceOnUse">
<stop stop-color="#B41F3E"/>
<stop offset="1" stop-color="#711972"/>
</linearGradient>
<linearGradient id="paint4_linear_21_17" x1="386.163" y1="395.2" x2="147.234" y2="82.6491" gradientUnits="userSpaceOnUse">
<stop stop-color="#B41F3E"/>
<stop offset="1" stop-color="#711972"/>
</linearGradient>
<linearGradient id="paint5_linear_21_17" x1="386.163" y1="395.2" x2="147.234" y2="82.6491" gradientUnits="userSpaceOnUse">
<stop stop-color="#B41F3E"/>
<stop offset="1" stop-color="#711972"/>
</linearGradient>
<linearGradient id="paint6_linear_21_17" x1="386.163" y1="395.2" x2="147.234" y2="82.6491" gradientUnits="userSpaceOnUse">
<stop stop-color="#B41F3E"/>
<stop offset="1" stop-color="#711972"/>
</linearGradient>
<linearGradient id="paint7_linear_21_17" x1="386.163" y1="395.2" x2="147.234" y2="82.6491" gradientUnits="userSpaceOnUse">
<stop stop-color="#B41F3E"/>
<stop offset="1" stop-color="#711972"/>
</linearGradient>
<linearGradient id="paint8_linear_21_17" x1="386.163" y1="395.2" x2="147.234" y2="82.6491" gradientUnits="userSpaceOnUse">
<stop stop-color="#B41F3E"/>
<stop offset="1" stop-color="#711972"/>
</linearGradient>
<linearGradient id="paint9_linear_21_17" x1="386.163" y1="395.2" x2="147.234" y2="82.6491" gradientUnits="userSpaceOnUse">
<stop stop-color="#B41F3E"/>
<stop offset="1" stop-color="#711972"/>
</linearGradient>
</defs>
</svg>
