<svg width="480" height="480" viewBox="0 0 480 480" fill="none" xmlns="http://www.w3.org/2000/svg">
<path d="M467.918 419.182L451.023 371.875C461.226 359.094 467.994 343.918 470.685 327.787C473.377 311.655 471.902 295.104 466.402 279.703C460.901 264.301 451.557 250.561 439.255 239.784C426.954 229.008 412.103 221.553 396.112 218.127L355.352 104H368C387.089 103.979 405.39 96.386 418.888 82.888C432.386 69.39 439.979 51.089 440 32V24C440 17.6348 437.471 11.5303 432.971 7.02944C428.47 2.52856 422.365 0 416 0C409.635 0 403.53 2.52856 399.029 7.02944C394.529 11.5303 392 17.6348 392 24V32C391.993 38.363 389.462 44.4633 384.963 48.9627C380.463 53.462 374.363 55.9929 368 56H312C306.149 55.9995 300.5 58.1362 296.114 62.0084C291.728 65.8806 288.908 71.2215 288.183 77.0271C287.458 82.8328 288.879 88.7032 292.179 93.5347C295.478 98.3663 300.429 101.826 306.1 103.264L321.279 145.764L194.321 260.627L126.474 256.385L120.494 256.015C120.33 256.005 120.165 256 120 256C119.388 256 118.782 256.027 118.174 256.046L83.721 168H104C110.363 167.993 116.463 165.462 120.963 160.963C125.462 156.463 127.993 150.363 128 144V141.877C127.976 136.107 125.883 130.536 122.102 126.177C118.321 121.818 113.103 118.958 107.394 118.118L27.394 106.689C23.99 106.203 20.5213 106.454 17.2227 107.425C13.9241 108.396 10.8727 110.064 8.27504 112.317C5.6774 114.57 3.5942 117.355 2.16651 120.483C0.738818 123.611 -2.80912e-05 127.009 8.01043e-10 130.448V144C0.00714633 150.363 2.53801 156.463 7.03733 160.963C11.5367 165.462 17.637 167.993 24 168H34.54L76.911 276.276C72.0037 282.18 68.3651 289.031 66.222 296.403C64.0789 303.775 63.4773 311.51 64.4546 319.124C65.4319 326.739 67.9673 334.071 71.9026 340.662C75.8379 347.254 81.0888 352.965 87.328 357.438L22.545 416.048C16.446 416.425 10.7197 419.112 6.5315 423.561C2.34326 428.011 0.00767839 433.889 8.01043e-10 440V456C0.00714633 462.363 2.53801 468.463 7.03733 472.963C11.5367 477.462 17.637 479.993 24 480H40C46.363 479.993 52.4633 477.462 56.9627 472.963C61.462 468.463 63.9929 462.363 64 456H416C416.007 462.363 418.538 468.463 423.037 472.963C427.537 477.462 433.637 479.993 440 480H456C462.363 479.993 468.463 477.462 472.963 472.963C477.462 468.463 479.993 462.363 480 456V440C479.997 435.774 478.878 431.623 476.756 427.967C474.635 424.312 471.586 421.281 467.918 419.182ZM436.7 259.889C447.678 272.678 454.337 288.608 455.726 305.405C457.115 322.203 453.163 339.01 444.434 353.428L402.7 236.577C415.871 241.253 427.591 249.289 436.7 259.889V259.889ZM449.791 416H440C438.311 416.001 436.626 416.18 434.974 416.534L323.352 104H338.362L449.791 416ZM407 385.765C389.821 392.975 370.665 393.965 352.834 388.565C335.003 383.164 319.615 371.712 309.322 356.183L376.264 352C382.239 351.964 388.129 350.586 393.5 347.97L407 385.765ZM347.864 220.2C323.652 227.672 303.353 244.372 291.356 266.691L258.646 264.646L337.768 191.934L347.864 220.2ZM353.25 235.281L366.137 271.366L309.311 267.813C319.706 252.168 335.252 240.658 353.25 235.283V235.281ZM312 72H368C378.605 71.9881 388.772 67.77 396.271 60.2711C403.77 52.7722 407.988 42.605 408 32V24C408 21.8783 408.843 19.8434 410.343 18.3431C411.843 16.8429 413.878 16 416 16C418.122 16 420.157 16.8429 421.657 18.3431C423.157 19.8434 424 21.8783 424 24V32C423.983 46.847 418.078 61.0811 407.58 71.5796C397.081 82.078 382.847 87.9833 368 88H312C309.878 88 307.843 87.1571 306.343 85.6569C304.843 84.1566 304 82.1217 304 80C304 77.8783 304.843 75.8434 306.343 74.3431C307.843 72.8429 309.878 72 312 72ZM327.1 162.072L331.923 175.572L236.504 263.261L216.627 262.018L327.1 162.072ZM16 144V130.448C16 128.333 16.8376 126.304 18.3297 124.805C19.8218 123.305 21.8469 122.458 23.962 122.448C24.3531 122.448 24.7437 122.476 25.131 122.531L105.131 133.96C107.034 134.24 108.774 135.193 110.034 136.646C111.294 138.1 111.992 139.956 112 141.88V144C111.998 146.121 111.154 148.154 109.654 149.654C108.154 151.154 106.121 151.998 104 152H24C21.879 151.998 19.8456 151.154 18.3458 149.654C16.846 148.154 16.0024 146.121 16 144ZM66.54 168L102.127 258.942C97.7392 260.424 93.5533 262.447 89.666 264.965L51.721 168H66.54ZM80 312C80.0116 301.436 84.1973 291.304 91.6452 283.812C99.0932 276.32 109.2 272.074 119.764 272L371.994 287.765L388.054 332.734C384.396 334.87 380.236 335.998 376 336C375.834 336 375.667 336 375.5 336.016L149.765 350.127L137.811 328.067C141.589 323.868 143.76 318.468 143.943 312.823C144.125 307.177 142.307 301.649 138.808 297.214C135.31 292.78 130.356 289.724 124.823 288.588C119.291 287.451 113.534 288.307 108.571 291.003C103.607 293.7 99.7568 298.064 97.6992 303.324C95.6415 308.584 95.5092 314.403 97.3256 319.751C99.142 325.099 102.79 329.634 107.626 332.553C112.461 335.472 118.173 336.589 123.752 335.705L132.163 351.228L125.486 351.645L119.764 352C109.2 351.926 99.0932 347.68 91.6452 340.188C84.1973 332.696 80.0116 322.564 80 312V312ZM120 320C118.418 320 116.871 319.531 115.555 318.652C114.24 317.773 113.214 316.523 112.609 315.061C112.003 313.6 111.845 311.991 112.154 310.439C112.462 308.887 113.224 307.462 114.343 306.343C115.462 305.224 116.887 304.462 118.439 304.154C119.991 303.845 121.6 304.003 123.061 304.609C124.523 305.214 125.773 306.24 126.652 307.555C127.531 308.871 128 310.418 128 312C127.998 314.121 127.154 316.154 125.654 317.654C124.154 319.154 122.121 319.998 120 320V320ZM120 368C120.165 368 120.33 368 120.494 367.985L122.694 367.848L59.45 425.964C56.1086 421.337 51.2307 418.049 45.688 416.687L102.588 365.213C108.207 367.06 114.085 368 120 368ZM48 456C47.9976 458.121 47.154 460.154 45.6542 461.654C44.1544 463.154 42.121 463.998 40 464H24C21.879 463.998 19.8456 463.154 18.3458 461.654C16.846 460.154 16.0024 458.121 16 456V440C16.0024 437.879 16.846 435.846 18.3458 434.346C19.8456 432.846 21.879 432.002 24 432H40C42.121 432.002 44.1544 432.846 45.6542 434.346C47.154 435.846 47.9976 437.879 48 440V456ZM67.823 440L142.887 371.019L151.087 386.147L144.057 389.958C143.123 390.453 142.297 391.128 141.625 391.944C140.954 392.76 140.451 393.701 140.145 394.713C139.84 395.725 139.737 396.787 139.845 397.838C139.952 398.89 140.266 399.91 140.77 400.839C141.274 401.768 141.956 402.588 142.779 403.252C143.601 403.916 144.547 404.41 145.562 404.706C146.576 405.002 147.639 405.094 148.689 404.977C149.74 404.86 150.757 404.536 151.681 404.024L179.814 388.775C180.748 388.28 181.574 387.605 182.246 386.789C182.917 385.973 183.42 385.032 183.726 384.02C184.031 383.008 184.134 381.946 184.026 380.895C183.919 379.843 183.605 378.823 183.101 377.894C182.597 376.965 181.915 376.145 181.092 375.481C180.27 374.817 179.324 374.323 178.309 374.027C177.295 373.731 176.232 373.639 175.182 373.756C174.131 373.873 173.114 374.197 172.19 374.709L165.153 378.523L158.167 365.63L291.373 357.305C302.585 378.245 321.162 394.286 343.512 402.329C365.862 410.371 390.4 409.844 412.384 400.849L421.096 425.243C417.791 429.452 415.997 434.649 416 440H67.823ZM464 456C463.998 458.121 463.154 460.154 461.654 461.654C460.154 463.154 458.121 463.998 456 464H440C437.879 463.998 435.846 463.154 434.346 461.654C432.846 460.154 432.002 458.121 432 456V440C432.002 437.879 432.846 435.846 434.346 434.346C435.846 432.846 437.879 432.002 440 432H456C458.121 432.002 460.154 432.846 461.654 434.346C463.154 435.846 463.998 437.879 464 440V456Z" fill="url(#paint0_linear_21_4)"/>
<defs>
<linearGradient id="paint0_linear_21_4" x1="362" y1="370.5" x2="138" y2="77.5" gradientUnits="userSpaceOnUse">
<stop stop-color="#B41F3E"/>
<stop offset="1" stop-color="#711972"/>
</linearGradient>
</defs>
</svg>
