<svg width="480" height="512" viewBox="0 0 480 512" fill="none" xmlns="http://www.w3.org/2000/svg">
<path d="M447.999 31.9999H407.999V23.9999C407.999 10.77 397.229 0 383.999 0C370.77 0 360 10.77 360 23.9999V31.9999H120.001V23.9999C120.001 10.77 109.231 0 96.0006 0C82.7707 0 72.0007 10.77 72.0007 23.9999V31.9999H32.0009C14.3609 31.9999 0.000976562 46.3598 0.000976562 63.9997V399.998C0.000976562 417.638 14.3609 431.998 32.0009 431.998H88.0006C92.4206 431.998 96.0006 428.418 96.0006 423.998C96.0006 419.578 92.4206 415.998 88.0006 415.998H32.0009C23.1809 415.998 16.0009 408.818 16.0009 399.998V127.999H463.999V399.998C463.999 408.818 456.819 415.998 447.999 415.998H375.999C371.58 415.998 368 419.578 368 423.998C368 428.418 371.58 431.998 375.999 431.998H447.999C465.639 431.998 479.999 417.638 479.999 399.998V63.9997C479.999 46.3598 465.639 31.9999 447.999 31.9999ZM375.999 23.9999C375.999 19.5899 379.589 15.9999 383.999 15.9999C388.409 15.9999 391.999 19.5899 391.999 23.9999V63.9997C391.999 68.4097 388.409 71.9997 383.999 71.9997C379.589 71.9997 375.999 68.4097 375.999 63.9997V23.9999ZM88.0006 23.9999C88.0006 19.5899 91.5906 15.9999 96.0006 15.9999C100.411 15.9999 104.001 19.5899 104.001 23.9999V63.9997C104.001 68.4097 100.411 71.9997 96.0006 71.9997C91.5906 71.9997 88.0006 68.4097 88.0006 63.9997V23.9999ZM463.999 112H16.0009V63.9997C16.0009 55.1798 23.1809 47.9998 32.0009 47.9998H72.0007V63.9997C72.0007 77.2297 82.7707 87.9997 96.0006 87.9997C109.231 87.9997 120.001 77.2297 120.001 63.9997V47.9998H360V63.9997C360 77.2297 370.77 87.9997 383.999 87.9997C397.229 87.9997 407.999 77.2297 407.999 63.9997V47.9998H447.999C456.819 47.9998 463.999 55.1798 463.999 63.9997V112Z" fill="url(#paint0_linear_21_13)"/>
<path d="M351.029 351.999C344.359 351.999 338.089 354.597 333.372 359.312L276.687 415.998H247.325L262.92 327.565L302.315 334.512C302.317 334.512 302.32 334.512 302.323 334.513L365.343 345.625C365.805 345.706 366.27 345.746 366.733 345.746C368.364 345.746 369.967 345.247 371.322 344.299C373.06 343.082 374.243 341.225 374.612 339.135C384.165 284.954 343.211 231.868 282.329 217.499L283.76 209.389C284.528 205.038 281.623 200.889 277.272 200.121C272.927 199.355 268.772 202.257 268.004 206.609L266.573 214.72C204.445 207.401 147.812 243.28 138.258 297.458C137.89 299.548 138.366 301.698 139.583 303.437C140.801 305.174 142.658 306.358 144.747 306.727L247.164 324.786L231.077 415.998H132C116.561 415.998 104 428.559 104 443.998C104 459.437 116.561 471.998 132 471.998H142.241L136.155 502.429C135.289 506.762 138.098 510.977 142.43 511.843C142.96 511.948 143.488 512 144.008 512C147.743 512 151.083 509.37 151.844 505.567L158.559 471.998H221.533L217.178 502.881C216.562 507.256 219.608 511.303 223.983 511.92C224.362 511.973 224.738 511.999 225.11 511.999C229.033 511.999 232.459 509.111 233.022 505.115L237.692 471.998H289.442L296.156 505.567C296.917 509.37 300.257 512 303.992 512C304.513 512 305.04 511.948 305.57 511.843C309.902 510.977 312.712 506.762 311.845 502.429L304.657 466.488L338.687 430.495C338.777 430.4 338.864 430.303 338.949 430.204L369.992 393.97C373.866 389.449 376 383.679 376 377.724V376.97C375.999 363.201 364.797 351.999 351.029 351.999V351.999ZM218.598 303.502C223.206 282.605 231.119 263.939 241.221 250.318C251.242 236.808 262.354 229.995 271.688 231.631C271.695 231.632 271.702 231.634 271.71 231.636C271.719 231.637 271.729 231.638 271.738 231.64C281.077 233.302 289.183 243.496 293.979 259.62C298.814 275.874 299.866 296.12 297.048 317.334L257.823 310.417L218.598 303.502ZM359.822 328.404L312.802 320.113C316.017 296.445 314.828 273.599 309.314 255.059C307.947 250.463 306.339 246.233 304.518 242.375C339.77 259.909 362.206 293.392 359.822 328.404ZM237.212 230.511C234.182 233.512 231.225 236.936 228.37 240.786C216.847 256.321 207.916 277.384 202.843 300.724L155.822 292.433C165.557 258.718 198.094 234.932 237.212 230.511V230.511ZM359.999 377.723C359.999 379.862 359.232 381.935 357.841 383.559L326.926 419.644L292.554 455.998H151.964C151.959 455.998 151.954 455.998 151.949 455.998H132C125.383 455.998 120 450.615 120 443.998C120 437.381 125.383 431.998 132 431.998H237.777C237.784 431.998 237.792 431.999 237.799 431.999C237.806 431.999 237.814 431.998 237.821 431.998H279.999C282.121 431.998 284.155 431.155 285.656 429.655L344.685 370.626C346.379 368.932 348.631 367.998 351.028 367.998C355.973 367.998 359.998 372.022 359.998 376.969V377.723H359.999Z" fill="url(#paint1_linear_21_13)"/>
<defs>
<linearGradient id="paint0_linear_21_13" x1="362" y1="333.449" x2="166.886" y2="49.8752" gradientUnits="userSpaceOnUse">
<stop stop-color="#B41F3E"/>
<stop offset="1" stop-color="#711972"/>
</linearGradient>
<linearGradient id="paint1_linear_21_13" x1="309.134" y1="440.825" x2="159.544" y2="270.242" gradientUnits="userSpaceOnUse">
<stop stop-color="#B41F3E"/>
<stop offset="1" stop-color="#711972"/>
</linearGradient>
</defs>
</svg>
