<svg width="1725" height="185" viewBox="0 0 1725 185" fill="none" xmlns="http://www.w3.org/2000/svg">
<path d="M371.028 33.3431V144.374H350.717L302.33 74.4916H301.515V144.374H278V33.3431H298.637L346.644 103.171H347.622V33.3431H371.028Z" fill="white" fill-opacity="0.04"/>
<path d="M428.037 146C419.456 146 412.071 144.265 405.88 140.795C399.725 137.29 394.982 132.338 391.651 125.941C388.32 119.507 386.655 111.899 386.655 103.117C386.655 94.5508 388.32 87.0331 391.651 80.5636C394.982 74.094 399.67 69.0521 405.717 65.4378C411.799 61.8235 418.931 60.0164 427.114 60.0164C432.617 60.0164 437.74 60.9019 442.482 62.6729C447.262 64.4077 451.425 67.0281 454.973 70.5339C458.557 74.0398 461.345 78.4492 463.336 83.7622C465.328 89.039 466.323 95.2194 466.323 102.303V108.646H395.887V94.3339H444.546C444.546 91.0088 443.822 88.0632 442.374 85.497C440.926 82.9309 438.916 80.925 436.346 79.4793C433.811 77.9974 430.861 77.2565 427.494 77.2565C423.982 77.2565 420.868 78.0697 418.153 79.6961C415.474 81.2864 413.374 83.4369 411.853 86.1476C410.333 88.8222 409.554 91.804 409.518 95.0929V108.701C409.518 112.821 410.278 116.381 411.799 119.381C413.356 122.381 415.546 124.694 418.37 126.32C421.194 127.947 424.543 128.76 428.417 128.76C430.987 128.76 433.341 128.398 435.477 127.676C437.613 126.953 439.441 125.868 440.962 124.423C442.482 122.977 443.641 121.206 444.438 119.11L465.835 120.519C464.748 125.652 462.522 130.133 459.155 133.964C455.824 137.759 451.516 140.723 446.23 142.856C440.98 144.952 434.916 146 428.037 146Z" fill="white" fill-opacity="0.04"/>
<path d="M497.278 144.374L474.578 61.1007H497.984L510.909 117.05H511.67L525.138 61.1007H548.11L561.795 116.724H562.501L575.209 61.1007H598.561L575.915 144.374H551.422L537.085 92.0027H536.054L521.716 144.374H497.278Z" fill="white" fill-opacity="0.04"/>
<path d="M680.307 84.8465L659.127 86.1476C658.765 84.3405 657.986 82.714 656.792 81.2683C655.597 79.7865 654.022 78.6118 652.067 77.7444C650.148 76.8409 647.849 76.3891 645.17 76.3891C641.586 76.3891 638.563 77.1481 636.101 78.6661C633.639 80.1479 632.408 82.1358 632.408 84.6296C632.408 86.6175 633.204 88.2981 634.797 89.6715C636.39 91.045 639.124 92.1473 642.998 92.9786L658.095 96.0146C666.205 97.6771 672.251 100.352 676.234 104.038C680.216 107.725 682.207 112.568 682.207 118.568C682.207 124.025 680.596 128.814 677.374 132.934C674.188 137.055 669.807 140.271 664.232 142.585C658.692 144.862 652.302 146 645.061 146C634.019 146 625.221 143.705 618.668 139.115C612.151 134.489 608.332 128.2 607.209 120.248L629.964 119.056C630.652 122.417 632.317 124.983 634.96 126.754C637.603 128.489 640.988 129.356 645.116 129.356C649.171 129.356 652.429 128.579 654.891 127.025C657.389 125.435 658.656 123.393 658.692 120.899C658.656 118.803 657.769 117.086 656.031 115.749C654.294 114.375 651.614 113.327 647.994 112.604L633.548 109.731C625.402 108.104 619.338 105.285 615.355 101.273C611.409 97.2615 609.436 92.1473 609.436 85.9308C609.436 80.5816 610.884 75.9734 613.781 72.1062C616.713 68.2389 620.822 65.2571 626.108 63.1608C631.43 61.0645 637.657 60.0164 644.79 60.0164C655.325 60.0164 663.616 62.2392 669.662 66.6847C675.745 71.1303 679.293 77.1842 680.307 84.8465Z" fill="white" fill-opacity="0.04"/>
<path d="M766.275 146C758.599 146 751.974 144.627 746.398 141.88C740.823 139.133 736.533 135.41 733.528 130.712C730.559 125.977 729.074 120.7 729.074 114.881C729.074 110.544 729.943 106.695 731.681 103.333C733.419 99.9722 735.845 96.882 738.958 94.0629C742.072 91.2076 745.692 88.3704 749.82 85.5513L771.38 71.4014C774.167 69.6304 776.213 67.769 777.516 65.8173C778.82 63.8295 779.471 61.679 779.471 59.3658C779.471 57.1611 778.584 55.1191 776.81 53.2396C775.036 51.3602 772.52 50.4386 769.262 50.4747C767.089 50.4747 765.207 50.9626 763.614 51.9385C762.021 52.8782 760.772 54.1251 759.866 55.6793C758.998 57.1973 758.563 58.896 758.563 60.7754C758.563 63.0885 759.215 65.4378 760.518 67.8232C761.822 70.2087 763.559 72.7387 765.732 75.4132C767.904 78.0516 770.275 80.9069 772.846 83.979L825.578 144.374H801.466L757.477 95.4724C754.581 92.1835 751.684 88.7499 748.788 85.1718C745.928 81.5575 743.538 77.7264 741.619 73.6784C739.7 69.5942 738.741 65.1667 738.741 60.3959C738.741 55.0106 739.99 50.1675 742.488 45.8665C745.023 41.5655 748.571 38.1681 753.132 35.6743C757.694 33.1443 763.016 31.8793 769.099 31.8793C775.036 31.8793 780.159 33.0901 784.468 35.5116C788.812 37.897 792.143 41.0776 794.46 45.0533C796.813 48.9929 797.99 53.33 797.99 58.0647C797.99 63.3054 796.687 68.0582 794.08 72.323C791.509 76.5517 787.889 80.3467 783.218 83.708L760.518 100.026C757.441 102.267 755.16 104.562 753.675 106.912C752.227 109.225 751.503 111.448 751.503 113.58C751.503 116.218 752.155 118.586 753.458 120.682C754.762 122.778 756.608 124.441 758.998 125.67C761.387 126.862 764.193 127.459 767.415 127.459C771.325 127.459 775.181 126.573 778.983 124.802C782.82 122.995 786.296 120.447 789.41 117.158C792.559 113.833 795.076 109.893 796.958 105.339C798.841 100.785 799.782 95.7435 799.782 90.2137H818.953C818.953 97.0085 818.21 103.135 816.726 108.592C815.242 114.014 813.178 118.748 810.535 122.796C807.892 126.808 804.869 130.097 801.466 132.663C800.38 133.35 799.33 134.001 798.316 134.615C797.302 135.229 796.252 135.88 795.166 136.567C791.039 139.892 786.423 142.295 781.318 143.777C776.249 145.259 771.235 146 766.275 146Z" fill="white" fill-opacity="0.04"/>
<path d="M890.217 144.374H865.018L903.414 33.3431H933.717L972.058 144.374H946.859L919 58.7153H918.131L890.217 144.374ZM888.642 100.731H948.163V119.056H888.642V100.731Z" fill="white" fill-opacity="0.04"/>
<path d="M985.01 144.374V61.1007H1007.44V75.6301H1008.31C1009.83 70.4617 1012.38 66.5582 1015.96 63.9198C1019.55 61.2453 1023.68 59.908 1028.35 59.908C1029.51 59.908 1030.75 59.9803 1032.09 60.1248C1033.43 60.2694 1034.61 60.4682 1035.62 60.7212V81.2141C1034.54 80.8888 1033.04 80.5997 1031.12 80.3467C1029.2 80.0937 1027.44 79.9672 1025.85 79.9672C1022.45 79.9672 1019.4 80.7081 1016.73 82.19C1014.08 83.6357 1011.98 85.6597 1010.43 88.262C1008.91 90.8642 1008.14 93.8641 1008.14 97.2615V144.374H985.01Z" fill="white" fill-opacity="0.04"/>
<path d="M1096.14 61.1007V78.4492H1045.9V61.1007H1096.14ZM1057.31 41.1499H1080.44V118.785C1080.44 120.917 1080.77 122.579 1081.42 123.772C1082.07 124.929 1082.98 125.742 1084.13 126.212C1085.33 126.682 1086.7 126.917 1088.26 126.917C1089.35 126.917 1090.43 126.826 1091.52 126.646C1092.61 126.429 1093.44 126.266 1094.02 126.158L1097.66 143.344C1096.5 143.705 1094.87 144.121 1092.77 144.59C1090.67 145.096 1088.12 145.404 1085.11 145.512C1079.54 145.729 1074.65 144.988 1070.45 143.289C1066.28 141.591 1063.04 138.952 1060.73 135.374C1058.41 131.796 1057.27 127.278 1057.31 121.821V41.1499Z" fill="white" fill-opacity="0.04"/>
<path d="M1111.21 144.374V61.1007H1134.34V144.374H1111.21ZM1122.83 50.3663C1119.39 50.3663 1116.44 49.2278 1113.98 46.9508C1111.55 44.6377 1110.34 41.8727 1110.34 38.656C1110.34 35.4755 1111.55 32.7467 1113.98 30.4697C1116.44 28.1566 1119.39 27 1122.83 27C1126.27 27 1129.2 28.1566 1131.63 30.4697C1134.09 32.7467 1135.32 35.4755 1135.32 38.656C1135.32 41.8727 1134.09 44.6377 1131.63 46.9508C1129.2 49.2278 1126.27 50.3663 1122.83 50.3663Z" fill="white" fill-opacity="0.04"/>
<path d="M1190.56 146C1182.02 146 1174.67 144.193 1168.51 140.579C1162.39 136.928 1157.69 131.868 1154.39 125.399C1151.14 118.929 1149.51 111.484 1149.51 103.062C1149.51 94.5327 1151.15 87.0512 1154.45 80.6178C1157.78 74.1482 1162.5 69.1063 1168.62 65.492C1174.74 61.8416 1182.02 60.0164 1190.45 60.0164C1197.73 60.0164 1204.1 61.3356 1209.57 63.974C1215.04 66.6125 1219.36 70.3171 1222.55 75.0879C1225.73 79.8588 1227.49 85.4609 1227.82 91.8943H1205.99C1205.37 87.7379 1203.74 84.3947 1201.1 81.8647C1198.49 79.2986 1195.07 78.0155 1190.83 78.0155C1187.25 78.0155 1184.12 78.9913 1181.44 80.9431C1178.8 82.8586 1176.73 85.6597 1175.25 89.3462C1173.76 93.0328 1173.02 97.4964 1173.02 102.737C1173.02 108.05 1173.75 112.568 1175.19 116.291C1176.68 120.013 1178.76 122.851 1181.44 124.802C1184.12 126.754 1187.25 127.73 1190.83 127.73C1193.48 127.73 1195.85 127.188 1197.95 126.103C1200.08 125.019 1201.84 123.447 1203.22 121.387C1204.63 119.291 1205.55 116.779 1205.99 113.851H1227.82C1227.45 120.212 1225.72 125.814 1222.6 130.657C1219.53 135.464 1215.27 139.223 1209.84 141.934C1204.41 144.645 1197.98 146 1190.56 146Z" fill="white" fill-opacity="0.04"/>
<path d="M1265.76 33.3431V144.374H1242.63V33.3431H1265.76Z" fill="white" fill-opacity="0.04"/>
<path d="M1322.31 146C1313.73 146 1306.34 144.265 1300.15 140.795C1294 137.29 1289.26 132.338 1285.93 125.941C1282.59 119.507 1280.93 111.899 1280.93 103.117C1280.93 94.5508 1282.59 87.0331 1285.93 80.5636C1289.26 74.094 1293.94 69.0521 1299.99 65.4378C1306.07 61.8235 1313.21 60.0164 1321.39 60.0164C1326.89 60.0164 1332.01 60.9019 1336.76 62.6729C1341.54 64.4077 1345.7 67.0281 1349.25 70.5339C1352.83 74.0398 1355.62 78.4492 1357.61 83.7622C1359.6 89.039 1360.6 95.2194 1360.6 102.303V108.646H1290.16V94.3339H1338.82C1338.82 91.0088 1338.1 88.0632 1336.65 85.497C1335.2 82.9309 1333.19 80.925 1330.62 79.4793C1328.09 77.9974 1325.13 77.2565 1321.77 77.2565C1318.26 77.2565 1315.14 78.0697 1312.43 79.6961C1309.75 81.2864 1307.65 83.4369 1306.13 86.1476C1304.61 88.8222 1303.83 91.804 1303.79 95.0929V108.701C1303.79 112.821 1304.55 116.381 1306.07 119.381C1307.63 122.381 1309.82 124.694 1312.64 126.32C1315.47 127.947 1318.82 128.76 1322.69 128.76C1325.26 128.76 1327.62 128.398 1329.75 127.676C1331.89 126.953 1333.72 125.868 1335.24 124.423C1336.76 122.977 1337.92 121.206 1338.71 119.11L1360.11 120.519C1359.02 125.652 1356.8 130.133 1353.43 133.964C1350.1 137.759 1345.79 140.723 1340.5 142.856C1335.25 144.952 1329.19 146 1322.31 146Z" fill="white" fill-opacity="0.04"/>
<path d="M1445.1 84.8465L1423.92 86.1476C1423.56 84.3405 1422.78 82.714 1421.58 81.2683C1420.39 79.7865 1418.81 78.6118 1416.86 77.7444C1414.94 76.8409 1412.64 76.3891 1409.96 76.3891C1406.38 76.3891 1403.36 77.1481 1400.89 78.6661C1398.43 80.1479 1397.2 82.1358 1397.2 84.6296C1397.2 86.6175 1398 88.2981 1399.59 89.6715C1401.18 91.045 1403.92 92.1473 1407.79 92.9786L1422.89 96.0146C1431 97.6771 1437.04 100.352 1441.03 104.038C1445.01 107.725 1447 112.568 1447 118.568C1447 124.025 1445.39 128.814 1442.17 132.934C1438.98 137.055 1434.6 140.271 1429.02 142.585C1423.49 144.862 1417.09 146 1409.85 146C1398.81 146 1390.01 143.705 1383.46 139.115C1376.94 134.489 1373.12 128.2 1372 120.248L1394.76 119.056C1395.44 122.417 1397.11 124.983 1399.75 126.754C1402.4 128.489 1405.78 129.356 1409.91 129.356C1413.96 129.356 1417.22 128.579 1419.68 127.025C1422.18 125.435 1423.45 123.393 1423.49 120.899C1423.45 118.803 1422.56 117.086 1420.82 115.749C1419.09 114.375 1416.41 113.327 1412.79 112.604L1398.34 109.731C1390.19 108.104 1384.13 105.285 1380.15 101.273C1376.2 97.2615 1374.23 92.1473 1374.23 85.9308C1374.23 80.5816 1375.68 75.9734 1378.57 72.1062C1381.51 68.2389 1385.61 65.2571 1390.9 63.1608C1396.22 61.0645 1402.45 60.0164 1409.58 60.0164C1420.12 60.0164 1428.41 62.2392 1434.46 66.6847C1440.54 71.1303 1444.09 77.1842 1445.1 84.8465Z" fill="white" fill-opacity="0.04"/>
</svg>
