<svg width="1725" height="185" viewBox="0 0 1725 185" fill="none" xmlns="http://www.w3.org/2000/svg">
<path d="M569.977 92.7727C569.977 105.462 567.572 116.258 562.761 125.159C557.989 134.061 551.473 140.86 543.216 145.557C534.996 150.216 525.754 152.545 515.489 152.545C505.148 152.545 495.867 150.197 487.648 145.5C479.428 140.803 472.932 134.004 468.159 125.102C463.386 116.201 461 105.424 461 92.7727C461 80.0833 463.386 69.2879 468.159 60.3864C472.932 51.4848 479.428 44.7045 487.648 40.0455C495.867 35.3485 505.148 33 515.489 33C525.754 33 534.996 35.3485 543.216 40.0455C551.473 44.7045 557.989 51.4848 562.761 60.3864C567.572 69.2879 569.977 80.0833 569.977 92.7727ZM545.034 92.7727C545.034 84.553 543.803 77.6212 541.341 71.9773C538.917 66.3333 535.489 62.053 531.057 59.1364C526.625 56.2197 521.436 54.7614 515.489 54.7614C509.542 54.7614 504.352 56.2197 499.92 59.1364C495.489 62.053 492.042 66.3333 489.58 71.9773C487.155 77.6212 485.943 84.553 485.943 92.7727C485.943 100.992 487.155 107.924 489.58 113.568C492.042 119.212 495.489 123.492 499.92 126.409C504.352 129.326 509.542 130.784 515.489 130.784C521.436 130.784 526.625 129.326 531.057 126.409C535.489 123.492 538.917 119.212 541.341 113.568C543.803 107.924 545.034 100.992 545.034 92.7727Z" fill="white" fill-opacity="0.04"/>
<path d="M643.713 113.795V63.6818H667.918V150.955H644.679V135.102H643.77C641.8 140.216 638.524 144.326 633.94 147.432C629.395 150.538 623.846 152.091 617.293 152.091C611.459 152.091 606.327 150.765 601.895 148.114C597.463 145.462 593.997 141.693 591.497 136.807C589.035 131.92 587.785 126.068 587.747 119.25V63.6818H611.952V114.932C611.99 120.083 613.372 124.155 616.099 127.148C618.827 130.14 622.482 131.636 627.065 131.636C629.982 131.636 632.709 130.973 635.247 129.648C637.785 128.284 639.83 126.277 641.384 123.625C642.974 120.973 643.751 117.697 643.713 113.795Z" fill="white" fill-opacity="0.04"/>
<path d="M687.278 150.955V63.6818H710.744V78.9091H711.653C713.244 73.4924 715.915 69.4015 719.665 66.6364C723.415 63.8333 727.733 62.4318 732.619 62.4318C733.831 62.4318 735.138 62.5076 736.54 62.6591C737.941 62.8106 739.172 63.0189 740.233 63.2841V84.7614C739.097 84.4205 737.525 84.1174 735.517 83.8523C733.509 83.5871 731.672 83.4546 730.006 83.4546C726.445 83.4546 723.263 84.2311 720.46 85.7841C717.695 87.2992 715.498 89.4205 713.869 92.1477C712.278 94.875 711.483 98.0189 711.483 101.58V150.955H687.278Z" fill="white" fill-opacity="0.04"/>
<path d="M892.903 75.3296H868.017C867.563 72.1099 866.634 69.25 865.233 66.75C863.831 64.2121 862.032 62.053 859.835 60.2727C857.638 58.4924 855.1 57.1288 852.222 56.1818C849.381 55.2349 846.294 54.7614 842.96 54.7614C836.938 54.7614 831.691 56.2576 827.222 59.25C822.752 62.2045 819.286 66.5227 816.824 72.2046C814.362 77.8485 813.131 84.7045 813.131 92.7727C813.131 101.068 814.362 108.038 816.824 113.682C819.324 119.326 822.809 123.587 827.278 126.466C831.748 129.345 836.919 130.784 842.79 130.784C846.085 130.784 849.134 130.348 851.938 129.477C854.778 128.606 857.297 127.337 859.494 125.67C861.691 123.966 863.509 121.902 864.949 119.477C866.426 117.053 867.449 114.288 868.017 111.182L892.903 111.295C892.259 116.636 890.65 121.788 888.074 126.75C885.536 131.674 882.108 136.087 877.79 139.989C873.509 143.852 868.396 146.92 862.449 149.193C856.54 151.428 849.854 152.545 842.392 152.545C832.013 152.545 822.733 150.197 814.551 145.5C806.407 140.803 799.968 134.004 795.233 125.102C790.536 116.201 788.188 105.424 788.188 92.7727C788.188 80.0833 790.574 69.2879 795.347 60.3864C800.119 51.4848 806.597 44.7045 814.778 40.0455C822.96 35.3485 832.165 33 842.392 33C849.134 33 855.384 33.947 861.142 35.8409C866.938 37.7348 872.07 40.5 876.54 44.1364C881.009 47.7348 884.646 52.1477 887.449 57.375C890.29 62.6023 892.108 68.5871 892.903 75.3296Z" fill="white" fill-opacity="0.04"/>
<path d="M934.977 152.602C929.409 152.602 924.447 151.636 920.091 149.705C915.735 147.735 912.288 144.837 909.75 141.011C907.25 137.148 906 132.337 906 126.58C906 121.731 906.89 117.659 908.67 114.364C910.451 111.068 912.875 108.417 915.943 106.409C919.011 104.402 922.496 102.886 926.398 101.864C930.337 100.841 934.466 100.121 938.784 99.7046C943.86 99.1742 947.951 98.6818 951.057 98.2273C954.163 97.7348 956.417 97.0152 957.818 96.0682C959.22 95.1212 959.92 93.7197 959.92 91.8636V91.5227C959.92 87.9242 958.784 85.1402 956.511 83.1705C954.277 81.2008 951.095 80.2159 946.966 80.2159C942.61 80.2159 939.144 81.1818 936.568 83.1136C933.992 85.0076 932.288 87.3939 931.455 90.2727L909.068 88.4546C910.205 83.1515 912.439 78.5682 915.773 74.7046C919.106 70.803 923.405 67.8106 928.67 65.7273C933.973 63.6061 940.11 62.5455 947.08 62.5455C951.928 62.5455 956.568 63.1136 961 64.25C965.47 65.3864 969.428 67.1477 972.875 69.5341C976.36 71.9205 979.106 74.9886 981.114 78.7386C983.121 82.4508 984.125 86.9015 984.125 92.0909V150.955H961.17V138.852H960.489C959.087 141.58 957.212 143.985 954.864 146.068C952.515 148.114 949.693 149.723 946.398 150.898C943.102 152.034 939.295 152.602 934.977 152.602ZM941.909 135.898C945.47 135.898 948.614 135.197 951.341 133.795C954.068 132.356 956.208 130.424 957.761 128C959.314 125.576 960.091 122.83 960.091 119.761V110.5C959.333 110.992 958.292 111.447 956.966 111.864C955.678 112.242 954.22 112.602 952.591 112.943C950.962 113.246 949.333 113.53 947.705 113.795C946.076 114.023 944.598 114.231 943.273 114.42C940.432 114.837 937.951 115.5 935.83 116.409C933.708 117.318 932.061 118.549 930.886 120.102C929.712 121.617 929.125 123.511 929.125 125.784C929.125 129.08 930.318 131.598 932.705 133.341C935.129 135.045 938.197 135.898 941.909 135.898Z" fill="white" fill-opacity="0.04"/>
<path d="M1075.52 88.5682L1053.36 89.9318C1052.98 88.0379 1052.16 86.3333 1050.91 84.8182C1049.66 83.2652 1048.02 82.0341 1045.97 81.125C1043.96 80.178 1041.56 79.7046 1038.76 79.7046C1035.01 79.7046 1031.84 80.5 1029.27 82.0909C1026.69 83.6439 1025.4 85.7273 1025.4 88.3409C1025.4 90.4242 1026.24 92.1856 1027.9 93.625C1029.57 95.0644 1032.43 96.2197 1036.48 97.0909L1052.28 100.273C1060.76 102.015 1067.09 104.818 1071.26 108.682C1075.42 112.545 1077.51 117.621 1077.51 123.909C1077.51 129.629 1075.82 134.648 1072.45 138.966C1069.12 143.284 1064.53 146.655 1058.7 149.08C1052.9 151.466 1046.22 152.659 1038.64 152.659C1027.09 152.659 1017.88 150.254 1011.03 145.443C1004.21 140.595 1000.21 134.004 999.04 125.67L1022.85 124.42C1023.57 127.943 1025.31 130.633 1028.07 132.489C1030.84 134.307 1034.38 135.216 1038.7 135.216C1042.94 135.216 1046.35 134.402 1048.93 132.773C1051.54 131.106 1052.87 128.966 1052.9 126.352C1052.87 124.155 1051.94 122.356 1050.12 120.955C1048.3 119.515 1045.5 118.417 1041.71 117.659L1026.6 114.648C1018.07 112.943 1011.73 109.989 1007.56 105.784C1003.43 101.58 1001.37 96.2197 1001.37 89.7046C1001.37 84.0985 1002.88 79.2689 1005.91 75.2159C1008.98 71.1629 1013.28 68.0379 1018.81 65.8409C1024.38 63.6439 1030.9 62.5455 1038.36 62.5455C1049.38 62.5455 1058.05 64.875 1064.38 69.5341C1070.74 74.1932 1074.46 80.5379 1075.52 88.5682Z" fill="white" fill-opacity="0.04"/>
<path d="M1132.52 152.659C1123.54 152.659 1115.82 150.841 1109.34 147.205C1102.9 143.53 1097.94 138.341 1094.45 131.636C1090.97 124.894 1089.22 116.92 1089.22 107.716C1089.22 98.7386 1090.97 90.8599 1094.45 84.0796C1097.94 77.2992 1102.84 72.0152 1109.17 68.2273C1115.53 64.4394 1122.99 62.5455 1131.55 62.5455C1137.31 62.5455 1142.67 63.4735 1147.63 65.3296C1152.63 67.1477 1156.99 69.8939 1160.7 73.5682C1164.45 77.2424 1167.37 81.8636 1169.45 87.4318C1171.54 92.9621 1172.58 99.4394 1172.58 106.864V113.511H1098.88V98.5114H1149.79C1149.79 95.0265 1149.04 91.9394 1147.52 89.25C1146 86.5606 1143.9 84.4583 1141.21 82.9432C1138.56 81.3902 1135.47 80.6136 1131.95 80.6136C1128.28 80.6136 1125.02 81.4659 1122.18 83.1705C1119.38 84.8371 1117.18 87.0909 1115.59 89.9318C1114 92.7348 1113.18 95.8599 1113.14 99.3068V113.568C1113.14 117.886 1113.94 121.617 1115.53 124.761C1117.16 127.905 1119.45 130.33 1122.41 132.034C1125.36 133.739 1128.86 134.591 1132.92 134.591C1135.61 134.591 1138.07 134.212 1140.3 133.455C1142.54 132.697 1144.45 131.561 1146.04 130.045C1147.63 128.53 1148.85 126.674 1149.68 124.477L1172.07 125.955C1170.93 131.333 1168.6 136.03 1165.08 140.045C1161.59 144.023 1157.08 147.129 1151.55 149.364C1146.06 151.561 1139.72 152.659 1132.52 152.659Z" fill="white" fill-opacity="0.04"/>
<path d="M1260.99 88.5682L1238.83 89.9318C1238.45 88.0379 1237.63 86.3333 1236.38 84.8182C1235.13 83.2652 1233.49 82.0341 1231.44 81.125C1229.43 80.178 1227.03 79.7046 1224.22 79.7046C1220.47 79.7046 1217.31 80.5 1214.74 82.0909C1212.16 83.6439 1210.87 85.7273 1210.87 88.3409C1210.87 90.4242 1211.71 92.1856 1213.37 93.625C1215.04 95.0644 1217.9 96.2197 1221.95 97.0909L1237.75 100.273C1246.23 102.015 1252.56 104.818 1256.72 108.682C1260.89 112.545 1262.97 117.621 1262.97 123.909C1262.97 129.629 1261.29 134.648 1257.92 138.966C1254.58 143.284 1250 146.655 1244.17 149.08C1238.37 151.466 1231.69 152.659 1224.11 152.659C1212.56 152.659 1203.35 150.254 1196.5 145.443C1189.68 140.595 1185.68 134.004 1184.51 125.67L1208.32 124.42C1209.04 127.943 1210.78 130.633 1213.54 132.489C1216.31 134.307 1219.85 135.216 1224.17 135.216C1228.41 135.216 1231.82 134.402 1234.39 132.773C1237.01 131.106 1238.33 128.966 1238.37 126.352C1238.33 124.155 1237.41 122.356 1235.59 120.955C1233.77 119.515 1230.97 118.417 1227.18 117.659L1212.07 114.648C1203.54 112.943 1197.2 109.989 1193.03 105.784C1188.9 101.58 1186.84 96.2197 1186.84 89.7046C1186.84 84.0985 1188.35 79.2689 1191.38 75.2159C1194.45 71.1629 1198.75 68.0379 1204.28 65.8409C1209.85 63.6439 1216.36 62.5455 1223.83 62.5455C1234.85 62.5455 1243.52 64.875 1249.85 69.5341C1256.21 74.1932 1259.93 80.5379 1260.99 88.5682Z" fill="white" fill-opacity="0.04"/>
</svg>
