<svg width="1725" height="185" viewBox="0 0 1725 185" fill="none" xmlns="http://www.w3.org/2000/svg">
<path d="M356.518 92.4511C356.518 103.374 354.454 112.666 350.326 120.329C346.23 127.991 340.639 133.843 333.553 137.887C326.499 141.897 318.568 143.902 309.759 143.902C300.885 143.902 292.921 141.881 285.868 137.838C278.814 133.795 273.239 127.942 269.144 120.28C265.048 112.617 263 103.341 263 92.4511C263 81.5283 265.048 72.2358 269.144 64.5736C273.239 56.9114 278.814 51.075 285.868 47.0646C292.921 43.0215 300.885 41 309.759 41C318.568 41 326.499 43.0215 333.553 47.0646C340.639 51.075 346.23 56.9114 350.326 64.5736C354.454 72.2358 356.518 81.5283 356.518 92.4511ZM335.113 92.4511C335.113 85.3758 334.057 79.409 331.944 74.5508C329.864 69.6926 326.922 66.0082 323.119 63.4976C319.316 60.987 314.862 59.7317 309.759 59.7317C304.656 59.7317 300.202 60.987 296.399 63.4976C292.596 66.0082 289.638 69.6926 287.525 74.5508C285.445 79.409 284.405 85.3758 284.405 92.4511C284.405 99.5264 285.445 105.493 287.525 110.351C289.638 115.21 292.596 118.894 296.399 121.405C300.202 123.915 304.656 125.17 309.759 125.17C314.862 125.17 319.316 123.915 323.119 121.405C326.922 118.894 329.864 115.21 331.944 110.351C334.057 105.493 335.113 99.5264 335.113 92.4511Z" fill="white" fill-opacity="0.04"/>
<path d="M419.794 110.547V67.4103H440.565V142.533H420.623V128.887H419.843C418.152 133.289 415.341 136.827 411.408 139.5C407.507 142.174 402.745 143.511 397.121 143.511C392.116 143.511 387.711 142.37 383.908 140.087C380.105 137.805 377.131 134.561 374.985 130.355C372.872 126.149 371.8 121.111 371.767 115.242V67.4103H392.538V111.525C392.571 115.959 393.757 119.465 396.098 122.04C398.438 124.616 401.575 125.904 405.508 125.904C408.011 125.904 410.351 125.333 412.529 124.192C414.707 123.019 416.462 121.29 417.795 119.008C419.16 116.726 419.827 113.905 419.794 110.547Z" fill="white" fill-opacity="0.04"/>
<path d="M457.179 142.533V67.4103H477.316V80.5176H478.097C479.462 75.855 481.753 72.3336 484.971 69.9535C488.19 67.5407 491.895 66.3343 496.088 66.3343C497.129 66.3343 498.25 66.3995 499.453 66.5299C500.655 66.6603 501.712 66.8397 502.622 67.0679V85.5551C501.647 85.2616 500.298 85.0008 498.575 84.7726C496.852 84.5443 495.276 84.4302 493.845 84.4302C490.79 84.4302 488.06 85.0986 485.654 86.4354C483.281 87.7396 481.396 89.5655 479.998 91.9131C478.633 94.2607 477.95 96.9669 477.95 100.032V142.533H457.179Z" fill="white" fill-opacity="0.04"/>
<path d="M568.007 142.533L539.434 42.3694H562.497L579.026 111.965H579.855L598.09 42.3694H617.837L636.024 112.112H636.902L653.431 42.3694H676.493L647.921 142.533H627.345L608.33 77.0451H607.549L588.583 142.533H568.007Z" fill="white" fill-opacity="0.04"/>
<path d="M713.196 144C705.622 144 699.073 142.386 693.547 139.158C688.053 135.898 683.811 131.365 680.821 125.562C677.83 119.725 676.335 112.96 676.335 105.265C676.335 97.5049 677.83 90.723 680.821 84.9193C683.811 79.0829 688.053 74.5508 693.547 71.3229C699.073 68.0624 705.622 66.4321 713.196 66.4321C720.77 66.4321 727.304 68.0624 732.797 71.3229C738.323 74.5508 742.581 79.0829 745.572 84.9193C748.562 90.723 750.057 97.5049 750.057 105.265C750.057 112.96 748.562 119.725 745.572 125.562C742.581 131.365 738.323 135.898 732.797 139.158C727.304 142.386 720.77 144 713.196 144ZM713.294 127.86C716.739 127.86 719.616 126.882 721.924 124.926C724.232 122.937 725.971 120.231 727.141 116.807C728.344 113.384 728.945 109.487 728.945 105.118C728.945 100.749 728.344 96.8528 727.141 93.4293C725.971 90.0057 724.232 87.2995 721.924 85.3105C719.616 83.3216 716.739 82.3272 713.294 82.3272C709.816 82.3272 706.89 83.3216 704.517 85.3105C702.177 87.2995 700.405 90.0057 699.203 93.4293C698.032 96.8528 697.447 100.749 697.447 105.118C697.447 109.487 698.032 113.384 699.203 116.807C700.405 120.231 702.177 122.937 704.517 124.926C706.89 126.882 709.816 127.86 713.294 127.86Z" fill="white" fill-opacity="0.04"/>
<path d="M763.563 142.533V67.4103H783.7V80.5176H784.481C785.846 75.855 788.137 72.3336 791.356 69.9535C794.574 67.5407 798.279 66.3343 802.472 66.3343C803.513 66.3343 804.634 66.3995 805.837 66.5299C807.039 66.6603 808.096 66.8397 809.006 67.0679V85.5551C808.031 85.2616 806.682 85.0008 804.959 84.7726C803.236 84.5443 801.66 84.4302 800.229 84.4302C797.174 84.4302 794.444 85.0986 792.038 86.4354C789.665 87.7396 787.78 89.5655 786.382 91.9131C785.017 94.2607 784.334 96.9669 784.334 100.032V142.533H763.563Z" fill="white" fill-opacity="0.04"/>
<path d="M838.566 120.915L838.614 95.9236H841.637L865.626 67.4103H889.469L857.24 105.167H852.315L838.566 120.915ZM819.745 142.533V42.3694H840.516V142.533H819.745ZM866.553 142.533L844.514 109.813L858.361 95.0921L890.883 142.533H866.553Z" fill="white" fill-opacity="0.04"/>
<path d="M931.828 142.533V42.3694H971.224C978.798 42.3694 985.25 43.8204 990.581 46.7222C995.912 49.5915 999.975 53.5856 1002.77 58.7047C1005.6 63.7911 1007.01 69.66 1007.01 76.3115C1007.01 82.963 1005.58 88.8319 1002.72 93.9183C999.862 99.0047 995.717 102.966 990.289 105.803C984.893 108.64 978.359 110.058 970.688 110.058H945.578V93.0869H967.275C971.338 93.0869 974.686 92.3859 977.319 90.9839C979.985 89.5492 981.967 87.5766 983.268 85.066C984.6 82.5228 985.267 79.6046 985.267 76.3115C985.267 72.9858 984.6 70.0839 983.268 67.6059C981.967 65.0953 979.985 63.1553 977.319 61.7859C974.654 60.3838 971.273 59.6828 967.177 59.6828H952.94V142.533H931.828Z" fill="white" fill-opacity="0.04"/>
<path d="M1020.34 142.533V67.4103H1040.47V80.5176H1041.25C1042.62 75.855 1044.91 72.3336 1048.13 69.9535C1051.35 67.5407 1055.05 66.3343 1059.24 66.3343C1060.29 66.3343 1061.41 66.3995 1062.61 66.5299C1063.81 66.6603 1064.87 66.8397 1065.78 67.0679V85.5551C1064.8 85.2616 1063.45 85.0008 1061.73 84.7726C1060.01 84.5443 1058.43 84.4302 1057 84.4302C1053.95 84.4302 1051.22 85.0986 1048.81 86.4354C1046.44 87.7396 1044.55 89.5655 1043.15 91.9131C1041.79 94.2607 1041.11 96.9669 1041.11 100.032V142.533H1020.34Z" fill="white" fill-opacity="0.04"/>
<path d="M1106.87 144C1099.3 144 1092.75 142.386 1087.22 139.158C1081.73 135.898 1077.48 131.365 1074.49 125.562C1071.5 119.725 1070.01 112.96 1070.01 105.265C1070.01 97.5049 1071.5 90.723 1074.49 84.9193C1077.48 79.0829 1081.73 74.5508 1087.22 71.3229C1092.75 68.0624 1099.3 66.4321 1106.87 66.4321C1114.44 66.4321 1120.98 68.0624 1126.47 71.3229C1132 74.5508 1136.25 79.0829 1139.24 84.9193C1142.24 90.723 1143.73 97.5049 1143.73 105.265C1143.73 112.96 1142.24 119.725 1139.24 125.562C1136.25 131.365 1132 135.898 1126.47 139.158C1120.98 142.386 1114.44 144 1106.87 144ZM1106.97 127.86C1110.41 127.86 1113.29 126.882 1115.6 124.926C1117.91 122.937 1119.64 120.231 1120.81 116.807C1122.02 113.384 1122.62 109.487 1122.62 105.118C1122.62 100.749 1122.02 96.8528 1120.81 93.4293C1119.64 90.0057 1117.91 87.2995 1115.6 85.3105C1113.29 83.3216 1110.41 82.3272 1106.97 82.3272C1103.49 82.3272 1100.56 83.3216 1098.19 85.3105C1095.85 87.2995 1094.08 90.0057 1092.88 93.4293C1091.71 96.8528 1091.12 100.749 1091.12 105.118C1091.12 109.487 1091.71 113.384 1092.88 116.807C1094.08 120.231 1095.85 122.937 1098.19 124.926C1100.56 126.882 1103.49 127.86 1106.97 127.86Z" fill="white" fill-opacity="0.04"/>
<path d="M1191.07 144C1183.4 144 1176.8 142.37 1171.28 139.109C1165.79 135.816 1161.56 131.251 1158.6 125.415C1155.68 119.579 1154.21 112.862 1154.21 105.265C1154.21 97.5701 1155.69 90.8208 1158.65 85.0171C1161.64 79.1808 1165.88 74.6323 1171.38 71.3718C1176.87 68.0787 1183.4 66.4321 1190.98 66.4321C1197.51 66.4321 1203.23 67.6222 1208.14 70.0024C1213.05 72.3826 1216.93 75.7246 1219.79 80.0285C1222.65 84.3324 1224.23 89.3862 1224.52 95.1899H1204.92C1204.37 91.4403 1202.91 88.4243 1200.53 86.142C1198.19 83.827 1195.12 82.6695 1191.32 82.6695C1188.1 82.6695 1185.29 83.5499 1182.88 85.3105C1180.51 87.0386 1178.66 89.5655 1177.33 92.8913C1175.99 96.217 1175.33 100.244 1175.33 104.972C1175.33 109.764 1175.98 113.84 1177.28 117.198C1178.61 120.557 1180.48 123.116 1182.88 124.877C1185.29 126.638 1188.1 127.518 1191.32 127.518C1193.69 127.518 1195.82 127.029 1197.71 126.051C1199.62 125.073 1201.2 123.654 1202.44 121.796C1203.7 119.905 1204.53 117.639 1204.92 114.998H1224.52C1224.2 120.736 1222.64 125.79 1219.84 130.159C1217.08 134.496 1213.26 137.887 1208.38 140.332C1203.51 142.777 1197.74 144 1191.07 144Z" fill="white" fill-opacity="0.04"/>
<path d="M1271.95 144C1264.25 144 1257.62 142.435 1252.06 139.305C1246.53 136.142 1242.27 131.675 1239.28 125.904C1236.29 120.1 1234.8 113.237 1234.8 105.314C1234.8 97.5864 1236.29 90.8045 1239.28 84.9682C1242.27 79.1318 1246.48 74.5834 1251.91 71.3229C1257.37 68.0624 1263.78 66.4321 1271.12 66.4321C1276.06 66.4321 1280.66 67.2309 1284.92 68.8286C1289.21 70.3936 1292.95 72.7575 1296.14 75.9202C1299.35 79.0829 1301.86 83.0608 1303.65 87.8538C1305.43 92.6141 1306.33 98.1896 1306.33 104.58V110.302H1243.09V97.3908H1286.77C1286.77 94.3911 1286.12 91.7338 1284.82 89.4188C1283.52 87.1038 1281.72 85.2942 1279.41 83.99C1277.14 82.6532 1274.49 81.9848 1271.46 81.9848C1268.31 81.9848 1265.52 82.7184 1263.08 84.1857C1260.67 85.6203 1258.79 87.5603 1257.42 90.0057C1256.06 92.4185 1255.36 95.1084 1255.33 98.0755V110.351C1255.33 114.068 1256.01 117.28 1257.37 119.986C1258.77 122.692 1260.74 124.779 1263.27 126.246C1265.81 127.714 1268.82 128.447 1272.29 128.447C1274.6 128.447 1276.71 128.121 1278.63 127.469C1280.55 126.817 1282.19 125.839 1283.56 124.535C1284.92 123.23 1285.96 121.633 1286.68 119.742L1305.89 121.013C1304.91 125.643 1302.91 129.686 1299.89 133.142C1296.9 136.566 1293.03 139.24 1288.29 141.163C1283.57 143.054 1278.13 144 1271.95 144Z" fill="white" fill-opacity="0.04"/>
<path d="M1382.19 88.8319L1363.18 90.0057C1362.85 88.3754 1362.16 86.9082 1361.08 85.604C1360.01 84.2672 1358.6 83.2075 1356.84 82.425C1355.12 81.6098 1353.05 81.2023 1350.65 81.2023C1347.43 81.2023 1344.72 81.887 1342.51 83.2564C1340.3 84.5932 1339.19 86.3865 1339.19 88.6363C1339.19 90.4296 1339.91 91.9457 1341.34 93.1847C1342.77 94.4237 1345.22 95.4182 1348.7 96.1681L1362.25 98.9069C1369.53 100.407 1374.96 102.82 1378.54 106.145C1382.11 109.471 1383.9 113.84 1383.9 119.253C1383.9 124.176 1382.45 128.496 1379.56 132.213C1376.7 135.93 1372.77 138.832 1367.76 140.919C1362.79 142.973 1357.05 144 1350.55 144C1340.64 144 1332.74 141.93 1326.85 137.789C1321 133.615 1317.57 127.942 1316.57 120.769L1337 119.693C1337.61 122.725 1339.11 125.04 1341.48 126.638C1343.85 128.203 1346.89 128.985 1350.6 128.985C1354.24 128.985 1357.17 128.284 1359.38 126.882C1361.62 125.448 1362.76 123.605 1362.79 121.356C1362.76 119.465 1361.96 117.916 1360.4 116.709C1358.84 115.47 1356.43 114.525 1353.18 113.873L1340.21 111.281C1332.9 109.813 1327.46 107.27 1323.88 103.651C1320.34 100.032 1318.57 95.4182 1318.57 89.8101C1318.57 84.9845 1319.87 80.8273 1322.47 77.3386C1325.1 73.8498 1328.79 71.1599 1333.53 69.2688C1338.31 67.3777 1343.9 66.4321 1350.31 66.4321C1359.77 66.4321 1367.21 68.4373 1372.64 72.4478C1378.1 76.4582 1381.28 81.9196 1382.19 88.8319Z" fill="white" fill-opacity="0.04"/>
<path d="M1459.29 88.8319L1440.28 90.0057C1439.95 88.3754 1439.25 86.9082 1438.18 85.604C1437.11 84.2672 1435.69 83.2075 1433.94 82.425C1432.22 81.6098 1430.15 81.2023 1427.75 81.2023C1424.53 81.2023 1421.81 81.887 1419.6 83.2564C1417.39 84.5932 1416.29 86.3865 1416.29 88.6363C1416.29 90.4296 1417 91.9457 1418.43 93.1847C1419.86 94.4237 1422.32 95.4182 1425.8 96.1681L1439.35 98.9069C1446.63 100.407 1452.06 102.82 1455.64 106.145C1459.21 109.471 1461 113.84 1461 119.253C1461 124.176 1459.55 128.496 1456.66 132.213C1453.8 135.93 1449.87 138.832 1444.86 140.919C1439.89 142.973 1434.15 144 1427.65 144C1417.74 144 1409.84 141.93 1403.95 137.789C1398.1 133.615 1394.67 127.942 1393.66 120.769L1414.09 119.693C1414.71 122.725 1416.21 125.04 1418.58 126.638C1420.95 128.203 1423.99 128.985 1427.7 128.985C1431.34 128.985 1434.26 128.284 1436.47 126.882C1438.72 125.448 1439.86 123.605 1439.89 121.356C1439.86 119.465 1439.06 117.916 1437.5 116.709C1435.94 115.47 1433.53 114.525 1430.28 113.873L1417.31 111.281C1410 109.813 1404.55 107.27 1400.98 103.651C1397.44 100.032 1395.66 95.4182 1395.66 89.8101C1395.66 84.9845 1396.96 80.8273 1399.56 77.3386C1402.2 73.8498 1405.89 71.1599 1410.63 69.2688C1415.41 67.3777 1421 66.4321 1427.41 66.4321C1436.86 66.4321 1444.31 68.4373 1449.74 72.4478C1455.2 76.4582 1458.38 81.9196 1459.29 88.8319Z" fill="white" fill-opacity="0.04"/>
</svg>
