<svg width="1438" height="1210" viewBox="0 0 1438 1210" fill="none" xmlns="http://www.w3.org/2000/svg">
<path d="M39.4712 187.979L0 50H31.8599L54.6939 145.871H55.839L81.0305 50H108.31L133.434 146.073H134.647L157.481 50H189.341L149.869 187.979H121.445L95.1755 97.7671H94.0978L67.8959 187.979H39.4712Z" fill="white" fill-opacity="0.04"/>
<path d="M233.106 128.152V187.979H204.412V50H232.298V102.753H233.51C235.845 96.6442 239.617 91.8608 244.826 88.4023C250.035 84.8989 256.569 83.1473 264.427 83.1473C271.612 83.1473 277.876 84.7193 283.22 87.8633C288.608 90.9625 292.784 95.4315 295.748 101.27C298.757 107.064 300.238 114.004 300.194 122.089V187.979H271.499V127.209C271.544 120.831 269.928 115.868 266.65 112.32C263.417 108.771 258.881 106.997 253.044 106.997C249.137 106.997 245.679 107.828 242.671 109.49C239.707 111.152 237.372 113.577 235.665 116.766C234.004 119.91 233.151 123.705 233.106 128.152Z" fill="white" fill-opacity="0.04"/>
<path d="M369.521 190C359.058 190 350.01 187.777 342.376 183.33C334.787 178.839 328.927 172.595 324.796 164.601C320.664 156.561 318.599 147.241 318.599 136.641C318.599 125.951 320.664 116.609 324.796 108.614C328.927 100.574 334.787 94.3311 342.376 89.8845C350.01 85.393 359.058 83.1473 369.521 83.1473C379.984 83.1473 389.009 85.393 396.598 89.8845C404.232 94.3311 410.115 100.574 414.246 108.614C418.377 116.609 420.443 125.951 420.443 136.641C420.443 147.241 418.377 156.561 414.246 164.601C410.115 172.595 404.232 178.839 396.598 183.33C389.009 187.777 379.984 190 369.521 190ZM369.655 167.767C374.415 167.767 378.389 166.42 381.578 163.725C384.766 160.985 387.168 157.257 388.785 152.541C390.446 147.825 391.277 142.457 391.277 136.439C391.277 130.42 390.446 125.053 388.785 120.337C387.168 115.621 384.766 111.893 381.578 109.153C378.389 106.413 374.415 105.043 369.655 105.043C364.851 105.043 360.809 106.413 357.531 109.153C354.298 111.893 351.851 115.621 350.189 120.337C348.573 125.053 347.764 130.42 347.764 136.439C347.764 142.457 348.573 147.825 350.189 152.541C351.851 157.257 354.298 160.985 357.531 163.725C360.809 166.42 364.851 167.767 369.655 167.767Z" fill="white" fill-opacity="0.04"/>
<path d="M514.591 187.979L475.12 50H506.98L529.814 145.871H530.959L556.15 50H583.43L608.554 146.073H609.767L632.601 50H664.46L624.989 187.979H596.565L570.295 97.7671H569.218L543.016 187.979H514.591Z" fill="white" fill-opacity="0.04"/>
<path d="M715.568 190C704.925 190 695.765 187.844 688.086 183.532C680.452 179.175 674.57 173.022 670.438 165.072C666.307 157.077 664.242 147.623 664.242 136.708C664.242 126.064 666.307 116.721 670.438 108.681C674.57 100.642 680.385 94.376 687.884 89.8845C695.428 85.393 704.274 83.1473 714.423 83.1473C721.248 83.1473 727.602 84.2477 733.485 86.4485C739.412 88.6044 744.576 91.8608 748.977 96.2175C753.422 100.574 756.88 106.054 759.35 112.656C761.819 119.214 763.054 126.894 763.054 135.698V143.58H675.692V125.794H736.044C736.044 121.662 735.146 118.001 733.35 114.812C731.554 111.623 729.061 109.131 725.873 107.334C722.73 105.492 719.07 104.572 714.894 104.572C710.538 104.572 706.676 105.582 703.309 107.603C699.986 109.58 697.381 112.252 695.495 115.621C693.609 118.944 692.644 122.65 692.599 126.737V143.648C692.599 148.768 693.542 153.192 695.428 156.92C697.359 160.648 700.075 163.523 703.578 165.544C707.081 167.565 711.234 168.576 716.039 168.576C719.227 168.576 722.146 168.126 724.795 167.228C727.445 166.33 729.713 164.982 731.599 163.186C733.485 161.389 734.922 159.188 735.909 156.583L762.448 158.335C761.101 164.713 758.339 170.282 754.163 175.043C750.032 179.759 744.688 183.442 738.132 186.092C731.621 188.697 724.1 190 715.568 190Z" fill="white" fill-opacity="0.04"/>
<path d="M849.995 187.979H818.742L866.363 50H903.948L951.503 187.979H920.249L885.695 81.5303H884.617L849.995 187.979ZM848.042 133.744H921.865V156.516H848.042V133.744Z" fill="white" fill-opacity="0.04"/>
<path d="M967.567 187.979V84.4947H995.386V102.551H996.463C998.349 96.1277 1001.52 91.2769 1005.96 87.9981C1010.41 84.6744 1015.53 83.0125 1021.32 83.0125C1022.76 83.0125 1024.3 83.1023 1025.97 83.282C1027.63 83.4617 1029.09 83.7087 1030.34 84.0231V109.49C1029 109.086 1027.13 108.726 1024.75 108.412C1022.37 108.098 1020.2 107.94 1018.22 107.94C1014 107.94 1010.23 108.861 1006.9 110.703C1003.63 112.499 1001.02 115.014 999.09 118.248C997.204 121.482 996.261 125.21 996.261 129.432V187.979H967.567Z" fill="white" fill-opacity="0.04"/>
<path d="M1087.51 190C1076.87 190 1067.71 187.844 1060.03 183.532C1052.4 179.175 1046.52 173.022 1042.38 165.072C1038.25 157.077 1036.19 147.623 1036.19 136.708C1036.19 126.064 1038.25 116.721 1042.38 108.681C1046.52 100.642 1052.33 94.376 1059.83 89.8845C1067.37 85.393 1076.22 83.1473 1086.37 83.1473C1093.19 83.1473 1099.55 84.2477 1105.43 86.4485C1111.36 88.6044 1116.52 91.8608 1120.92 96.2175C1125.37 100.574 1128.83 106.054 1131.3 112.656C1133.77 119.214 1135 126.894 1135 135.698V143.58H1047.64V125.794H1107.99C1107.99 121.662 1107.09 118.001 1105.3 114.812C1103.5 111.623 1101.01 109.131 1097.82 107.334C1094.68 105.492 1091.02 104.572 1086.84 104.572C1082.48 104.572 1078.62 105.582 1075.25 107.603C1071.93 109.58 1069.33 112.252 1067.44 115.621C1065.55 118.944 1064.59 122.65 1064.54 126.737V143.648C1064.54 148.768 1065.49 153.192 1067.37 156.92C1069.3 160.648 1072.02 163.523 1075.52 165.544C1079.03 167.565 1083.18 168.576 1087.98 168.576C1091.17 168.576 1094.09 168.126 1096.74 167.228C1099.39 166.33 1101.66 164.982 1103.54 163.186C1105.43 161.389 1106.87 159.188 1107.86 156.583L1134.39 158.335C1133.05 164.713 1130.28 170.282 1126.11 175.043C1121.98 179.759 1116.63 183.442 1110.08 186.092C1103.57 188.697 1096.05 190 1087.51 190Z" fill="white" fill-opacity="0.04"/>
</svg>
