<svg width="1725" height="185" viewBox="0 0 1725 185" fill="none" xmlns="http://www.w3.org/2000/svg">
<path d="M327.161 94.2241C327.161 103.076 325.48 110.607 322.118 116.816C318.782 123.026 314.229 127.769 308.458 131.046C302.714 134.296 296.254 135.921 289.08 135.921C281.853 135.921 275.368 134.282 269.623 131.006C263.879 127.729 259.339 122.986 256.003 116.777C252.668 110.567 251 103.05 251 94.2241C251 85.3722 252.668 77.8415 256.003 71.6319C259.339 65.4223 263.879 60.6925 269.623 57.4424C275.368 54.1658 281.853 52.5276 289.08 52.5276C296.254 52.5276 302.714 54.1658 308.458 57.4424C314.229 60.6925 318.782 65.4223 322.118 71.6319C325.48 77.8415 327.161 85.3722 327.161 94.2241ZM309.729 94.2241C309.729 88.4902 308.868 83.6547 307.148 79.7175C305.454 75.7804 303.058 72.7945 299.961 70.7599C296.863 68.7253 293.237 67.708 289.08 67.708C284.924 67.708 281.298 68.7253 278.2 70.7599C275.103 72.7945 272.694 75.7804 270.973 79.7175C269.279 83.6547 268.432 88.4902 268.432 94.2241C268.432 99.9581 269.279 104.794 270.973 108.731C272.694 112.668 275.103 115.654 278.2 117.688C281.298 119.723 284.924 120.74 289.08 120.74C293.237 120.74 296.863 119.723 299.961 117.688C303.058 115.654 305.454 112.668 307.148 108.731C308.868 104.794 309.729 99.9581 309.729 94.2241Z" fill="white" fill-opacity="0.04"/>
<path d="M378.692 108.889V73.9308H395.608V134.811H379.367V123.753H378.732C377.356 127.32 375.066 130.187 371.863 132.354C368.686 134.52 364.808 135.604 360.228 135.604C356.151 135.604 352.564 134.679 349.467 132.829C346.37 130.98 343.948 128.35 342.2 124.942C340.48 121.533 339.606 117.451 339.58 112.694V73.9308H356.495V109.682C356.522 113.276 357.488 116.116 359.394 118.204C361.3 120.291 363.855 121.335 367.058 121.335C369.096 121.335 371.002 120.872 372.776 119.948C374.549 118.996 375.979 117.596 377.064 115.746C378.176 113.897 378.719 111.611 378.692 108.889Z" fill="white" fill-opacity="0.04"/>
<path d="M409.139 134.811V73.9308H425.538V84.5531H426.174C427.286 80.7745 429.152 77.9207 431.773 75.9918C434.393 74.0365 437.411 73.0588 440.826 73.0588C441.673 73.0588 442.587 73.1116 443.566 73.2173C444.546 73.323 445.406 73.4683 446.147 73.6533V88.6355C445.353 88.3977 444.254 88.1863 442.851 88.0014C441.448 87.8164 440.164 87.7239 439 87.7239C436.511 87.7239 434.288 88.2656 432.329 89.349C430.396 90.4059 428.861 91.8857 427.722 93.7882C426.611 95.6907 426.055 97.8838 426.055 100.368V134.811H409.139Z" fill="white" fill-opacity="0.04"/>
<path d="M481.091 134.811V53.6374H513.175C519.343 53.6374 524.598 54.8132 528.939 57.1649C533.281 59.4902 536.59 62.7271 538.866 66.8756C541.169 70.9977 542.321 75.754 542.321 81.1444C542.321 86.5349 541.156 91.2911 538.827 95.4132C536.497 99.5353 533.122 102.746 528.701 105.045C524.307 107.344 518.986 108.493 512.738 108.493H492.288V94.7394H509.959C513.268 94.7394 515.994 94.1713 518.139 93.0351C520.309 91.8724 521.924 90.2738 522.983 88.2392C524.068 86.1781 524.611 83.8132 524.611 81.1444C524.611 78.4492 524.068 76.0975 522.983 74.0893C521.924 72.0547 520.309 70.4825 518.139 69.3727C515.968 68.2364 513.215 67.6683 509.879 67.6683H498.284V134.811H481.091Z" fill="white" fill-opacity="0.04"/>
<path d="M553.171 134.811V73.9308H569.571V84.5531H570.206C571.318 80.7745 573.184 77.9207 575.805 75.9918C578.426 74.0365 581.444 73.0588 584.859 73.0588C585.706 73.0588 586.619 73.1116 587.598 73.2173C588.578 73.323 589.438 73.4683 590.18 73.6533V88.6355C589.385 88.3977 588.287 88.1863 586.884 88.0014C585.481 87.8164 584.197 87.7239 583.032 87.7239C580.544 87.7239 578.32 88.2656 576.361 89.349C574.429 90.4059 572.893 91.8857 571.755 93.7882C570.643 95.6907 570.087 97.8838 570.087 100.368V134.811H553.171Z" fill="white" fill-opacity="0.04"/>
<path d="M623.644 136C617.476 136 612.142 134.692 607.641 132.076C603.168 129.434 599.713 125.761 597.277 121.057C594.842 116.328 593.624 110.845 593.624 104.609C593.624 98.3198 594.842 92.8237 597.277 88.1203C599.713 83.3904 603.168 79.7175 607.641 77.1016C612.142 74.4592 617.476 73.138 623.644 73.138C629.812 73.138 635.133 74.4592 639.607 77.1016C644.107 79.7175 647.575 83.3904 650.01 88.1203C652.446 92.8237 653.663 98.3198 653.663 104.609C653.663 110.845 652.446 116.328 650.01 121.057C647.575 125.761 644.107 129.434 639.607 132.076C635.133 134.692 629.812 136 623.644 136ZM623.723 122.92C626.529 122.92 628.872 122.128 630.752 120.542C632.631 118.93 634.047 116.737 635 113.963C635.98 111.188 636.47 108.031 636.47 104.49C636.47 100.949 635.98 97.7913 635 95.0169C634.047 92.2424 632.631 90.0492 630.752 88.4374C628.872 86.8255 626.529 86.0196 623.723 86.0196C620.891 86.0196 618.508 86.8255 616.576 88.4374C614.67 90.0492 613.227 92.2424 612.247 95.0169C611.294 97.7913 610.818 100.949 610.818 104.49C610.818 108.031 611.294 111.188 612.247 113.963C613.227 116.737 614.67 118.93 616.576 120.542C618.508 122.128 620.891 122.92 623.723 122.92Z" fill="white" fill-opacity="0.04"/>
<path d="M697.462 73.9308V86.6141H659.818V73.9308H697.462ZM668.435 134.811V69.5312C668.435 65.1185 669.295 61.4588 671.016 58.5522C672.763 55.6456 675.146 53.4656 678.164 52.0123C681.181 50.559 684.61 49.8323 688.448 49.8323C691.042 49.8323 693.412 50.0305 695.556 50.4269C697.727 50.8232 699.341 51.18 700.4 51.497L697.382 64.1804C696.721 63.969 695.9 63.7708 694.92 63.5859C693.967 63.4009 692.988 63.3084 691.982 63.3084C689.494 63.3084 687.76 63.8898 686.78 65.0524C685.801 66.1886 685.311 67.7872 685.311 69.8483V134.811H668.435Z" fill="white" fill-opacity="0.04"/>
<path d="M733.408 136C727.134 136 721.734 134.732 717.207 132.195C712.707 129.632 709.239 126.012 706.803 121.335C704.368 116.631 703.15 111.069 703.15 104.648C703.15 98.3859 704.368 92.8898 706.803 88.1599C709.239 83.4301 712.667 79.744 717.088 77.1016C721.535 74.4592 726.75 73.138 732.733 73.138C736.757 73.138 740.502 73.7854 743.97 75.0802C747.465 76.3485 750.509 78.2642 753.103 80.8273C755.724 83.3904 757.762 86.6141 759.218 90.4984C760.674 94.3563 761.402 98.8747 761.402 104.054V108.691H709.901V98.2273H745.479C745.479 95.7964 744.95 93.6428 743.891 91.7667C742.832 89.8907 741.363 88.4241 739.483 87.3672C737.63 86.2838 735.473 85.7421 733.011 85.7421C730.443 85.7421 728.166 86.3367 726.181 87.5257C724.222 88.6884 722.687 90.2606 721.575 92.2424C720.463 94.1977 719.894 96.3777 719.867 98.7822V108.731C719.867 111.743 720.423 114.346 721.535 116.539C722.673 118.732 724.275 120.423 726.34 121.612C728.405 122.801 730.853 123.396 733.686 123.396C735.565 123.396 737.286 123.132 738.848 122.603C740.41 122.075 741.747 121.282 742.858 120.225C743.97 119.168 744.817 117.873 745.4 116.341L761.045 117.371C760.251 121.123 758.623 124.4 756.161 127.201C753.725 129.975 750.575 132.142 746.71 133.701C742.872 135.234 738.438 136 733.408 136Z" fill="white" fill-opacity="0.04"/>
<path d="M823.189 91.2911L807.702 92.2424C807.438 90.9212 806.869 89.7321 805.995 88.6752C805.121 87.5918 803.97 86.733 802.54 86.0989C801.137 85.4383 799.456 85.108 797.497 85.108C794.877 85.108 792.666 85.6629 790.866 86.7727C789.066 87.856 788.166 89.3093 788.166 91.1326C788.166 92.5859 788.748 93.8146 789.913 94.8187C791.078 95.8228 793.076 96.6287 795.909 97.2364L806.948 99.456C812.878 100.672 817.299 102.627 820.211 105.322C823.122 108.017 824.578 111.558 824.578 115.944C824.578 119.934 823.4 123.436 821.044 126.448C818.715 129.46 815.512 131.812 811.435 133.503C807.385 135.168 802.712 136 797.418 136C789.344 136 782.911 134.322 778.12 130.966C773.355 127.584 770.562 122.986 769.741 117.173L786.379 116.301C786.882 118.759 788.1 120.635 790.032 121.929C791.965 123.198 794.44 123.832 797.458 123.832C800.422 123.832 802.805 123.264 804.605 122.128C806.432 120.965 807.358 119.472 807.385 117.649C807.358 116.116 806.71 114.861 805.439 113.883C804.168 112.879 802.209 112.113 799.562 111.585L789 109.484C783.043 108.295 778.609 106.234 775.697 103.301C772.812 100.368 771.369 96.6287 771.369 92.0838C771.369 88.1731 772.428 84.8041 774.546 81.9768C776.69 79.1494 779.695 76.9695 783.56 75.4369C787.451 73.9043 792.004 73.138 797.219 73.138C804.923 73.138 810.985 74.7631 815.406 78.0132C819.853 81.2633 822.447 85.6893 823.189 91.2911Z" fill="white" fill-opacity="0.04"/>
<path d="M885.978 91.2911L870.491 92.2424C870.227 90.9212 869.657 89.7321 868.784 88.6752C867.91 87.5918 866.759 86.733 865.329 86.0989C863.926 85.4383 862.245 85.108 860.286 85.108C857.666 85.108 855.455 85.6629 853.655 86.7727C851.855 87.856 850.955 89.3093 850.955 91.1326C850.955 92.5859 851.537 93.8146 852.702 94.8187C853.867 95.8228 855.865 96.6287 858.698 97.2364L869.737 99.456C875.667 100.672 880.088 102.627 882.999 105.322C885.911 108.017 887.367 111.558 887.367 115.944C887.367 119.934 886.189 123.436 883.833 126.448C881.504 129.46 878.301 131.812 874.224 133.503C870.174 135.168 865.501 136 860.207 136C852.133 136 845.7 134.322 840.909 130.966C836.144 127.584 833.351 122.986 832.53 117.173L849.168 116.301C849.671 118.759 850.889 120.635 852.821 121.929C854.754 123.198 857.229 123.832 860.247 123.832C863.211 123.832 865.594 123.264 867.394 122.128C869.221 120.965 870.147 119.472 870.174 117.649C870.147 116.116 869.499 114.861 868.228 113.883C866.957 112.879 864.998 112.113 862.351 111.585L851.789 109.484C845.832 108.295 841.398 106.234 838.486 103.301C835.601 100.368 834.158 96.6287 834.158 92.0838C834.158 88.1731 835.217 84.8041 837.335 81.9768C839.479 79.1494 842.484 76.9695 846.349 75.4369C850.24 73.9043 854.793 73.138 860.008 73.138C867.712 73.138 873.774 74.7631 878.195 78.0132C882.642 81.2633 885.236 85.6893 885.978 91.2911Z" fill="white" fill-opacity="0.04"/>
<path d="M898.019 134.811V73.9308H914.935V134.811H898.019ZM906.517 66.0829C904.002 66.0829 901.844 65.2506 900.044 63.5859C898.271 61.8948 897.384 59.8733 897.384 57.5216C897.384 55.1964 898.271 53.2014 900.044 51.5367C901.844 49.8456 904.002 49 906.517 49C909.032 49 911.176 49.8456 912.95 51.5367C914.75 53.2014 915.65 55.1964 915.65 57.5216C915.65 59.8733 914.75 61.8948 912.95 63.5859C911.176 65.2506 909.032 66.0829 906.517 66.0829Z" fill="white" fill-opacity="0.04"/>
<path d="M956.043 136C949.875 136 944.541 134.692 940.041 132.076C935.567 129.434 932.112 125.761 929.677 121.057C927.241 116.328 926.024 110.845 926.024 104.609C926.024 98.3198 927.241 92.8237 929.677 88.1203C932.112 83.3904 935.567 79.7175 940.041 77.1016C944.541 74.4592 949.875 73.138 956.043 73.138C962.211 73.138 967.532 74.4592 972.006 77.1016C976.506 79.7175 979.974 83.3904 982.41 88.1203C984.845 92.8237 986.063 98.3198 986.063 104.609C986.063 110.845 984.845 116.328 982.41 121.057C979.974 125.761 976.506 129.434 972.006 132.076C967.532 134.692 962.211 136 956.043 136ZM956.123 122.92C958.929 122.92 961.271 122.128 963.151 120.542C965.031 118.93 966.447 116.737 967.4 113.963C968.379 111.188 968.869 108.031 968.869 104.49C968.869 100.949 968.379 97.7913 967.4 95.0169C966.447 92.2424 965.031 90.0492 963.151 88.4374C961.271 86.8255 958.929 86.0196 956.123 86.0196C953.29 86.0196 950.908 86.8255 948.975 88.4374C947.069 90.0492 945.626 92.2424 944.647 95.0169C943.694 97.7913 943.217 100.949 943.217 104.49C943.217 108.031 943.694 111.188 944.647 113.963C945.626 116.737 947.069 118.93 948.975 120.542C950.908 122.128 953.29 122.92 956.123 122.92Z" fill="white" fill-opacity="0.04"/>
<path d="M1013.98 99.6146V134.811H997.062V73.9308H1013.18V84.672H1013.9C1015.25 81.1312 1017.51 78.3303 1020.69 76.2692C1023.87 74.1818 1027.72 73.138 1032.24 73.138C1036.48 73.138 1040.17 74.0629 1043.32 75.9125C1046.47 77.7622 1048.92 80.4046 1050.67 83.8396C1052.42 87.2483 1053.29 91.3175 1053.29 96.0474V134.811H1036.37V99.0597C1036.4 95.3339 1035.45 92.4273 1033.51 90.3399C1031.58 88.226 1028.92 87.169 1025.53 87.169C1023.26 87.169 1021.24 87.6579 1019.5 88.6355C1017.78 89.6132 1016.43 91.0401 1015.45 92.9162C1014.49 94.7658 1014 96.9986 1013.98 99.6146Z" fill="white" fill-opacity="0.04"/>
<path d="M1084.01 135.96C1080.12 135.96 1076.65 135.287 1073.61 133.939C1070.57 132.565 1068.16 130.544 1066.38 127.875C1064.64 125.18 1063.76 121.824 1063.76 117.807C1063.76 114.425 1064.38 111.585 1065.63 109.286C1066.87 106.987 1068.57 105.137 1070.71 103.737C1072.86 102.336 1075.29 101.279 1078.02 100.566C1080.77 99.8524 1083.66 99.3503 1086.67 99.0597C1090.22 98.6898 1093.08 98.3462 1095.25 98.0292C1097.42 97.6857 1099 97.1836 1099.98 96.523C1100.96 95.8624 1101.45 94.8847 1101.45 93.59V93.3522C1101.45 90.8419 1100.65 88.8998 1099.06 87.5257C1097.5 86.1517 1095.28 85.4647 1092.39 85.4647C1089.35 85.4647 1086.93 86.1385 1085.13 87.4861C1083.33 88.8073 1082.13 90.472 1081.55 92.4802L1065.91 91.2118C1066.7 87.5125 1068.26 84.3153 1070.59 81.62C1072.92 78.8984 1075.93 76.8109 1079.61 75.3576C1083.31 73.8779 1087.6 73.138 1092.47 73.138C1095.86 73.138 1099.1 73.5344 1102.2 74.3271C1105.32 75.1198 1108.09 76.3485 1110.5 78.0132C1112.93 79.6779 1114.85 81.8182 1116.26 84.4342C1117.66 87.0237 1118.36 90.1285 1118.36 93.7485V134.811H1102.32V126.369H1101.84C1100.86 128.271 1099.55 129.949 1097.91 131.402C1096.27 132.829 1094.3 133.952 1091.99 134.771C1089.69 135.564 1087.03 135.96 1084.01 135.96ZM1088.86 124.308C1091.35 124.308 1093.54 123.819 1095.45 122.841C1097.36 121.837 1098.85 120.489 1099.94 118.798C1101.02 117.107 1101.56 115.191 1101.56 113.051V106.59C1101.04 106.934 1100.31 107.251 1099.38 107.542C1098.48 107.806 1097.46 108.057 1096.32 108.295C1095.18 108.506 1094.05 108.704 1092.91 108.889C1091.77 109.048 1090.74 109.193 1089.81 109.325C1087.83 109.616 1086.09 110.078 1084.61 110.713C1083.13 111.347 1081.98 112.205 1081.15 113.289C1080.33 114.346 1079.92 115.667 1079.92 117.252C1079.92 119.551 1080.76 121.308 1082.43 122.524C1084.12 123.713 1086.26 124.308 1088.86 124.308Z" fill="white" fill-opacity="0.04"/>
<path d="M1148.4 53.6374V134.811H1131.49V53.6374H1148.4Z" fill="white" fill-opacity="0.04"/>
<path d="M1185.05 67.7872V53.6374H1251.84V67.7872H1226.94V134.811H1209.95V67.7872H1185.05Z" fill="white" fill-opacity="0.04"/>
<path d="M1281.47 136C1275.2 136 1269.8 134.732 1265.27 132.195C1260.77 129.632 1257.3 126.012 1254.87 121.335C1252.43 116.631 1251.22 111.069 1251.22 104.648C1251.22 98.3859 1252.43 92.8898 1254.87 88.1599C1257.3 83.4301 1260.73 79.744 1265.15 77.1016C1269.6 74.4592 1274.82 73.138 1280.8 73.138C1284.82 73.138 1288.57 73.7854 1292.04 75.0802C1295.53 76.3485 1298.57 78.2642 1301.17 80.8273C1303.79 83.3904 1305.83 86.6141 1307.28 90.4984C1308.74 94.3563 1309.47 98.8747 1309.47 104.054V108.691H1257.97V98.2273H1293.55C1293.55 95.7964 1293.02 93.6428 1291.96 91.7667C1290.9 89.8907 1289.43 88.4241 1287.55 87.3672C1285.7 86.2838 1283.54 85.7421 1281.08 85.7421C1278.51 85.7421 1276.23 86.3367 1274.25 87.5257C1272.29 88.6884 1270.75 90.2606 1269.64 92.2424C1268.53 94.1977 1267.96 96.3777 1267.93 98.7822V108.731C1267.93 111.743 1268.49 114.346 1269.6 116.539C1270.74 118.732 1272.34 120.423 1274.41 121.612C1276.47 122.801 1278.92 123.396 1281.75 123.396C1283.63 123.396 1285.35 123.132 1286.91 122.603C1288.48 122.075 1289.81 121.282 1290.92 120.225C1292.04 119.168 1292.88 117.873 1293.47 116.341L1309.11 117.371C1308.32 121.123 1306.69 124.4 1304.23 127.201C1301.79 129.975 1298.64 132.142 1294.78 133.701C1290.94 135.234 1286.5 136 1281.47 136Z" fill="white" fill-opacity="0.04"/>
<path d="M1337.9 135.96C1334.01 135.96 1330.54 135.287 1327.5 133.939C1324.45 132.565 1322.04 130.544 1320.27 127.875C1318.52 125.18 1317.65 121.824 1317.65 117.807C1317.65 114.425 1318.27 111.585 1319.51 109.286C1320.76 106.987 1322.45 105.137 1324.6 103.737C1326.74 102.336 1329.18 101.279 1331.9 100.566C1334.66 99.8524 1337.54 99.3503 1340.56 99.0597C1344.11 98.6898 1346.97 98.3462 1349.14 98.0292C1351.31 97.6857 1352.88 97.1836 1353.86 96.523C1354.84 95.8624 1355.33 94.8847 1355.33 93.59V93.3522C1355.33 90.8419 1354.54 88.8998 1352.95 87.5257C1351.39 86.1517 1349.16 85.4647 1346.28 85.4647C1343.23 85.4647 1340.81 86.1385 1339.01 87.4861C1337.21 88.8073 1336.02 90.472 1335.44 92.4802L1319.79 91.2118C1320.59 87.5125 1322.15 84.3153 1324.48 81.62C1326.81 78.8984 1329.81 76.8109 1333.49 75.3576C1337.2 73.8779 1341.49 73.138 1346.36 73.138C1349.75 73.138 1352.99 73.5344 1356.09 74.3271C1359.21 75.1198 1361.98 76.3485 1364.38 78.0132C1366.82 79.6779 1368.74 81.8182 1370.14 84.4342C1371.55 87.0237 1372.25 90.1285 1372.25 93.7485V134.811H1356.2V126.369H1355.73C1354.75 128.271 1353.44 129.949 1351.8 131.402C1350.16 132.829 1348.18 133.952 1345.88 134.771C1343.58 135.564 1340.92 135.96 1337.9 135.96ZM1342.74 124.308C1345.23 124.308 1347.43 123.819 1349.34 122.841C1351.24 121.837 1352.74 120.489 1353.82 118.798C1354.91 117.107 1355.45 115.191 1355.45 113.051V106.59C1354.92 106.934 1354.19 107.251 1353.27 107.542C1352.37 107.806 1351.35 108.057 1350.21 108.295C1349.07 108.506 1347.93 108.704 1346.79 108.889C1345.66 109.048 1344.62 109.193 1343.7 109.325C1341.71 109.616 1339.98 110.078 1338.5 110.713C1337.01 111.347 1335.86 112.205 1335.04 113.289C1334.22 114.346 1333.81 115.667 1333.81 117.252C1333.81 119.551 1334.64 121.308 1336.31 122.524C1338.01 123.713 1340.15 124.308 1342.74 124.308Z" fill="white" fill-opacity="0.04"/>
<path d="M1385.37 134.811V73.9308H1401.49V84.672H1402.21C1403.48 81.1048 1405.6 78.2907 1408.56 76.2296C1411.53 74.1686 1415.07 73.138 1419.2 73.138C1423.39 73.138 1426.95 74.1818 1429.88 76.2692C1432.82 78.3303 1434.78 81.1312 1435.76 84.672H1436.4C1437.64 81.1841 1439.89 78.3964 1443.15 76.3089C1446.43 74.195 1450.31 73.138 1454.78 73.138C1460.47 73.138 1465.09 74.9481 1468.64 78.5681C1472.21 82.1617 1474 87.2615 1474 93.8674V134.811H1457.12V97.1968C1457.12 93.8146 1456.22 91.2779 1454.42 89.5868C1452.62 87.8957 1450.37 87.0501 1447.67 87.0501C1444.6 87.0501 1442.21 88.0278 1440.49 89.9831C1438.77 91.9121 1437.91 94.462 1437.91 97.6328V134.811H1421.51V96.8401C1421.51 93.8542 1420.65 91.4761 1418.92 89.7057C1417.23 87.9353 1414.99 87.0501 1412.21 87.0501C1410.33 87.0501 1408.64 87.5257 1407.13 88.477C1405.65 89.4018 1404.47 90.7098 1403.6 92.4009C1402.72 94.0656 1402.29 96.021 1402.29 98.267V134.811H1385.37Z" fill="white" fill-opacity="0.04"/>
</svg>
