<svg width="410" height="513" viewBox="0 0 410 513" fill="none" xmlns="http://www.w3.org/2000/svg">
<path d="M102.6 383.037V410.6C102.6 437.758 113.388 463.804 132.592 483.007C151.796 502.211 177.842 513 205 513C232.158 513 258.204 502.211 277.408 483.007C296.611 463.804 307.4 437.758 307.4 410.6V383.037C346.443 360.495 376.958 325.7 394.21 284.049C411.463 242.397 414.49 196.216 402.821 152.669C391.153 109.122 365.441 70.6413 329.674 43.1962C293.907 15.7512 250.083 0.875 205 0.875C159.916 0.875 116.093 15.7512 80.3254 43.1962C44.5583 70.6413 18.8466 109.122 7.17817 152.669C-4.4903 196.216 -1.46345 242.397 15.7893 284.049C33.042 325.7 63.5563 360.495 102.6 383.037ZM213.533 284.17V257H264.733C271.523 257 278.034 259.697 282.835 264.498C287.636 269.299 290.333 275.81 290.333 282.6V308.2H230.6C230.578 302.924 228.927 297.784 225.872 293.482C222.817 289.181 218.507 285.928 213.533 284.17ZM179.4 308.2H119.666V282.6C119.666 275.81 122.364 269.299 127.165 264.498C131.965 259.697 138.477 257 145.266 257H196.466V284.17C191.492 285.928 187.183 289.181 184.128 293.482C181.073 297.784 179.422 302.924 179.4 308.2ZM196.466 196.413C186.821 194.454 178.15 189.222 171.921 181.601C165.693 173.981 162.29 164.442 162.29 154.6C162.29 144.758 165.693 135.218 171.921 127.598C178.15 119.978 186.821 114.745 196.466 112.786V196.413ZM213.533 215.255C220.219 216.604 226.479 219.555 231.775 223.853C237.072 228.15 241.248 233.668 243.946 239.933H213.533V215.255ZM196.466 308.2C196.466 305.936 197.365 303.766 198.966 302.166C200.566 300.565 202.737 299.666 205 299.666C207.263 299.666 209.433 300.565 211.034 302.166C212.634 303.766 213.533 305.936 213.533 308.2V325.266C213.533 327.53 212.634 329.7 211.034 331.3C209.433 332.901 207.263 333.8 205 333.8C202.737 333.8 200.566 332.901 198.966 331.3C197.365 329.7 196.466 327.53 196.466 325.266V308.2ZM264.733 239.933H262.173C258.964 228.995 252.668 219.214 244.041 211.763C235.414 204.312 224.822 199.507 213.533 197.923V112.786C223.164 114.767 231.817 120.007 238.035 127.624C244.252 135.24 247.654 144.768 247.666 154.6C247.666 156.863 248.565 159.033 250.166 160.634C251.766 162.234 253.937 163.133 256.2 163.133C258.463 163.133 260.633 162.234 262.234 160.634C263.834 159.033 264.733 156.863 264.733 154.6C264.706 140.251 259.518 126.391 250.119 115.549C240.719 104.708 227.733 97.6093 213.533 95.549V86.333C213.533 84.0698 212.634 81.8993 211.034 80.299C209.433 78.6987 207.263 77.7997 205 77.7997C202.737 77.7997 200.566 78.6987 198.966 80.299C197.365 81.8993 196.466 84.0698 196.466 86.333V95.549C182.26 97.5893 169.265 104.683 159.865 115.529C150.465 126.376 145.291 140.247 145.291 154.6C145.291 168.952 150.465 182.824 159.865 193.67C169.265 204.516 182.26 211.61 196.466 213.65V239.933H145.266C133.955 239.947 123.11 244.446 115.112 252.445C107.113 260.443 102.613 271.288 102.6 282.6V320.146C79.4134 299.408 63.0703 272.118 55.7333 241.888C48.3962 211.657 50.4109 179.912 61.5109 150.852C72.6109 121.792 92.2728 96.7868 117.895 79.1459C143.517 61.505 173.892 52.0597 205 52.0597C236.108 52.0597 266.482 61.505 292.105 79.1459C317.727 96.7868 337.389 121.792 348.489 150.852C359.589 179.912 361.603 211.657 354.266 241.888C346.929 272.118 330.586 299.408 307.4 320.146V282.6C307.386 271.288 302.887 260.443 294.888 252.445C286.889 244.446 276.045 239.947 264.733 239.933ZM205 495.933C182.376 495.908 160.685 486.91 144.687 470.912C128.69 454.914 119.691 433.224 119.666 410.6V325.266H179.4C179.4 332.056 182.097 338.567 186.898 343.368C191.699 348.169 198.21 350.866 205 350.866C211.789 350.866 218.301 348.169 223.102 343.368C227.903 338.567 230.6 332.056 230.6 325.266H290.333V410.6C290.308 433.224 281.31 454.914 265.312 470.912C249.314 486.91 227.624 495.908 205 495.933ZM205 18.0663C245.452 18.0863 284.816 31.1723 317.229 55.3754C349.643 79.5785 373.371 113.604 384.881 152.384C396.391 191.165 395.066 232.626 381.105 270.593C367.143 308.559 341.292 341.001 307.4 363.086V342.137C336.056 320.645 357.223 290.681 367.903 256.491C378.584 222.3 378.236 185.616 366.908 151.634C355.581 117.652 333.849 88.0957 304.79 67.1514C275.732 46.2071 240.82 34.9367 205 34.9367C169.18 34.9367 134.268 46.2071 105.209 67.1514C76.1506 88.0957 54.4184 117.652 43.0912 151.634C31.7639 185.616 31.4158 222.3 42.0961 256.491C52.7765 290.681 73.9438 320.645 102.6 342.137V363.086C68.708 341.001 42.8563 308.559 28.8948 270.593C14.9333 232.626 13.6089 191.165 25.1187 152.384C36.6286 113.604 60.357 79.5785 92.7701 55.3754C125.183 31.1723 164.547 18.0863 205 18.0663Z" fill="url(#paint0_linear_18_1499)"/>
<defs>
<linearGradient id="paint0_linear_18_1499" x1="8.2804e-06" y1="0.999996" x2="671.5" y2="837" gradientUnits="userSpaceOnUse">
<stop stop-color="#F0B151"/>
<stop offset="1" stop-color="#DB5E5E"/>
</linearGradient>
</defs>
</svg>
