<svg width="513" height="513" viewBox="0 0 513 513" fill="none" xmlns="http://www.w3.org/2000/svg">
<path d="M401.921 353.674C434.947 308.496 449.707 252.518 443.251 196.929C436.795 141.34 409.598 90.2355 367.097 53.8288C324.595 17.4221 269.92 -1.60449 213.999 0.551855C158.079 2.7082 105.031 25.8886 65.4596 65.4601C25.8881 105.032 2.70771 158.079 0.551366 214C-1.60498 269.921 17.4216 324.596 53.8283 367.097C90.235 409.598 141.34 436.795 196.929 443.251C252.518 449.707 308.495 434.948 353.674 401.922L457.252 505.5C462.052 510.299 468.563 512.995 475.351 512.995C482.139 512.995 488.649 510.299 493.45 505.5L505.499 493.459C507.877 491.082 509.763 488.259 511.05 485.153C512.336 482.047 512.999 478.718 512.999 475.356C512.999 471.993 512.336 468.664 511.05 465.558C509.763 462.452 507.877 459.629 505.499 457.252L401.921 353.674ZM18.0665 222.867C18.0665 182.361 30.0778 142.765 52.5815 109.086C75.0852 75.407 107.071 49.1573 144.493 33.6564C181.915 18.1556 223.094 14.0999 262.821 22.0021C302.548 29.9044 339.04 49.4097 367.682 78.0515C396.324 106.693 415.829 143.185 423.731 182.912C431.634 222.64 427.578 263.818 412.077 301.241C396.576 338.663 370.326 370.648 336.647 393.152C302.968 415.656 263.372 427.667 222.867 427.667C168.57 427.604 116.515 406.006 78.1209 367.613C39.7271 329.219 18.1297 277.164 18.0665 222.867ZM391.229 367.08L408.1 383.942L383.976 408.1L367.08 391.23C375.738 383.812 383.812 375.739 391.229 367.08ZM493.433 481.427L481.375 493.476C479.752 495.029 477.593 495.896 475.347 495.896C473.1 495.896 470.941 495.029 469.318 493.476L396.042 420.209L420.166 396.085L493.433 469.361C495.033 470.961 495.931 473.131 495.931 475.394C495.931 477.657 495.033 479.827 493.433 481.427Z" fill="url(#paint0_linear_18_1501)"/>
<path d="M235.786 254.901C238.565 256.444 241.726 257.164 244.9 256.977C248.073 256.789 251.128 255.702 253.706 253.843C256.409 251.932 258.514 249.293 259.775 246.232C261.037 243.171 261.403 239.815 260.831 236.554L258.271 221.135L268.981 210.263C271.282 207.935 272.89 205.012 273.624 201.821C274.358 198.63 274.189 195.298 273.136 192.198C272.153 189.17 270.347 186.474 267.921 184.411C265.496 182.349 262.545 181 259.398 180.516L244.891 178.314L238.329 164.49C236.965 161.54 234.785 159.041 232.047 157.289C229.308 155.538 226.126 154.607 222.875 154.607C219.624 154.607 216.442 155.538 213.703 157.289C210.965 159.041 208.785 161.54 207.421 164.49L200.859 178.323L186.352 180.525C183.205 181.009 180.254 182.357 177.829 184.42C175.403 186.483 173.597 189.178 172.614 192.207C171.561 195.307 171.392 198.639 172.126 201.829C172.86 205.02 174.468 207.943 176.769 210.272L187.453 221.16L184.893 236.572C184.321 239.833 184.687 243.191 185.948 246.253C187.209 249.315 189.315 251.956 192.018 253.869C194.597 255.728 197.651 256.815 200.825 257.002C203.998 257.19 207.159 256.47 209.938 254.927L222.866 247.836L235.786 254.901ZM201.746 239.328L204.989 219.616C205.208 218.29 205.11 216.93 204.703 215.649C204.297 214.368 203.594 213.201 202.651 212.243L188.895 198.282V197.386L207.908 194.511C209.289 194.302 210.599 193.757 211.721 192.924C212.842 192.091 213.742 190.995 214.342 189.732L222.798 171.667C222.84 171.716 222.874 171.77 222.901 171.829L231.434 189.749C232.033 191.012 232.933 192.108 234.055 192.941C235.177 193.774 236.486 194.319 237.868 194.528L256.846 197.378V198.3L243.09 212.26C242.148 213.218 241.444 214.385 241.038 215.666C240.632 216.948 240.534 218.307 240.752 219.633L243.978 239.934L226.962 230.624C225.707 229.937 224.298 229.576 222.866 229.576C221.435 229.576 220.026 229.937 218.77 230.624L201.746 239.328Z" fill="url(#paint1_linear_18_1501)"/>
<path d="M267.556 40.484C266.466 40.2184 265.335 40.17 264.227 40.3415C263.12 40.5129 262.056 40.9009 261.098 41.4833C260.14 42.0658 259.306 42.8312 258.644 43.7358C257.982 44.6405 257.504 45.6668 257.239 46.756C256.973 47.8453 256.925 48.9761 257.096 50.0841C257.268 51.1921 257.656 52.2554 258.238 53.2134C258.82 54.1714 259.586 55.0053 260.491 55.6675C261.395 56.3297 262.422 56.8072 263.511 57.0728C296.91 65.2715 327.053 83.3693 349.99 108.994C372.926 134.619 387.586 166.576 392.048 200.676C396.51 234.776 390.566 269.428 374.995 300.092C359.424 330.756 334.952 356 304.786 372.516C302.583 368.56 299.367 365.26 295.468 362.955C291.57 360.651 287.129 359.424 282.6 359.4V350.867C282.6 344.077 279.903 337.566 275.102 332.765C270.301 327.964 263.789 325.267 257 325.267V301.024C276.669 292.379 292.379 276.669 301.023 257H308.2C319.512 256.987 330.356 252.487 338.355 244.489C346.353 236.49 350.853 225.645 350.866 214.334V163.134C350.866 156.344 348.169 149.833 343.368 145.032C338.567 140.231 332.056 137.534 325.266 137.534H308.2C308.2 130.744 305.503 124.233 300.702 119.432C295.901 114.631 289.389 111.934 282.6 111.934H163.133C156.344 111.934 149.832 114.631 145.031 119.432C140.23 124.233 137.533 130.744 137.533 137.534H120.466C113.677 137.534 107.165 140.231 102.365 145.032C97.5636 149.833 94.8665 156.344 94.8665 163.134V214.334C94.88 225.645 99.3796 236.49 107.378 244.489C115.377 252.487 126.221 256.987 137.533 257H144.71C153.354 276.669 169.064 292.379 188.733 301.024V325.267C181.944 325.267 175.432 327.964 170.631 332.765C165.83 337.566 163.133 344.077 163.133 350.867V359.4C158.604 359.424 154.163 360.651 150.265 362.955C146.366 365.26 143.15 368.56 140.946 372.516C107.731 354.304 81.5175 325.559 66.4371 290.809C51.3567 256.06 48.2659 217.28 57.6518 180.58C67.0377 143.881 88.3667 111.346 118.279 88.1033C148.191 64.8602 184.986 52.2292 222.866 52.2003C225.13 52.2003 227.3 51.3012 228.9 49.7009C230.501 48.1006 231.4 45.9301 231.4 43.667C231.4 41.4038 230.501 39.2333 228.9 37.633C227.3 36.0327 225.13 35.1336 222.866 35.1336C175.084 35.1882 129.126 53.481 94.3753 86.2764C59.625 119.072 38.7047 163.896 35.8868 211.595C33.0689 259.294 48.5659 306.269 79.2131 342.928C109.86 379.587 153.346 403.164 200.789 408.844C248.232 414.524 296.054 401.879 334.489 373.491C372.924 345.103 399.072 303.113 407.594 256.097C416.116 209.081 406.368 160.586 380.342 120.514C354.316 80.4419 313.974 51.8167 267.556 40.484ZM325.266 154.6C327.53 154.6 329.7 155.499 331.3 157.1C332.901 158.7 333.8 160.87 333.8 163.134V214.334C333.8 221.123 331.103 227.635 326.302 232.436C321.501 237.237 314.989 239.934 308.2 239.934H306.493C307.635 234.317 308.207 228.599 308.2 222.867V154.6H325.266ZM137.533 239.934C130.744 239.934 124.232 237.237 119.431 232.436C114.63 227.635 111.933 221.123 111.933 214.334V163.134C111.933 160.87 112.832 158.7 114.432 157.1C116.033 155.499 118.203 154.6 120.466 154.6H137.533V222.867C137.526 228.599 138.098 234.317 139.24 239.934H137.533ZM154.6 222.867V137.534C154.6 135.27 155.499 133.1 157.099 131.5C158.699 129.899 160.87 129 163.133 129H282.6C284.863 129 287.033 129.899 288.634 131.5C290.234 133.1 291.133 135.27 291.133 137.534V222.867C291.133 240.972 283.941 258.336 271.138 271.139C258.336 283.941 240.972 291.134 222.866 291.134C204.761 291.134 187.397 283.941 174.595 271.139C161.792 258.336 154.6 240.972 154.6 222.867ZM205.8 306.494C217.061 308.792 228.671 308.792 239.933 306.494V325.267H205.8V306.494ZM180.2 350.867C180.2 348.604 181.099 346.433 182.699 344.833C184.299 343.233 186.47 342.334 188.733 342.334H257C259.263 342.334 261.434 343.233 263.034 344.833C264.634 346.433 265.533 348.604 265.533 350.867V359.4H180.2V350.867ZM156.383 380.042C157.146 378.955 158.155 378.064 159.328 377.443C160.501 376.821 161.805 376.487 163.133 376.467H282.6C283.927 376.487 285.232 376.821 286.405 377.443C287.578 378.064 288.587 378.955 289.35 380.042C268.316 388.946 245.707 393.534 222.866 393.534C200.026 393.534 177.417 388.946 156.383 380.042Z" fill="url(#paint2_linear_18_1501)"/>
<defs>
<linearGradient id="paint0_linear_18_1501" x1="0.136309" y1="0.511832" x2="626.17" y2="975.001" gradientUnits="userSpaceOnUse">
<stop stop-color="#F0B151"/>
<stop offset="1" stop-color="#DB5E5E"/>
</linearGradient>
<linearGradient id="paint1_linear_18_1501" x1="0.136309" y1="0.511832" x2="626.17" y2="975.001" gradientUnits="userSpaceOnUse">
<stop stop-color="#F0B151"/>
<stop offset="1" stop-color="#DB5E5E"/>
</linearGradient>
<linearGradient id="paint2_linear_18_1501" x1="0.136309" y1="0.511832" x2="626.17" y2="975.001" gradientUnits="userSpaceOnUse">
<stop stop-color="#F0B151"/>
<stop offset="1" stop-color="#DB5E5E"/>
</linearGradient>
</defs>
</svg>
