<svg width="512" height="512" viewBox="0 0 512 512" fill="none" xmlns="http://www.w3.org/2000/svg">
<path d="M477.867 256H392.533V93.8667C392.533 87.0771 389.836 80.5657 385.035 75.7647C380.234 70.9638 373.723 68.2667 366.933 68.2667H296.047L278.758 22.1867C276.303 15.687 271.932 10.0858 266.224 6.1241C260.517 2.16241 253.741 0.0268756 246.793 0H145.741C138.793 0.0268756 132.017 2.16241 126.309 6.1241C120.601 10.0858 116.23 15.687 113.775 22.1867L96.4864 68.2667H25.6C18.8105 68.2667 12.299 70.9638 7.49807 75.7647C2.69713 80.5657 0 87.0771 0 93.8667V349.867C0 356.656 2.69713 363.168 7.49807 367.969C12.299 372.77 18.8105 375.467 25.6 375.467H204.8V477.867C204.8 486.919 208.396 495.601 214.797 502.003C221.199 508.404 229.881 512 238.933 512H477.867C486.919 512 495.601 508.404 502.003 502.003C508.404 495.601 512 486.919 512 477.867V290.133C512 281.081 508.404 272.399 502.003 265.997C495.601 259.596 486.919 256 477.867 256ZM129.766 28.16C130.99 24.9091 133.173 22.1072 136.026 20.1259C138.879 18.1446 142.267 17.0777 145.741 17.0667H246.793C250.267 17.0783 253.656 18.1454 256.51 20.1265C259.364 22.1075 261.549 24.9091 262.775 28.16L277.82 68.2667H259.593L250.94 45.2267C249.716 41.9758 247.533 39.1738 244.68 37.1925C241.827 35.2113 238.439 34.1443 234.965 34.1333H157.568C154.094 34.145 150.705 35.212 147.85 37.1931C144.996 39.1742 142.811 41.9758 141.585 45.2267L132.941 68.2667H114.714L129.766 28.16ZM241.357 68.2667H151.168L157.568 51.2H234.957L241.357 68.2667ZM17.0667 93.8667C17.0667 91.6035 17.9657 89.433 19.566 87.8327C21.1663 86.2324 23.3368 85.3333 25.6 85.3333H366.933C369.197 85.3333 371.367 86.2324 372.967 87.8327C374.568 89.433 375.467 91.6035 375.467 93.8667V162.133C375.467 171.186 371.871 179.868 365.469 186.269C359.068 192.67 350.386 196.267 341.333 196.267H51.2C42.1473 196.267 33.4653 192.67 27.0641 186.269C20.6628 179.868 17.0667 171.186 17.0667 162.133V93.8667ZM179.2 213.333H213.333V230.4H179.2V213.333ZM204.8 290.133V358.4H25.6C23.3368 358.4 21.1663 357.501 19.566 355.901C17.9657 354.3 17.0667 352.13 17.0667 349.867V200.192C26.425 208.647 38.5876 213.33 51.2 213.333H162.133V230.4C162.133 234.926 163.931 239.267 167.132 242.468C170.333 245.669 174.674 247.467 179.2 247.467H213.333C217.86 247.467 222.201 245.669 225.401 242.468C228.602 239.267 230.4 234.926 230.4 230.4V213.333H341.333C353.946 213.33 366.108 208.647 375.467 200.192V256H238.933C229.881 256 221.199 259.596 214.797 265.997C208.396 272.399 204.8 281.081 204.8 290.133ZM494.933 477.867C494.933 482.393 493.135 486.734 489.935 489.935C486.734 493.135 482.393 494.933 477.867 494.933H238.933C234.407 494.933 230.066 493.135 226.865 489.935C223.665 486.734 221.867 482.393 221.867 477.867V290.133C221.867 285.607 223.665 281.266 226.865 278.065C230.066 274.865 234.407 273.067 238.933 273.067H477.867C482.393 273.067 486.734 274.865 489.935 278.065C493.135 281.266 494.933 285.607 494.933 290.133V477.867Z" fill="url(#paint0_linear_18_1500)"/>
<path d="M443.733 342.187V315.733C443.674 309.508 441.347 303.517 437.19 298.883C433.032 294.249 427.328 291.289 421.146 290.556C414.963 289.824 408.725 291.37 403.6 294.905C398.475 298.439 394.814 303.721 393.301 309.76L339.627 332.8H298.667C293.391 332.822 288.251 334.473 283.949 337.528C279.648 340.583 276.395 344.893 274.637 349.867H264.533C257.744 349.867 251.232 352.564 246.431 357.365C241.63 362.166 238.933 368.677 238.933 375.467V392.533C238.933 399.323 241.63 405.834 246.431 410.635C251.232 415.436 257.744 418.133 264.533 418.133H274.637C275.912 421.702 277.963 424.944 280.643 427.624C283.323 430.304 286.564 432.355 290.133 433.63V460.8C290.133 465.326 291.931 469.667 295.132 472.868C298.333 476.069 302.674 477.867 307.2 477.867H324.267C328.793 477.867 333.134 476.069 336.335 472.868C339.535 469.667 341.333 465.326 341.333 460.8V435.951L393.301 458.223C394.813 464.261 398.473 469.541 403.597 473.076C408.72 476.611 414.956 478.158 421.137 477.428C427.319 476.698 433.023 473.741 437.182 469.11C441.34 464.479 443.67 458.491 443.733 452.267V425.813C453.378 423.855 462.05 418.622 468.278 411.002C474.507 403.381 477.909 393.842 477.909 384C477.909 374.158 474.507 364.619 468.278 356.998C462.05 349.378 453.378 344.145 443.733 342.187ZM349.867 346.948L392.533 328.661V439.33L349.867 421.043V346.948ZM290.133 358.4C290.133 356.137 291.032 353.966 292.633 352.366C294.233 350.766 296.403 349.867 298.667 349.867H332.8V418.133H298.667C296.403 418.133 294.233 417.234 292.633 415.634C291.032 414.034 290.133 411.863 290.133 409.6V358.4ZM256 392.533V375.467C256 373.203 256.899 371.033 258.499 369.433C260.1 367.832 262.27 366.933 264.533 366.933H273.067V401.067H264.533C262.27 401.067 260.1 400.168 258.499 398.567C256.899 396.967 256 394.797 256 392.533ZM307.2 460.8V435.2H324.267V460.8H307.2ZM426.667 452.267C426.667 454.53 425.768 456.7 424.167 458.301C422.567 459.901 420.397 460.8 418.133 460.8C415.87 460.8 413.7 459.901 412.099 458.301C410.499 456.7 409.6 454.53 409.6 452.267V315.733C409.6 313.47 410.499 311.3 412.099 309.699C413.7 308.099 415.87 307.2 418.133 307.2C420.397 307.2 422.567 308.099 424.167 309.699C425.768 311.3 426.667 313.47 426.667 315.733V452.267ZM443.733 408.03V359.97C448.721 361.708 453.045 364.955 456.105 369.261C459.164 373.567 460.808 378.718 460.808 384C460.808 389.282 459.164 394.433 456.105 398.739C453.045 403.045 448.721 406.292 443.733 408.03Z" fill="url(#paint1_linear_18_1500)"/>
<defs>
<linearGradient id="paint0_linear_18_1500" x1="-0.249623" y1="0.124965" x2="625.043" y2="973.453" gradientUnits="userSpaceOnUse">
<stop stop-color="#F0B151"/>
<stop offset="1" stop-color="#DB5E5E"/>
</linearGradient>
<linearGradient id="paint1_linear_18_1500" x1="-0.249623" y1="0.124965" x2="625.043" y2="973.453" gradientUnits="userSpaceOnUse">
<stop stop-color="#F0B151"/>
<stop offset="1" stop-color="#DB5E5E"/>
</linearGradient>
</defs>
</svg>
