<svg width="1725" height="185" viewBox="0 0 1725 185" fill="none" xmlns="http://www.w3.org/2000/svg">
<path d="M384.977 93.8296C384.977 106.519 382.572 117.314 377.761 126.216C372.989 135.117 366.473 141.917 358.216 146.614C349.996 151.273 340.754 153.602 330.489 153.602C320.148 153.602 310.867 151.254 302.648 146.557C294.428 141.86 287.932 135.061 283.159 126.159C278.386 117.258 276 106.481 276 93.8296C276 81.1402 278.386 70.3447 283.159 61.4432C287.932 52.5417 294.428 45.7614 302.648 41.1023C310.867 36.4053 320.148 34.0568 330.489 34.0568C340.754 34.0568 349.996 36.4053 358.216 41.1023C366.473 45.7614 372.989 52.5417 377.761 61.4432C382.572 70.3447 384.977 81.1402 384.977 93.8296ZM360.034 93.8296C360.034 85.6099 358.803 78.678 356.341 73.0341C353.917 67.3902 350.489 63.1099 346.057 60.1932C341.625 57.2765 336.436 55.8182 330.489 55.8182C324.542 55.8182 319.352 57.2765 314.92 60.1932C310.489 63.1099 307.042 67.3902 304.58 73.0341C302.155 78.678 300.943 85.6099 300.943 93.8296C300.943 102.049 302.155 108.981 304.58 114.625C307.042 120.269 310.489 124.549 314.92 127.466C319.352 130.383 324.542 131.841 330.489 131.841C336.436 131.841 341.625 130.383 346.057 127.466C350.489 124.549 353.917 120.269 356.341 114.625C358.803 108.981 360.034 102.049 360.034 93.8296Z" fill="white" fill-opacity="0.04"/>
<path d="M402.747 184.739V64.7386H426.611V79.3977H427.69C428.751 77.0492 430.285 74.6629 432.293 72.2386C434.338 69.7765 436.99 67.7311 440.247 66.1023C443.543 64.4356 447.634 63.6023 452.52 63.6023C458.884 63.6023 464.755 65.2689 470.134 68.6023C475.512 71.8977 479.812 76.8788 483.031 83.5455C486.251 90.1742 487.861 98.4886 487.861 108.489C487.861 118.223 486.289 126.443 483.145 133.148C480.039 139.814 475.796 144.871 470.418 148.318C465.077 151.727 459.092 153.432 452.463 153.432C447.766 153.432 443.77 152.655 440.474 151.102C437.217 149.549 434.546 147.598 432.463 145.25C430.38 142.864 428.789 140.458 427.69 138.034H426.952V184.739H402.747ZM426.44 108.375C426.44 113.564 427.16 118.091 428.599 121.955C430.039 125.818 432.122 128.83 434.849 130.989C437.577 133.11 440.891 134.17 444.793 134.17C448.732 134.17 452.065 133.091 454.793 130.932C457.52 128.735 459.584 125.705 460.986 121.841C462.425 117.939 463.145 113.451 463.145 108.375C463.145 103.337 462.444 98.9053 461.043 95.0796C459.641 91.2538 457.577 88.2614 454.849 86.1023C452.122 83.9432 448.77 82.8636 444.793 82.8636C440.853 82.8636 437.52 83.9053 434.793 85.9886C432.103 88.072 430.039 91.0265 428.599 94.8523C427.16 98.678 426.44 103.186 426.44 108.375Z" fill="white" fill-opacity="0.04"/>
<path d="M543.77 153.716C534.793 153.716 527.065 151.898 520.588 148.261C514.149 144.587 509.187 139.398 505.702 132.693C502.217 125.951 500.474 117.977 500.474 108.773C500.474 99.7955 502.217 91.9167 505.702 85.1364C509.187 78.3561 514.092 73.072 520.418 69.2841C526.781 65.4962 534.243 63.6023 542.804 63.6023C548.562 63.6023 553.921 64.5303 558.884 66.3864C563.884 68.2045 568.24 70.9508 571.952 74.625C575.702 78.2992 578.618 82.9205 580.702 88.4886C582.785 94.0189 583.827 100.496 583.827 107.92V114.568H510.134V99.5682H561.043C561.043 96.0833 560.285 92.9962 558.77 90.3068C557.255 87.6174 555.152 85.5152 552.463 84C549.812 82.447 546.724 81.6705 543.202 81.6705C539.527 81.6705 536.27 82.5227 533.429 84.2273C530.626 85.8939 528.429 88.1477 526.838 90.9886C525.247 93.7917 524.433 96.9167 524.395 100.364V114.625C524.395 118.943 525.19 122.674 526.781 125.818C528.41 128.962 530.702 131.386 533.656 133.091C536.611 134.795 540.115 135.648 544.168 135.648C546.857 135.648 549.319 135.269 551.554 134.511C553.789 133.754 555.702 132.617 557.293 131.102C558.884 129.587 560.096 127.731 560.929 125.534L583.315 127.011C582.179 132.39 579.849 137.087 576.327 141.102C572.842 145.08 568.334 148.186 562.804 150.42C557.312 152.617 550.967 153.716 543.77 153.716Z" fill="white" fill-opacity="0.04"/>
<path d="M623.827 101.557V152.011H599.622V64.7386H622.69V80.1364H623.713C625.645 75.0606 628.884 71.0455 633.429 68.0909C637.974 65.0985 643.486 63.6023 649.963 63.6023C656.024 63.6023 661.308 64.928 665.815 67.5796C670.323 70.2311 673.827 74.0189 676.327 78.9432C678.827 83.8295 680.077 89.6629 680.077 96.4432V152.011H655.872V100.761C655.91 95.4205 654.546 91.2538 651.781 88.2614C649.016 85.2311 645.209 83.7159 640.361 83.7159C637.103 83.7159 634.224 84.4167 631.724 85.8182C629.262 87.2197 627.331 89.2652 625.929 91.9546C624.565 94.6061 623.865 97.8068 623.827 101.557Z" fill="white" fill-opacity="0.04"/>
<path d="M736.639 152.011V35.6477H782.548C791.374 35.6477 798.893 37.3333 805.105 40.7045C811.317 44.0379 816.052 48.678 819.31 54.625C822.605 60.5341 824.253 67.3523 824.253 75.0796C824.253 82.8068 822.586 89.625 819.253 95.5341C815.92 101.443 811.09 106.045 804.764 109.341C798.476 112.636 790.863 114.284 781.923 114.284H752.662V94.5682H777.946C782.681 94.5682 786.582 93.7538 789.651 92.125C792.757 90.4583 795.067 88.1667 796.582 85.25C798.135 82.2955 798.912 78.9053 798.912 75.0796C798.912 71.2159 798.135 67.8447 796.582 64.9659C795.067 62.0492 792.757 59.7955 789.651 58.2045C786.545 56.5758 782.605 55.7614 777.832 55.7614H761.241V152.011H736.639Z" fill="white" fill-opacity="0.04"/>
<path d="M877.804 153.716C868.978 153.716 861.346 151.841 854.906 148.091C848.505 144.303 843.562 139.038 840.077 132.295C836.592 125.515 834.849 117.655 834.849 108.716C834.849 99.7008 836.592 91.822 840.077 85.0796C843.562 78.2992 848.505 73.0341 854.906 69.2841C861.346 65.4962 868.978 63.6023 877.804 63.6023C886.63 63.6023 894.243 65.4962 900.645 69.2841C907.084 73.0341 912.046 78.2992 915.531 85.0796C919.016 91.822 920.759 99.7008 920.759 108.716C920.759 117.655 919.016 125.515 915.531 132.295C912.046 139.038 907.084 144.303 900.645 148.091C894.243 151.841 886.63 153.716 877.804 153.716ZM877.918 134.966C881.933 134.966 885.285 133.83 887.974 131.557C890.664 129.246 892.69 126.102 894.054 122.125C895.455 118.148 896.156 113.621 896.156 108.545C896.156 103.47 895.455 98.9432 894.054 94.9659C892.69 90.9886 890.664 87.8447 887.974 85.5341C885.285 83.2235 881.933 82.0682 877.918 82.0682C873.865 82.0682 870.456 83.2235 867.69 85.5341C864.963 87.8447 862.899 90.9886 861.497 94.9659C860.133 98.9432 859.452 103.47 859.452 108.545C859.452 113.621 860.133 118.148 861.497 122.125C862.899 126.102 864.963 129.246 867.69 131.557C870.456 133.83 873.865 134.966 877.918 134.966Z" fill="white" fill-opacity="0.04"/>
<path d="M1009.11 89.625L986.952 90.9886C986.573 89.0947 985.759 87.3902 984.509 85.875C983.259 84.322 981.611 83.0909 979.565 82.1818C977.558 81.2349 975.152 80.7614 972.349 80.7614C968.599 80.7614 965.437 81.5568 962.861 83.1477C960.285 84.7008 958.997 86.7841 958.997 89.3977C958.997 91.4811 959.83 93.2424 961.497 94.6818C963.164 96.1212 966.024 97.2765 970.077 98.1477L985.872 101.33C994.357 103.072 1000.68 105.875 1004.85 109.739C1009.02 113.602 1011.1 118.678 1011.1 124.966C1011.1 130.686 1009.41 135.705 1006.04 140.023C1002.71 144.341 998.126 147.712 992.293 150.136C986.497 152.523 979.812 153.716 972.236 153.716C960.683 153.716 951.478 151.311 944.622 146.5C937.804 141.652 933.808 135.061 932.634 126.727L956.44 125.477C957.16 129 958.902 131.689 961.668 133.545C964.433 135.364 967.974 136.273 972.293 136.273C976.535 136.273 979.944 135.458 982.52 133.83C985.134 132.163 986.459 130.023 986.497 127.409C986.459 125.212 985.531 123.413 983.713 122.011C981.895 120.572 979.092 119.473 975.304 118.716L960.19 115.705C951.668 114 945.323 111.045 941.156 106.841C937.027 102.636 934.963 97.2765 934.963 90.7614C934.963 85.1553 936.478 80.3258 939.509 76.2727C942.577 72.2197 946.876 69.0947 952.406 66.8977C957.974 64.7008 964.49 63.6023 971.952 63.6023C982.974 63.6023 991.649 65.9318 997.974 70.5909C1004.34 75.25 1008.05 81.5947 1009.11 89.625Z" fill="white" fill-opacity="0.04"/>
<path d="M1026.34 152.011V64.7386H1050.55V152.011H1026.34ZM1038.5 53.4886C1034.9 53.4886 1031.81 52.2955 1029.24 49.9091C1026.7 47.4848 1025.43 44.5871 1025.43 41.2159C1025.43 37.8826 1026.7 35.0227 1029.24 32.6364C1031.81 30.2121 1034.9 29 1038.5 29C1042.1 29 1045.17 30.2121 1047.7 32.6364C1050.28 35.0227 1051.57 37.8826 1051.57 41.2159C1051.57 44.5871 1050.28 47.4848 1047.7 49.9091C1045.17 52.2955 1042.1 53.4886 1038.5 53.4886Z" fill="white" fill-opacity="0.04"/>
<path d="M1116.36 64.7386V82.9205H1063.8V64.7386H1116.36ZM1075.73 43.8295H1099.93V125.193C1099.93 127.428 1100.28 129.17 1100.96 130.42C1101.64 131.633 1102.59 132.485 1103.8 132.977C1105.05 133.47 1106.49 133.716 1108.12 133.716C1109.25 133.716 1110.39 133.621 1111.53 133.432C1112.66 133.205 1113.53 133.034 1114.14 132.92L1117.95 150.932C1116.73 151.311 1115.03 151.746 1112.83 152.239C1110.64 152.769 1107.96 153.091 1104.82 153.205C1098.99 153.432 1093.87 152.655 1089.48 150.875C1085.12 149.095 1081.73 146.33 1079.31 142.58C1076.89 138.83 1075.69 134.095 1075.73 128.375V43.8295Z" fill="white" fill-opacity="0.04"/>
<path d="M1132.12 152.011V64.7386H1156.33V152.011H1132.12ZM1144.28 53.4886C1140.68 53.4886 1137.6 52.2955 1135.02 49.9091C1132.48 47.4848 1131.21 44.5871 1131.21 41.2159C1131.21 37.8826 1132.48 35.0227 1135.02 32.6364C1137.6 30.2121 1140.68 29 1144.28 29C1147.88 29 1150.95 30.2121 1153.49 32.6364C1156.06 35.0227 1157.35 37.8826 1157.35 41.2159C1157.35 44.5871 1156.06 47.4848 1153.49 49.9091C1150.95 52.2955 1147.88 53.4886 1144.28 53.4886Z" fill="white" fill-opacity="0.04"/>
<path d="M1215.15 153.716C1206.32 153.716 1198.69 151.841 1192.25 148.091C1185.85 144.303 1180.91 139.038 1177.42 132.295C1173.94 125.515 1172.19 117.655 1172.19 108.716C1172.19 99.7008 1173.94 91.822 1177.42 85.0796C1180.91 78.2992 1185.85 73.0341 1192.25 69.2841C1198.69 65.4962 1206.32 63.6023 1215.15 63.6023C1223.97 63.6023 1231.59 65.4962 1237.99 69.2841C1244.43 73.0341 1249.39 78.2992 1252.88 85.0796C1256.36 91.822 1258.1 99.7008 1258.1 108.716C1258.1 117.655 1256.36 125.515 1252.88 132.295C1249.39 139.038 1244.43 144.303 1237.99 148.091C1231.59 151.841 1223.97 153.716 1215.15 153.716ZM1215.26 134.966C1219.28 134.966 1222.63 133.83 1225.32 131.557C1228.01 129.246 1230.03 126.102 1231.4 122.125C1232.8 118.148 1233.5 113.621 1233.5 108.545C1233.5 103.47 1232.8 98.9432 1231.4 94.9659C1230.03 90.9886 1228.01 87.8447 1225.32 85.5341C1222.63 83.2235 1219.28 82.0682 1215.26 82.0682C1211.21 82.0682 1207.8 83.2235 1205.03 85.5341C1202.31 87.8447 1200.24 90.9886 1198.84 94.9659C1197.48 98.9432 1196.8 103.47 1196.8 108.545C1196.8 113.621 1197.48 118.148 1198.84 122.125C1200.24 126.102 1202.31 129.246 1205.03 131.557C1207.8 133.83 1211.21 134.966 1215.26 134.966Z" fill="white" fill-opacity="0.04"/>
<path d="M1298.05 101.557V152.011H1273.84V64.7386H1296.91V80.1364H1297.93C1299.86 75.0606 1303.1 71.0455 1307.65 68.0909C1312.19 65.0985 1317.7 63.6023 1324.18 63.6023C1330.24 63.6023 1335.53 64.928 1340.03 67.5796C1344.54 70.2311 1348.05 74.0189 1350.55 78.9432C1353.05 83.8295 1354.3 89.6629 1354.3 96.4432V152.011H1330.09V100.761C1330.13 95.4205 1328.77 91.2538 1326 88.2614C1323.23 85.2311 1319.43 83.7159 1314.58 83.7159C1311.32 83.7159 1308.44 84.4167 1305.94 85.8182C1303.48 87.2197 1301.55 89.2652 1300.15 91.9546C1298.78 94.6061 1298.08 97.8068 1298.05 101.557Z" fill="white" fill-opacity="0.04"/>
<path d="M1445.99 89.625L1423.83 90.9886C1423.45 89.0947 1422.63 87.3902 1421.38 85.875C1420.13 84.322 1418.49 83.0909 1416.44 82.1818C1414.43 81.2349 1412.03 80.7614 1409.22 80.7614C1405.47 80.7614 1402.31 81.5568 1399.74 83.1477C1397.16 84.7008 1395.87 86.7841 1395.87 89.3977C1395.87 91.4811 1396.71 93.2424 1398.37 94.6818C1400.04 96.1212 1402.9 97.2765 1406.95 98.1477L1422.75 101.33C1431.23 103.072 1437.56 105.875 1441.72 109.739C1445.89 113.602 1447.97 118.678 1447.97 124.966C1447.97 130.686 1446.29 135.705 1442.92 140.023C1439.58 144.341 1435 147.712 1429.17 150.136C1423.37 152.523 1416.69 153.716 1409.11 153.716C1397.56 153.716 1388.35 151.311 1381.5 146.5C1374.68 141.652 1370.68 135.061 1369.51 126.727L1393.32 125.477C1394.04 129 1395.78 131.689 1398.54 133.545C1401.31 135.364 1404.85 136.273 1409.17 136.273C1413.41 136.273 1416.82 135.458 1419.39 133.83C1422.01 132.163 1423.33 130.023 1423.37 127.409C1423.33 125.212 1422.41 123.413 1420.59 122.011C1418.77 120.572 1415.97 119.473 1412.18 118.716L1397.07 115.705C1388.54 114 1382.2 111.045 1378.03 106.841C1373.9 102.636 1371.84 97.2765 1371.84 90.7614C1371.84 85.1553 1373.35 80.3258 1376.38 76.2727C1379.45 72.2197 1383.75 69.0947 1389.28 66.8977C1394.85 64.7008 1401.36 63.6023 1408.83 63.6023C1419.85 63.6023 1428.52 65.9318 1434.85 70.5909C1441.21 75.25 1444.93 81.5947 1445.99 89.625Z" fill="white" fill-opacity="0.04"/>
</svg>
