<svg width="342" height="513" viewBox="0 0 342 513" fill="none" xmlns="http://www.w3.org/2000/svg">
<path d="M341.667 170.667C341.667 125.403 323.686 81.9933 291.68 49.9871C259.673 17.9809 216.264 0 171 0C125.736 0 82.3267 17.9809 50.3205 49.9871C18.3143 81.9933 0.333351 125.403 0.333351 170.667C0.243114 193.496 4.78037 216.107 13.6712 237.134C22.562 258.162 35.6219 277.169 52.0624 293.009C76.8048 317.793 91.6541 350.753 93.8245 385.707C89.9084 387.136 86.4045 389.507 83.6226 392.612C80.8408 395.717 78.8666 399.459 77.8746 403.508C76.8826 407.557 76.9033 411.788 77.9349 415.827C78.9665 419.866 80.9772 423.589 83.7894 426.667C80.4525 430.325 78.2533 434.875 77.4604 439.763C76.6675 444.65 77.3153 449.663 79.3245 454.188C81.3337 458.713 84.6175 462.555 88.7746 465.245C92.9317 467.935 97.7821 469.355 102.733 469.333H105.541C111.139 482.027 120.308 492.819 131.93 500.395C143.552 507.972 157.127 512.005 171 512.005C184.874 512.005 198.448 507.972 210.07 500.395C221.692 492.819 230.861 482.027 236.459 469.333H239.267C244.218 469.355 249.068 467.935 253.225 465.245C257.383 462.555 260.666 458.713 262.676 454.188C264.685 449.663 265.333 444.65 264.54 439.763C263.747 434.875 261.548 430.325 258.211 426.667C261.023 423.589 263.034 419.866 264.065 415.827C265.097 411.788 265.117 407.557 264.125 403.508C263.133 399.459 261.159 395.717 258.377 392.612C255.596 389.507 252.092 387.136 248.175 385.707C250.349 350.763 265.195 317.813 289.929 293.035C306.374 277.193 319.438 258.181 328.33 237.149C337.222 216.117 341.759 193.501 341.667 170.667ZM196.6 204.8V349.867H179.533V204.8H196.6ZM150.691 187.733L169.66 154.351C169.791 154.112 169.984 153.914 170.218 153.775C170.452 153.637 170.719 153.563 170.992 153.563C171.264 153.563 171.531 153.637 171.765 153.775C171.999 153.914 172.192 154.112 172.323 154.351L191.309 187.733H150.691ZM145.4 204.8H162.467V349.867H145.4V204.8ZM145.4 366.933H196.6V384H145.4V366.933ZM239.267 401.067C241.53 401.067 243.7 401.966 245.301 403.566C246.901 405.166 247.8 407.337 247.8 409.6C247.8 411.863 246.901 414.034 245.301 415.634C243.7 417.234 241.53 418.133 239.267 418.133H102.733C100.47 418.133 98.2997 417.234 96.6994 415.634C95.0991 414.034 94.2 411.863 94.2 409.6C94.2 407.337 95.0991 405.166 96.6994 403.566C98.2997 401.966 100.47 401.067 102.733 401.067H239.267ZM171 494.933C161.734 494.95 152.616 492.61 144.504 488.131C136.392 483.653 129.553 477.184 124.63 469.333H217.37C212.448 477.184 205.608 483.653 197.496 488.131C189.384 492.61 180.266 494.95 171 494.933ZM239.267 452.267H102.733C100.47 452.267 98.2997 451.368 96.6994 449.767C95.0991 448.167 94.2 445.997 94.2 443.733C94.2 441.47 95.0991 439.3 96.6994 437.699C98.2997 436.099 100.47 435.2 102.733 435.2H239.267C241.53 435.2 243.7 436.099 245.301 437.699C246.901 439.3 247.8 441.47 247.8 443.733C247.8 445.997 246.901 448.167 245.301 449.767C243.7 451.368 241.53 452.267 239.267 452.267ZM231.186 384H213.667V201.463C213.615 195.551 212.062 189.749 209.153 184.602L187.145 145.852C185.522 142.999 183.172 140.627 180.335 138.977C177.497 137.327 174.274 136.458 170.992 136.458C167.709 136.458 164.486 137.327 161.648 138.977C158.811 140.627 156.461 142.999 154.838 145.852L132.83 184.585C129.887 189.723 128.336 195.541 128.333 201.463V384H110.814C108.404 344.996 91.7257 308.243 63.9579 280.747C49.1645 266.494 37.4123 249.392 29.4104 230.473C21.4085 211.553 17.3228 191.209 17.4 170.667C17.4 129.929 33.5828 90.8607 62.3884 62.0551C91.194 33.2495 130.263 17.0667 171 17.0667C211.737 17.0667 250.806 33.2495 279.612 62.0551C308.417 90.8607 324.6 129.929 324.6 170.667C324.676 191.209 320.588 211.554 312.585 230.473C304.582 249.393 292.828 266.495 278.034 280.747C250.268 308.244 233.593 344.997 231.186 384Z" fill="url(#paint0_linear_15_1422)"/>
<path d="M171 34.1333C134.802 34.1762 100.099 48.5747 74.5038 74.1704C48.9081 99.7661 34.5096 134.469 34.4667 170.667C34.4667 172.93 35.3657 175.1 36.966 176.701C38.5664 178.301 40.7368 179.2 43 179.2C45.2632 179.2 47.4337 178.301 49.034 176.701C50.6343 175.1 51.5333 172.93 51.5333 170.667C51.5695 138.993 64.1677 108.627 86.5642 86.2309C108.961 63.8344 139.327 51.2361 171 51.2C173.263 51.2 175.434 50.301 177.034 48.7006C178.634 47.1003 179.533 44.9299 179.533 42.6667C179.533 40.4035 178.634 38.233 177.034 36.6327C175.434 35.0324 173.263 34.1333 171 34.1333Z" fill="url(#paint1_linear_15_1422)"/>
<defs>
<linearGradient id="paint0_linear_15_1422" x1="257.756" y1="395.204" x2="12.4578" y2="181.299" gradientUnits="userSpaceOnUse">
<stop stop-color="#B41F3E"/>
<stop offset="1" stop-color="#711972"/>
</linearGradient>
<linearGradient id="paint1_linear_15_1422" x1="257.756" y1="395.204" x2="12.4578" y2="181.299" gradientUnits="userSpaceOnUse">
<stop stop-color="#B41F3E"/>
<stop offset="1" stop-color="#711972"/>
</linearGradient>
</defs>
</svg>
