<svg width="512" height="512" viewBox="0 0 512 512" fill="none" xmlns="http://www.w3.org/2000/svg">
<path d="M365.969 327.509C364.852 324.029 362.779 320.934 359.986 318.576C357.192 316.219 353.792 314.696 350.174 314.18L297.267 306.5L273.587 258.432C271.975 255.152 269.476 252.389 266.374 250.457C263.271 248.525 259.689 247.5 256.034 247.5C252.379 247.5 248.797 248.525 245.695 250.457C242.592 252.389 240.093 255.152 238.481 258.432L214.801 306.509L161.894 314.189C158.286 314.727 154.898 316.261 152.113 318.618C149.327 320.975 147.254 324.062 146.126 327.532C144.998 331.002 144.859 334.717 145.725 338.262C146.592 341.806 148.429 345.039 151.031 347.597L189.363 385.024L180.318 437.879C179.695 441.48 180.093 445.182 181.467 448.568C182.84 451.954 185.134 454.887 188.089 457.037C191.044 459.186 194.541 460.465 198.185 460.729C201.829 460.993 205.475 460.231 208.708 458.53L256 433.579L303.351 458.522C306.585 460.223 310.23 460.984 313.874 460.72C317.519 460.456 321.016 459.177 323.971 457.028C326.926 454.879 329.22 451.945 330.593 448.56C331.966 445.174 332.364 441.471 331.742 437.871L322.697 385.015L361.02 347.588C363.646 345.043 365.503 341.811 366.379 338.26C367.254 334.709 367.112 330.983 365.969 327.509ZM349.099 335.36L307.575 375.919C306.587 376.884 305.848 378.075 305.421 379.389C304.995 380.703 304.894 382.101 305.126 383.462L314.923 440.738C315.006 441.2 314.958 441.675 314.785 442.111C314.611 442.547 314.319 442.925 313.941 443.203C313.564 443.482 313.116 443.648 312.648 443.685C312.181 443.721 311.712 443.626 311.296 443.409L259.977 416.427C258.751 415.781 257.386 415.443 256 415.443C254.614 415.443 253.249 415.781 252.023 416.427L200.704 443.426C200.288 443.643 199.819 443.738 199.352 443.702C198.884 443.665 198.436 443.499 198.059 443.221C197.681 442.942 197.389 442.564 197.215 442.128C197.042 441.692 196.994 441.217 197.077 440.755L206.874 383.479C207.106 382.118 207.005 380.72 206.579 379.406C206.152 378.092 205.413 376.901 204.425 375.936L162.901 335.36C162.576 335.026 162.348 334.611 162.241 334.157C162.135 333.703 162.154 333.229 162.298 332.786C162.441 332.343 162.702 331.947 163.054 331.641C163.405 331.335 163.833 331.131 164.292 331.051L221.679 322.688C223.046 322.489 224.344 321.961 225.462 321.149C226.579 320.338 227.483 319.267 228.096 318.029L253.764 265.916C254.899 263.603 257.101 263.603 258.236 265.916L283.904 318.02C284.517 319.258 285.421 320.329 286.538 321.141C287.656 321.952 288.954 322.48 290.321 322.679L347.716 331.042C348.175 331.124 348.602 331.329 348.952 331.635C349.303 331.941 349.563 332.337 349.705 332.78C349.847 333.224 349.866 333.697 349.759 334.15C349.652 334.603 349.424 335.019 349.099 335.351V335.36Z" fill="url(#paint0_linear_15_1423)"/>
<path d="M477.867 0H34.1333C25.0806 0 16.3987 3.59618 9.99742 9.99742C3.59618 16.3987 0 25.0806 0 34.1333V401.067C0 410.119 3.59618 418.801 9.99742 425.203C16.3987 431.604 25.0806 435.2 34.1333 435.2H123.187C136.623 458.543 155.974 477.933 179.291 491.416C202.608 504.898 229.066 511.997 256 511.997C282.934 511.997 309.392 504.898 332.709 491.416C356.026 477.933 375.377 458.543 388.813 435.2H477.867C486.919 435.2 495.601 431.604 502.003 425.203C508.404 418.801 512 410.119 512 401.067V34.1333C512 25.0806 508.404 16.3987 502.003 9.99742C495.601 3.59618 486.919 0 477.867 0ZM34.1333 17.0667H477.867C482.393 17.0667 486.734 18.8648 489.935 22.0654C493.135 25.266 494.933 29.607 494.933 34.1333V68.2667H17.0667V34.1333C17.0667 29.607 18.8648 25.266 22.0654 22.0654C25.266 18.8648 29.607 17.0667 34.1333 17.0667ZM256 494.933C228.996 494.933 202.599 486.926 180.146 471.923C157.693 456.921 140.194 435.597 129.86 410.649C119.526 385.701 116.822 358.249 122.09 331.764C127.358 305.279 140.362 280.951 159.456 261.856C178.551 242.762 202.879 229.758 229.364 224.49C255.849 219.222 283.301 221.926 308.249 232.26C333.197 242.594 354.521 260.093 369.523 282.546C384.526 304.999 392.533 331.396 392.533 358.4C392.49 394.598 378.092 429.301 352.496 454.896C326.901 480.492 292.198 494.89 256 494.933ZM351.497 238.31C341.206 230.102 329.904 223.251 317.867 217.924L355.729 119.467H384.742C386.125 119.474 387.485 119.818 388.705 120.467C389.925 121.117 390.97 122.054 391.748 123.196C392.526 124.339 393.015 125.653 393.173 127.027C393.33 128.4 393.152 129.791 392.653 131.081L351.497 238.31ZM210.082 211.857L194.253 170.667H317.747L301.918 211.823C272.022 202.458 239.978 202.458 210.082 211.823V211.857ZM324.309 153.6H187.733L174.601 119.467H337.442L324.309 153.6ZM156.271 119.467L194.133 217.924C182.096 223.251 170.794 230.102 160.503 238.31L119.305 131.046C118.812 129.758 118.639 128.369 118.801 126.998C118.963 125.628 119.455 124.318 120.234 123.179C121.014 122.041 122.057 121.108 123.276 120.462C124.495 119.815 125.852 119.474 127.232 119.467H156.271ZM477.867 418.133H397.508C409.34 390.119 412.575 359.219 406.801 329.361C401.027 299.503 386.505 272.037 365.082 250.453L408.559 137.233C410.056 133.361 410.589 129.183 410.113 125.059C409.636 120.935 408.163 116.989 405.822 113.561C403.48 110.133 400.341 107.326 396.673 105.382C393.005 103.437 388.919 102.414 384.768 102.4H127.232C123.081 102.408 118.993 103.425 115.323 105.364C111.652 107.303 108.508 110.106 106.161 113.531C103.815 116.955 102.337 120.899 101.854 125.023C101.371 129.146 101.898 133.325 103.39 137.199L146.91 250.453C125.488 272.038 110.967 299.505 105.195 329.362C99.4225 359.22 102.659 390.12 114.492 418.133H34.1333C29.607 418.133 25.266 416.335 22.0654 413.135C18.8648 409.934 17.0667 405.593 17.0667 401.067V85.3333H494.933V401.067C494.933 405.593 493.135 409.934 489.935 413.135C486.734 416.335 482.393 418.133 477.867 418.133Z" fill="url(#paint1_linear_15_1423)"/>
<path d="M42.6667 51.2H51.2C53.4632 51.2 55.6337 50.3009 57.234 48.7006C58.8343 47.1003 59.7333 44.9298 59.7333 42.6667C59.7333 40.4035 58.8343 38.233 57.234 36.6327C55.6337 35.0324 53.4632 34.1333 51.2 34.1333H42.6667C40.4035 34.1333 38.233 35.0324 36.6327 36.6327C35.0324 38.233 34.1333 40.4035 34.1333 42.6667C34.1333 44.9298 35.0324 47.1003 36.6327 48.7006C38.233 50.3009 40.4035 51.2 42.6667 51.2Z" fill="url(#paint2_linear_15_1423)"/>
<path d="M85.3333 51.2H93.8667C96.1298 51.2 98.3003 50.3009 99.9006 48.7006C101.501 47.1003 102.4 44.9298 102.4 42.6667C102.4 40.4035 101.501 38.233 99.9006 36.6327C98.3003 35.0324 96.1298 34.1333 93.8667 34.1333H85.3333C83.0701 34.1333 80.8997 35.0324 79.2993 36.6327C77.699 38.233 76.8 40.4035 76.8 42.6667C76.8 44.9298 77.699 47.1003 79.2993 48.7006C80.8997 50.3009 83.0701 51.2 85.3333 51.2Z" fill="url(#paint3_linear_15_1423)"/>
<path d="M128 51.2H136.533C138.797 51.2 140.967 50.3009 142.567 48.7006C144.168 47.1003 145.067 44.9298 145.067 42.6667C145.067 40.4035 144.168 38.233 142.567 36.6327C140.967 35.0324 138.797 34.1333 136.533 34.1333H128C125.737 34.1333 123.566 35.0324 121.966 36.6327C120.366 38.233 119.467 40.4035 119.467 42.6667C119.467 44.9298 120.366 47.1003 121.966 48.7006C123.566 50.3009 125.737 51.2 128 51.2Z" fill="url(#paint4_linear_15_1423)"/>
<path d="M418.133 51.2H469.333C471.597 51.2 473.767 50.3009 475.367 48.7006C476.968 47.1003 477.867 44.9298 477.867 42.6667C477.867 40.4035 476.968 38.233 475.367 36.6327C473.767 35.0324 471.597 34.1333 469.333 34.1333H418.133C415.87 34.1333 413.7 35.0324 412.099 36.6327C410.499 38.233 409.6 40.4035 409.6 42.6667C409.6 44.9298 410.499 47.1003 412.099 48.7006C413.7 50.3009 415.87 51.2 418.133 51.2Z" fill="url(#paint5_linear_15_1423)"/>
<defs>
<linearGradient id="paint0_linear_15_1423" x1="386.133" y1="395.198" x2="147.202" y2="82.665" gradientUnits="userSpaceOnUse">
<stop stop-color="#B41F3E"/>
<stop offset="1" stop-color="#711972"/>
</linearGradient>
<linearGradient id="paint1_linear_15_1423" x1="386.133" y1="395.198" x2="147.202" y2="82.665" gradientUnits="userSpaceOnUse">
<stop stop-color="#B41F3E"/>
<stop offset="1" stop-color="#711972"/>
</linearGradient>
<linearGradient id="paint2_linear_15_1423" x1="386.133" y1="395.198" x2="147.202" y2="82.665" gradientUnits="userSpaceOnUse">
<stop stop-color="#B41F3E"/>
<stop offset="1" stop-color="#711972"/>
</linearGradient>
<linearGradient id="paint3_linear_15_1423" x1="386.133" y1="395.198" x2="147.202" y2="82.665" gradientUnits="userSpaceOnUse">
<stop stop-color="#B41F3E"/>
<stop offset="1" stop-color="#711972"/>
</linearGradient>
<linearGradient id="paint4_linear_15_1423" x1="386.133" y1="395.198" x2="147.202" y2="82.665" gradientUnits="userSpaceOnUse">
<stop stop-color="#B41F3E"/>
<stop offset="1" stop-color="#711972"/>
</linearGradient>
<linearGradient id="paint5_linear_15_1423" x1="386.133" y1="395.198" x2="147.202" y2="82.665" gradientUnits="userSpaceOnUse">
<stop stop-color="#B41F3E"/>
<stop offset="1" stop-color="#711972"/>
</linearGradient>
</defs>
</svg>
