<svg width="512" height="513" viewBox="0 0 512 513" fill="none" xmlns="http://www.w3.org/2000/svg">
<path d="M34.1333 426.667H136.533V486.4C136.533 493.19 139.23 499.701 144.031 504.502C148.832 509.303 155.344 512 162.133 512H213.333C218.609 511.978 223.749 510.327 228.051 507.272C232.352 504.217 235.605 499.908 237.363 494.933H256C276.798 494.058 297.569 497.228 317.158 504.269C330.227 509.526 344.204 512.153 358.289 512H463.846C471.392 512.099 478.712 509.422 484.414 504.48C490.117 499.537 493.806 492.672 494.78 485.188C495.514 477.853 493.528 470.504 489.199 464.538C493.08 462.193 496.37 458.989 498.817 455.172C501.264 451.355 502.802 447.027 503.313 442.522C504.048 435.187 502.061 427.837 497.732 421.871C501.613 419.526 504.904 416.322 507.351 412.505C509.798 408.688 511.336 404.36 511.846 399.855C512.266 395.69 511.81 391.484 510.508 387.506C509.206 383.528 507.086 379.866 504.286 376.755C503.885 376.32 503.433 375.902 503.04 375.467C503.467 375.049 503.893 374.613 504.286 374.178C507.087 371.066 509.207 367.403 510.509 363.423C511.811 359.444 512.266 355.236 511.846 351.07C510.87 343.588 507.181 336.725 501.479 331.784C495.776 326.843 488.458 324.168 480.913 324.267H460.8V34.1333C460.8 25.0806 457.204 16.3987 450.803 9.99742C444.401 3.59618 435.719 0 426.667 0H34.1333C25.0806 0 16.3987 3.59618 9.99742 9.99742C3.59618 16.3987 0 25.0806 0 34.1333V392.533C0 401.586 3.59618 410.268 9.99742 416.669C16.3987 423.07 25.0806 426.667 34.1333 426.667ZM221.867 486.4C221.867 488.663 220.968 490.834 219.367 492.434C217.767 494.034 215.597 494.933 213.333 494.933H162.133C159.87 494.933 157.7 494.034 156.099 492.434C154.499 490.834 153.6 488.663 153.6 486.4V349.867C153.6 347.604 154.499 345.433 156.099 343.833C157.7 342.232 159.87 341.333 162.133 341.333H213.333C215.597 341.333 217.767 342.232 219.367 343.833C220.968 345.433 221.867 347.604 221.867 349.867V486.4ZM494.865 352.759C495.058 354.546 494.872 356.354 494.32 358.064C493.768 359.775 492.862 361.35 491.661 362.687C490.46 364.024 488.991 365.093 487.35 365.825C485.708 366.556 483.931 366.934 482.133 366.933C479.87 366.933 477.7 367.832 476.099 369.433C474.499 371.033 473.6 373.203 473.6 375.467C473.6 377.73 474.499 379.9 476.099 381.501C477.7 383.101 479.87 384 482.133 384C483.932 383.996 485.711 384.371 487.355 385.1C489 385.83 490.471 386.898 491.675 388.234C492.879 389.571 493.787 391.146 494.341 392.857C494.895 394.568 495.083 396.377 494.891 398.165C494.363 401.451 492.649 404.43 490.073 406.537C487.497 408.644 484.238 409.734 480.913 409.6H473.6C471.337 409.6 469.166 410.499 467.566 412.099C465.966 413.7 465.067 415.87 465.067 418.133C465.067 420.397 465.966 422.567 467.566 424.167C469.166 425.768 471.337 426.667 473.6 426.667C475.399 426.662 477.178 427.037 478.822 427.767C480.466 428.496 481.938 429.564 483.142 430.901C484.345 432.237 485.254 433.812 485.808 435.524C486.362 437.235 486.549 439.044 486.357 440.832C485.83 444.118 484.116 447.096 481.54 449.204C478.964 451.311 475.705 452.401 472.38 452.267H465.067C462.803 452.267 460.633 453.166 459.033 454.766C457.432 456.366 456.533 458.537 456.533 460.8C456.533 463.063 457.432 465.234 459.033 466.834C460.633 468.434 462.803 469.333 465.067 469.333C466.865 469.329 468.645 469.704 470.289 470.434C471.933 471.163 473.405 472.231 474.608 473.567C475.812 474.904 476.721 476.479 477.275 478.19C477.829 479.902 478.016 481.71 477.824 483.499C477.296 486.785 475.582 489.763 473.007 491.87C470.431 493.978 467.172 495.067 463.846 494.933H358.289C346.445 495.086 334.686 492.902 323.686 488.508C302.03 480.595 279.039 476.981 256 477.867H238.933V358.4H251.136C264.907 358.421 278.508 355.353 290.937 349.422C303.366 343.491 314.306 334.849 322.953 324.13C343.073 298.655 361.745 272.069 378.88 244.497C380.503 241.932 383.036 240.075 385.97 239.299C388.905 238.523 392.025 238.885 394.704 240.312C397.383 241.739 399.423 244.125 400.417 246.994C401.41 249.862 401.283 253 400.06 255.778C397.363 261.914 394.368 269.022 391.177 276.557C383.838 293.922 375.518 313.609 367.838 328.986C367.188 330.286 366.881 331.731 366.947 333.184C367.012 334.636 367.447 336.048 368.212 337.285C368.976 338.522 370.044 339.543 371.313 340.252C372.583 340.96 374.013 341.333 375.467 341.333H480.913C484.233 341.206 487.485 342.297 490.055 344.402C492.625 346.507 494.336 349.48 494.865 352.759ZM324.267 290.133C322.004 290.133 319.833 289.234 318.233 287.634C316.632 286.034 315.733 283.863 315.733 281.6V247.467C315.733 245.203 316.632 243.033 318.233 241.433C319.833 239.832 322.004 238.933 324.267 238.933H362.163C349.158 259.191 338.005 275.686 327.467 290.133H324.267ZM389.018 324.267C395.11 311.083 401.28 296.474 406.895 283.204C410.044 275.738 413.013 268.698 415.684 262.622C417.874 257.632 418.617 252.126 417.828 246.734C417.039 241.341 414.75 236.279 411.222 232.126C407.694 227.972 403.069 224.894 397.875 223.243C392.682 221.592 387.129 221.434 381.85 222.788C379.771 222.206 377.625 221.897 375.467 221.867H324.267C317.477 221.867 310.966 224.564 306.165 229.365C301.364 234.166 298.667 240.677 298.667 247.467V281.6C298.683 286.89 300.341 292.044 303.412 296.351C306.483 300.659 310.815 303.907 315.81 305.647C313.762 308.292 311.711 310.886 309.658 313.429C302.604 322.16 293.684 329.199 283.552 334.028C273.42 338.857 262.334 341.353 251.11 341.333H237.363C235.605 336.359 232.352 332.05 228.051 328.995C223.749 325.94 218.609 324.289 213.333 324.267H162.133C155.344 324.267 148.832 326.964 144.031 331.765C139.23 336.566 136.533 343.077 136.533 349.867V409.6H34.1333C29.607 409.6 25.266 407.802 22.0654 404.601C18.8648 401.401 17.0667 397.06 17.0667 392.533V85.3333H443.733V324.267H389.018ZM34.1333 17.0667H426.667C431.193 17.0667 435.534 18.8648 438.735 22.0654C441.935 25.266 443.733 29.607 443.733 34.1333V68.2667H17.0667V34.1333C17.0667 29.607 18.8648 25.266 22.0654 22.0654C25.266 18.8648 29.607 17.0667 34.1333 17.0667Z" fill="url(#paint0_linear_15_1425)"/>
<path d="M392.533 102.4H68.2667C61.4771 102.4 54.9657 105.097 50.1647 109.898C45.3638 114.699 42.6667 121.21 42.6667 128V179.2C42.6667 185.99 45.3638 192.501 50.1647 197.302C54.9657 202.103 61.4771 204.8 68.2667 204.8H392.533C399.323 204.8 405.834 202.103 410.635 197.302C415.436 192.501 418.133 185.99 418.133 179.2V128C418.133 121.21 415.436 114.699 410.635 109.898C405.834 105.097 399.323 102.4 392.533 102.4ZM401.067 128V179.2C401.029 180.666 400.606 182.097 399.838 183.347L118.707 119.467H392.533C394.797 119.467 396.967 120.366 398.567 121.966C400.168 123.566 401.067 125.737 401.067 128ZM59.7333 179.2V128C59.7705 126.533 60.1944 125.103 60.9621 123.853L342.093 187.733H68.2667C66.0035 187.733 63.833 186.834 62.2327 185.234C60.6324 183.634 59.7333 181.463 59.7333 179.2Z" fill="url(#paint1_linear_15_1425)"/>
<path d="M136.533 221.867H85.3333C78.5438 221.867 72.0323 224.564 67.2314 229.365C62.4305 234.166 59.7333 240.677 59.7333 247.467V281.6C59.7333 288.39 62.4305 294.901 67.2314 299.702C72.0323 304.503 78.5438 307.2 85.3333 307.2H136.533C143.323 307.2 149.834 304.503 154.635 299.702C159.436 294.901 162.133 288.39 162.133 281.6V247.467C162.133 240.677 159.436 234.166 154.635 229.365C149.834 224.564 143.323 221.867 136.533 221.867ZM145.067 281.6C145.067 283.863 144.168 286.034 142.567 287.634C140.967 289.234 138.797 290.133 136.533 290.133H85.3333C83.0701 290.133 80.8997 289.234 79.2993 287.634C77.699 286.034 76.8 283.863 76.8 281.6V247.467C76.8 245.203 77.699 243.033 79.2993 241.433C80.8997 239.832 83.0701 238.933 85.3333 238.933H136.533C138.797 238.933 140.967 239.832 142.567 241.433C144.168 243.033 145.067 245.203 145.067 247.467V281.6Z" fill="url(#paint2_linear_15_1425)"/>
<path d="M256 221.867H204.8C198.01 221.867 191.499 224.564 186.698 229.365C181.897 234.166 179.2 240.677 179.2 247.467V281.6C179.2 288.39 181.897 294.901 186.698 299.702C191.499 304.503 198.01 307.2 204.8 307.2H256C262.79 307.2 269.301 304.503 274.102 299.702C278.903 294.901 281.6 288.39 281.6 281.6V247.467C281.6 240.677 278.903 234.166 274.102 229.365C269.301 224.564 262.79 221.867 256 221.867ZM264.533 281.6C264.533 283.863 263.634 286.034 262.034 287.634C260.434 289.234 258.263 290.133 256 290.133H204.8C202.537 290.133 200.366 289.234 198.766 287.634C197.166 286.034 196.267 283.863 196.267 281.6V247.467C196.267 245.203 197.166 243.033 198.766 241.433C200.366 239.832 202.537 238.933 204.8 238.933H256C258.263 238.933 260.434 239.832 262.034 241.433C263.634 243.033 264.533 245.203 264.533 247.467V281.6Z" fill="url(#paint3_linear_15_1425)"/>
<path d="M42.6667 51.2H51.2C53.4632 51.2 55.6337 50.3009 57.234 48.7006C58.8343 47.1003 59.7333 44.9298 59.7333 42.6667C59.7333 40.4035 58.8343 38.233 57.234 36.6327C55.6337 35.0324 53.4632 34.1333 51.2 34.1333H42.6667C40.4035 34.1333 38.233 35.0324 36.6327 36.6327C35.0324 38.233 34.1333 40.4035 34.1333 42.6667C34.1333 44.9298 35.0324 47.1003 36.6327 48.7006C38.233 50.3009 40.4035 51.2 42.6667 51.2Z" fill="url(#paint4_linear_15_1425)"/>
<path d="M85.3333 51.2H93.8667C96.1298 51.2 98.3003 50.3009 99.9006 48.7006C101.501 47.1003 102.4 44.9298 102.4 42.6667C102.4 40.4035 101.501 38.233 99.9006 36.6327C98.3003 35.0324 96.1298 34.1333 93.8667 34.1333H85.3333C83.0701 34.1333 80.8997 35.0324 79.2993 36.6327C77.699 38.233 76.8 40.4035 76.8 42.6667C76.8 44.9298 77.699 47.1003 79.2993 48.7006C80.8997 50.3009 83.0701 51.2 85.3333 51.2Z" fill="url(#paint5_linear_15_1425)"/>
<path d="M128 51.2H136.533C138.797 51.2 140.967 50.3009 142.567 48.7006C144.168 47.1003 145.067 44.9298 145.067 42.6667C145.067 40.4035 144.168 38.233 142.567 36.6327C140.967 35.0324 138.797 34.1333 136.533 34.1333H128C125.737 34.1333 123.566 35.0324 121.966 36.6327C120.366 38.233 119.467 40.4035 119.467 42.6667C119.467 44.9298 120.366 47.1003 121.966 48.7006C123.566 50.3009 125.737 51.2 128 51.2Z" fill="url(#paint6_linear_15_1425)"/>
<path d="M366.933 51.2H418.133C420.397 51.2 422.567 50.3009 424.167 48.7006C425.768 47.1003 426.667 44.9298 426.667 42.6667C426.667 40.4035 425.768 38.233 424.167 36.6327C422.567 35.0324 420.397 34.1333 418.133 34.1333H366.933C364.67 34.1333 362.5 35.0324 360.899 36.6327C359.299 38.233 358.4 40.4035 358.4 42.6667C358.4 44.9298 359.299 47.1003 360.899 48.7006C362.5 50.3009 364.67 51.2 366.933 51.2Z" fill="url(#paint7_linear_15_1425)"/>
<path d="M110.933 324.267H76.8C74.5368 324.267 72.3663 325.166 70.766 326.766C69.1657 328.366 68.2667 330.537 68.2667 332.8C68.2667 335.063 69.1657 337.234 70.766 338.834C72.3663 340.434 74.5368 341.333 76.8 341.333H110.933C113.197 341.333 115.367 340.434 116.967 338.834C118.568 337.234 119.467 335.063 119.467 332.8C119.467 330.537 118.568 328.366 116.967 326.766C115.367 325.166 113.197 324.267 110.933 324.267Z" fill="url(#paint8_linear_15_1425)"/>
<path d="M110.933 358.4H76.8C74.5368 358.4 72.3663 359.299 70.766 360.899C69.1657 362.5 68.2667 364.67 68.2667 366.933C68.2667 369.197 69.1657 371.367 70.766 372.967C72.3663 374.568 74.5368 375.467 76.8 375.467H110.933C113.197 375.467 115.367 374.568 116.967 372.967C118.568 371.367 119.467 369.197 119.467 366.933C119.467 364.67 118.568 362.5 116.967 360.899C115.367 359.299 113.197 358.4 110.933 358.4Z" fill="url(#paint9_linear_15_1425)"/>
<defs>
<linearGradient id="paint0_linear_15_1425" x1="386.132" y1="395.205" x2="147.194" y2="82.6715" gradientUnits="userSpaceOnUse">
<stop stop-color="#B41F3E"/>
<stop offset="1" stop-color="#711972"/>
</linearGradient>
<linearGradient id="paint1_linear_15_1425" x1="386.132" y1="395.205" x2="147.194" y2="82.6715" gradientUnits="userSpaceOnUse">
<stop stop-color="#B41F3E"/>
<stop offset="1" stop-color="#711972"/>
</linearGradient>
<linearGradient id="paint2_linear_15_1425" x1="386.132" y1="395.205" x2="147.194" y2="82.6715" gradientUnits="userSpaceOnUse">
<stop stop-color="#B41F3E"/>
<stop offset="1" stop-color="#711972"/>
</linearGradient>
<linearGradient id="paint3_linear_15_1425" x1="386.132" y1="395.205" x2="147.194" y2="82.6715" gradientUnits="userSpaceOnUse">
<stop stop-color="#B41F3E"/>
<stop offset="1" stop-color="#711972"/>
</linearGradient>
<linearGradient id="paint4_linear_15_1425" x1="386.132" y1="395.205" x2="147.194" y2="82.6715" gradientUnits="userSpaceOnUse">
<stop stop-color="#B41F3E"/>
<stop offset="1" stop-color="#711972"/>
</linearGradient>
<linearGradient id="paint5_linear_15_1425" x1="386.132" y1="395.205" x2="147.194" y2="82.6715" gradientUnits="userSpaceOnUse">
<stop stop-color="#B41F3E"/>
<stop offset="1" stop-color="#711972"/>
</linearGradient>
<linearGradient id="paint6_linear_15_1425" x1="386.132" y1="395.205" x2="147.194" y2="82.6715" gradientUnits="userSpaceOnUse">
<stop stop-color="#B41F3E"/>
<stop offset="1" stop-color="#711972"/>
</linearGradient>
<linearGradient id="paint7_linear_15_1425" x1="386.132" y1="395.205" x2="147.194" y2="82.6715" gradientUnits="userSpaceOnUse">
<stop stop-color="#B41F3E"/>
<stop offset="1" stop-color="#711972"/>
</linearGradient>
<linearGradient id="paint8_linear_15_1425" x1="386.132" y1="395.205" x2="147.194" y2="82.6715" gradientUnits="userSpaceOnUse">
<stop stop-color="#B41F3E"/>
<stop offset="1" stop-color="#711972"/>
</linearGradient>
<linearGradient id="paint9_linear_15_1425" x1="386.132" y1="395.205" x2="147.194" y2="82.6715" gradientUnits="userSpaceOnUse">
<stop stop-color="#B41F3E"/>
<stop offset="1" stop-color="#711972"/>
</linearGradient>
</defs>
</svg>
