<svg width="512" height="512" viewBox="0 0 512 512" fill="none" xmlns="http://www.w3.org/2000/svg">
<path d="M480.051 214.86L443.512 126.72C448.344 118.605 450.334 109.111 449.167 99.7393C448 90.3671 443.742 81.6515 437.067 74.9703C430.391 68.289 421.679 64.0235 412.308 62.848C402.937 61.6725 393.442 63.6542 385.323 68.4796L297.148 31.9826C294.815 22.8413 289.505 14.7371 282.054 8.94925C274.604 3.16141 265.439 0.0195312 256.004 0.0195312C246.57 0.0195313 237.405 3.16141 229.954 8.94925C222.504 14.7371 217.194 22.8413 214.861 31.9826L126.72 68.4967C118.606 63.6641 109.112 61.6741 99.7397 62.8413C90.3676 64.0086 81.652 68.2665 74.9707 74.9418C68.2895 81.6172 64.024 90.3291 62.8485 99.7002C61.673 109.071 63.6546 118.567 68.4801 126.686L31.9831 214.852C22.8417 217.185 14.7376 222.495 8.94974 229.945C3.1619 237.396 0.0200195 246.561 0.0200195 255.995C0.0200195 265.43 3.1619 274.595 8.94974 282.045C14.7376 289.496 22.8417 294.806 31.9831 297.139L68.4887 385.28C63.6448 393.394 61.6464 402.893 62.81 412.272C63.9736 421.65 68.2327 430.373 74.9127 437.058C81.5928 443.743 90.3121 448.008 99.6898 449.178C109.068 450.349 118.568 448.358 126.686 443.52L214.852 480.017C217.185 489.158 222.496 497.262 229.946 503.05C237.396 508.838 246.562 511.98 255.996 511.98C265.43 511.98 274.596 508.838 282.046 503.05C289.496 497.262 294.807 489.158 297.139 480.017L385.28 443.503C393.391 448.347 402.888 450.344 412.263 449.179C421.639 448.013 430.357 443.751 437.035 437.068C443.662 430.365 447.887 421.659 449.054 412.305C450.22 402.951 448.263 393.474 443.486 385.348L479.983 297.182C489.124 294.849 497.229 289.538 503.016 282.088C508.804 274.638 511.946 265.472 511.946 256.038C511.946 246.604 508.804 237.438 503.016 229.988C497.229 222.538 489.124 217.227 479.983 214.895L480.051 214.86ZM414.951 365.047L445.44 291.328C450.209 294.554 455.587 296.772 461.244 297.847L430.737 371.558C425.971 368.331 420.601 366.102 414.951 365.004V365.047ZM81.2972 371.592L50.7479 297.898C56.4088 296.81 61.7889 294.58 66.5601 291.345L97.0924 365.004C91.4307 366.095 86.0488 368.321 81.2716 371.55L81.2972 371.592ZM97.0753 147.038L66.5601 220.672C61.7855 217.457 56.405 215.25 50.7479 214.186L81.2545 140.475C86.0261 143.691 91.3989 145.909 97.0497 146.995L97.0753 147.038ZM397.867 361.659L368.853 332.646C379.343 317.264 386.555 299.888 390.042 281.6H431.002L397.867 361.659ZM281.6 431.027V390.067C299.898 386.595 317.286 379.394 332.681 368.913L361.643 397.875L281.6 431.027ZM150.34 397.866L179.354 368.853C194.736 379.342 212.112 386.554 230.4 390.041V431.001L150.34 397.866ZM189.065 354.892C195.848 345.747 204.785 338.419 215.083 333.559C226.128 344.04 240.774 349.883 256 349.883C271.227 349.883 285.872 344.04 296.917 333.559C307.215 338.419 316.152 345.747 322.936 354.892C303.188 368.299 279.869 375.467 256 375.467C232.131 375.467 208.813 368.299 189.065 354.892ZM187.733 223.658C187.744 219.956 188.093 216.263 188.775 212.625C189.677 208.137 192.164 204.124 195.78 201.318C199.471 198.418 204.032 196.848 208.725 196.864C210.462 196.944 212.176 196.457 213.611 195.476C215.046 194.496 216.123 193.075 216.679 191.428C216.679 191.308 222.652 179.2 256 179.2C267.936 178.292 279.88 180.859 290.389 186.59C292.269 187.722 293.896 189.23 295.168 191.018C295.729 192.726 296.815 194.213 298.27 195.267C299.726 196.321 301.477 196.889 303.275 196.889C307.897 196.818 312.402 198.339 316.034 201.199C319.666 204.058 322.202 208.081 323.217 212.591C323.902 216.24 324.253 219.945 324.267 223.658C324.267 226.491 324.164 229.231 324.019 231.893C318.451 229.867 312.341 229.907 306.799 232.004C306.181 228.909 304.871 225.993 302.967 223.476C301.062 220.959 298.613 218.905 295.803 217.469C292.992 216.032 289.893 215.25 286.737 215.181C283.582 215.112 280.452 215.758 277.581 217.071C270.82 220.213 263.455 221.841 256 221.841C248.545 221.841 241.18 220.213 234.419 217.071C231.549 215.758 228.418 215.112 225.263 215.181C222.107 215.25 219.008 216.032 216.198 217.469C213.387 218.905 210.938 220.959 209.034 223.476C207.129 225.993 205.819 228.909 205.201 232.004C199.66 229.907 193.549 229.867 187.981 231.893C187.836 229.231 187.733 226.491 187.733 223.658ZM187.733 256C187.733 253.736 188.633 251.566 190.233 249.966C191.833 248.365 194.004 247.466 196.267 247.466C198.53 247.466 200.7 248.365 202.301 249.966C203.901 251.566 204.8 253.736 204.8 256C204.8 258.263 205.699 260.433 207.299 262.034C208.9 263.634 211.07 264.533 213.333 264.533C215.597 264.533 217.767 263.634 219.367 262.034C220.968 260.433 221.867 258.263 221.867 256V236.1C221.851 235.462 222 234.831 222.299 234.268C222.597 233.704 223.037 233.227 223.573 232.883C224.133 232.521 224.775 232.308 225.44 232.264C226.105 232.221 226.769 232.349 227.371 232.635C236.334 236.769 246.087 238.909 255.957 238.909C265.828 238.909 275.581 236.769 284.544 232.635C285.147 232.352 285.812 232.226 286.476 232.271C287.14 232.316 287.783 232.529 288.341 232.891C288.878 233.236 289.318 233.713 289.616 234.276C289.915 234.84 290.064 235.471 290.048 236.108V256C290.048 258.263 290.947 260.433 292.548 262.034C294.148 263.634 296.318 264.533 298.581 264.533C300.845 264.533 303.015 263.634 304.615 262.034C306.216 260.433 307.115 258.263 307.115 256C307.115 253.736 308.014 251.566 309.614 249.966C311.214 248.365 313.385 247.466 315.648 247.466C317.911 247.466 320.082 248.365 321.682 249.966C323.282 251.566 324.181 253.736 324.181 256V264.533C324.181 269.059 322.383 273.4 319.183 276.601C315.982 279.802 311.641 281.6 307.115 281.6C304.852 281.6 302.681 282.499 301.081 284.099C299.481 285.699 298.581 287.87 298.581 290.133C298.581 301.449 294.086 312.301 286.085 320.303C278.083 328.304 267.231 332.8 255.915 332.8C244.599 332.8 233.746 328.304 225.745 320.303C217.743 312.301 213.248 301.449 213.248 290.133C213.248 287.87 212.349 285.699 210.749 284.099C209.148 282.499 206.978 281.6 204.715 281.6C200.188 281.6 195.847 279.802 192.647 276.601C189.446 273.4 187.648 269.059 187.648 264.533L187.733 256ZM336.256 344.234C328.646 334.124 318.888 325.827 307.687 319.94C311.673 313.112 314.247 305.553 315.256 297.711C322.687 295.894 329.294 291.638 334.021 285.623C338.749 279.609 341.323 272.183 341.333 264.533V256C341.306 253.056 340.766 250.139 339.738 247.381C340.765 239.515 341.298 231.591 341.333 223.658C341.319 218.862 340.865 214.078 339.977 209.365C338.394 201.802 334.492 194.922 328.814 189.681C323.137 184.441 315.966 181.102 308.301 180.13C305.923 177.064 303.036 174.429 299.768 172.339C286.465 164.795 271.268 161.251 256 162.133C222.677 162.133 209.067 173.107 203.716 180.13C196.928 181.013 190.507 183.724 185.139 187.972C178.33 193.351 173.669 200.987 171.998 209.502C171.125 214.17 170.679 218.909 170.667 223.658C170.703 231.591 171.236 239.515 172.263 247.381C171.234 250.139 170.694 253.056 170.667 256V264.533C170.677 272.183 173.251 279.609 177.979 285.623C182.706 291.638 189.314 295.894 196.745 297.711C197.753 305.553 200.327 313.112 204.314 319.94C193.127 325.832 183.385 334.129 175.787 344.234C157.916 328.028 145.371 306.79 139.803 283.317C134.234 259.844 135.902 235.234 144.588 212.727C153.274 190.22 168.57 170.87 188.464 157.224C208.358 143.577 231.918 136.273 256.043 136.273C280.168 136.273 303.727 143.577 323.621 157.224C343.515 170.87 358.812 190.22 367.498 212.727C376.184 235.234 377.852 259.844 372.283 283.317C366.714 306.79 354.169 328.028 336.299 344.234H336.256ZM80.9729 281.6H121.933C125.405 299.898 132.606 317.285 143.087 332.68L114.151 361.642L80.9729 281.6ZM114.133 150.34L143.147 179.353C132.658 194.735 125.445 212.111 121.959 230.4H80.9985L114.133 150.34ZM84.4801 247.466H119.911C119.731 250.299 119.475 253.115 119.475 256C119.475 258.884 119.731 261.7 119.911 264.533H84.4801C85.6295 258.902 85.6295 253.097 84.4801 247.466ZM230.4 80.9725V121.932C212.102 125.404 194.715 132.605 179.32 143.087L150.357 114.15L230.4 80.9725ZM361.66 114.133L332.647 143.146C317.264 132.657 299.889 125.445 281.6 121.958V80.998L361.66 114.133ZM427.52 264.533H392.098C392.277 261.7 392.533 258.884 392.533 256C392.533 253.115 392.277 250.299 392.098 247.466H427.52C426.371 253.097 426.371 258.902 427.52 264.533ZM390.033 230.4C386.561 212.102 379.361 194.714 368.879 179.319L397.841 150.357L431.027 230.4H390.033ZM358.238 165.819C354.467 161.554 350.438 157.524 346.172 153.753L371.251 128.665C374.421 133.463 378.529 137.57 383.326 140.74L358.238 165.819ZM365.005 97.0492L291.328 66.5596C294.543 61.7851 296.75 56.4045 297.814 50.7474L371.533 81.2541C368.313 86.0234 366.095 91.3971 365.013 97.0492H365.005ZM264.533 119.902C261.7 119.722 258.884 119.466 256 119.466C253.116 119.466 250.3 119.722 247.467 119.902V84.4796C253.098 85.629 258.903 85.629 264.533 84.4796V119.902ZM146.987 97.0663C145.896 91.4142 143.672 86.0413 140.45 81.2711L214.187 50.7218C215.246 56.3852 217.447 61.7739 220.655 66.5596L146.987 97.0663ZM135.313 135.313C137.345 133.288 139.163 131.061 140.74 128.665L165.82 153.753C161.554 157.524 157.525 161.554 153.754 165.819L128.666 140.74C131.061 139.163 133.289 137.344 135.313 135.313ZM153.754 346.18C157.525 350.446 161.554 354.475 165.82 358.246L140.74 383.334C137.57 378.537 133.463 374.43 128.666 371.259L153.754 346.18ZM146.987 414.95L220.672 445.44C217.446 450.209 215.228 455.587 214.153 461.243L140.433 430.737C143.664 425.973 145.894 420.602 146.987 414.95ZM247.467 392.098C250.3 392.277 253.116 392.533 256 392.533C258.884 392.533 261.7 392.277 264.533 392.098V427.52C258.903 426.37 253.098 426.37 247.467 427.52V392.098ZM365.013 414.933C366.105 420.585 368.328 425.958 371.55 430.728L297.856 461.278C296.781 455.62 294.565 450.24 291.345 445.465L365.013 414.933ZM376.687 376.687C374.656 378.711 372.837 380.939 371.26 383.334L346.18 358.246C350.446 354.475 354.476 350.446 358.247 346.18L383.335 371.259C380.939 372.836 378.712 374.655 376.687 376.687ZM445.44 220.655L414.908 146.995C420.561 145.901 425.934 143.675 430.703 140.45L461.252 214.144C455.595 215.219 450.215 217.434 445.44 220.655ZM406.852 79.5474C412.776 79.554 418.514 81.6145 423.088 85.3778C427.662 89.141 430.79 94.374 431.938 100.185C433.086 105.996 432.184 112.025 429.385 117.246C426.585 122.466 422.062 126.554 416.587 128.813C411.111 131.072 405.021 131.362 399.356 129.634C393.69 127.906 388.799 124.267 385.516 119.336C382.233 114.406 380.761 108.49 381.351 102.596C381.942 96.702 384.557 91.1952 388.753 87.014C393.559 82.2253 400.068 79.5398 406.852 79.5474ZM256 17.0663C261.063 17.0663 266.013 18.5677 270.223 21.3807C274.433 24.1937 277.714 28.1918 279.651 32.8696C281.589 37.5474 282.096 42.6947 281.108 47.6606C280.12 52.6265 277.682 57.188 274.102 60.7682C270.522 64.3485 265.96 66.7866 260.994 67.7744C256.029 68.7622 250.881 68.2552 246.203 66.3176C241.526 64.38 237.527 61.0988 234.715 56.8889C231.902 52.679 230.4 47.7295 230.4 42.6663C230.4 35.8768 233.097 29.3653 237.898 24.5644C242.699 19.7634 249.211 17.0663 256 17.0663ZM87.0401 87.0396C90.621 83.4611 95.1825 81.0245 100.148 80.0381C105.113 79.0516 110.26 79.5595 114.937 81.4976C119.614 83.4357 123.611 86.7169 126.423 90.9265C129.235 95.136 130.736 100.085 130.736 105.147C130.736 110.21 129.235 115.159 126.423 119.368C123.611 123.578 119.614 126.859 114.937 128.797C110.26 130.735 105.113 131.243 100.148 130.257C95.1825 129.27 90.621 126.834 87.0401 123.255C82.2585 118.442 79.5749 111.932 79.5749 105.147C79.5749 98.3626 82.2585 91.8532 87.0401 87.0396ZM17.0668 256C17.0668 250.936 18.5682 245.987 21.3812 241.777C24.1941 237.567 28.1923 234.286 32.8701 232.348C37.5479 230.411 42.6952 229.904 47.6611 230.892C52.627 231.879 57.1885 234.317 60.7687 237.898C64.349 241.478 66.7871 246.039 67.7749 251.005C68.7627 255.971 68.2557 261.119 66.3181 265.796C64.3805 270.474 61.0993 274.472 56.8894 277.285C52.6795 280.098 47.73 281.6 42.6668 281.6C35.8773 281.6 29.3658 278.902 24.5649 274.102C19.7639 269.301 17.0668 262.789 17.0668 256ZM87.0401 425.002C83.4603 421.422 81.0226 416.86 80.0352 411.895C79.0477 406.929 79.555 401.782 81.4927 397.104C83.4304 392.427 86.7117 388.429 90.9215 385.616C95.1313 382.803 100.081 381.302 105.144 381.302C110.207 381.302 115.156 382.803 119.366 385.616C123.576 388.429 126.857 392.427 128.795 397.104C130.732 401.782 131.239 406.929 130.252 411.895C129.265 416.86 126.827 421.422 123.247 425.002C118.432 429.777 111.925 432.456 105.144 432.456C98.3622 432.456 91.8555 429.777 87.0401 425.002ZM256 494.933C250.937 494.933 245.987 493.432 241.778 490.619C237.568 487.806 234.286 483.807 232.349 479.13C230.411 474.452 229.904 469.305 230.892 464.339C231.88 459.373 234.318 454.811 237.898 451.231C241.478 447.651 246.04 445.213 251.006 444.225C255.972 443.237 261.119 443.744 265.797 445.682C270.475 447.619 274.473 450.901 277.286 455.11C280.099 459.32 281.6 464.27 281.6 469.333C281.6 476.123 278.903 482.634 274.102 487.435C269.301 492.236 262.79 494.933 256 494.933ZM424.96 424.96C421.378 428.536 416.817 430.97 411.852 431.954C406.887 432.939 401.742 432.43 397.066 430.491C392.391 428.552 388.395 425.271 385.584 421.062C382.773 416.853 381.273 411.905 381.273 406.843C381.273 401.782 382.773 396.834 385.584 392.625C388.395 388.416 392.391 385.135 397.066 383.196C401.742 381.257 406.887 380.748 411.852 381.732C416.817 382.717 421.378 385.151 424.96 388.727C429.741 393.545 432.423 400.056 432.423 406.843C432.423 413.63 429.741 420.142 424.96 424.96ZM469.333 281.6C464.27 281.6 459.321 280.098 455.111 277.285C450.901 274.472 447.62 270.474 445.682 265.796C443.745 261.119 443.238 255.971 444.225 251.005C445.213 246.039 447.651 241.478 451.232 237.898C454.812 234.317 459.373 231.879 464.339 230.892C469.305 229.904 474.452 230.411 479.13 232.348C483.808 234.286 487.806 237.567 490.619 241.777C493.432 245.987 494.934 250.936 494.934 256C494.934 262.789 492.236 269.301 487.435 274.102C482.634 278.902 476.123 281.6 469.333 281.6Z" fill="url(#paint0_linear_15_1424)"/>
<defs>
<linearGradient id="paint0_linear_15_1424" x1="386.098" y1="395.189" x2="147.179" y2="82.6952" gradientUnits="userSpaceOnUse">
<stop stop-color="#B41F3E"/>
<stop offset="1" stop-color="#711972"/>
</linearGradient>
</defs>
</svg>
