<svg width="492" height="492" viewBox="0 0 492 492" fill="none" xmlns="http://www.w3.org/2000/svg">
<path d="M459.333 43.3334H336.438C325.445 29.9904 311.635 19.2453 295.999 11.8687C280.363 4.492 263.288 0.666504 246 0.666504C228.711 0.666504 211.637 4.492 196.001 11.8687C180.365 19.2453 166.555 29.9904 155.561 43.3334H32.6665C24.1824 43.3427 16.0485 46.7171 10.0494 52.7162C4.05023 58.7154 0.675821 66.8493 0.666504 75.3334V363.333C0.675821 371.817 4.05023 379.951 10.0494 385.951C16.0485 391.95 24.1824 395.324 32.6665 395.333H192.667V427.333H139.333C125.193 427.35 111.638 432.974 101.639 442.973C91.6409 452.971 86.0165 466.527 85.9998 480.667C85.9998 483.496 87.1237 486.209 89.124 488.209C91.1244 490.21 93.8375 491.333 96.6665 491.333H395.333C398.162 491.333 400.875 490.21 402.876 488.209C404.876 486.209 406 483.496 406 480.667C405.983 466.527 400.359 452.971 390.36 442.973C380.362 432.974 366.806 427.35 352.667 427.333H299.333V395.333H459.333C467.817 395.324 475.951 391.95 481.95 385.951C487.949 379.951 491.324 371.817 491.333 363.333V75.3334C491.324 66.8493 487.949 58.7154 481.95 52.7162C475.951 46.7171 467.817 43.3427 459.333 43.3334ZM246 310C278.265 310 363.333 203.312 363.333 118C363.307 110.842 362.624 103.701 361.295 96.6667H438V342H53.9998V96.6667H130.705C129.375 103.701 128.693 110.842 128.667 118C128.667 203.312 213.734 310 246 310ZM246 22C271.452 22.0283 295.854 32.1516 313.851 50.149C331.848 68.1463 341.972 92.5479 342 118C342 197.521 262.891 285.854 246.32 288.688C229.109 285.854 150 197.521 150 118C150.028 92.5479 160.151 68.1463 178.149 50.149C196.146 32.1516 220.548 22.0283 246 22ZM382.838 470H109.161C111.374 463.765 115.462 458.368 120.864 454.548C126.266 450.729 132.717 448.674 139.333 448.667H352.667C359.282 448.674 365.734 450.729 371.136 454.548C376.538 458.368 380.625 463.765 382.838 470ZM278 427.333H214V395.333H278V427.333ZM470 363.333C469.997 366.161 468.872 368.873 466.873 370.873C464.873 372.873 462.161 373.997 459.333 374H32.6665C29.8384 373.997 27.1269 372.873 25.1272 370.873C23.1274 368.873 22.0027 366.161 21.9998 363.333V75.3334C22.0027 72.5053 23.1274 69.7938 25.1272 67.794C27.1269 65.7942 29.8384 64.6695 32.6665 64.6667H141.619C139.841 68.1396 138.239 71.6997 136.819 75.3334H43.3332C40.5042 75.3334 37.7911 76.4572 35.7907 78.4576C33.7903 80.458 32.6665 83.1711 32.6665 86V352.667C32.6665 355.496 33.7903 358.209 35.7907 360.209C37.7911 362.21 40.5042 363.333 43.3332 363.333H448.667C451.495 363.333 454.209 362.21 456.209 360.209C458.209 358.209 459.333 355.496 459.333 352.667V86C459.333 83.1711 458.209 80.458 456.209 78.4576C454.209 76.4572 451.495 75.3334 448.667 75.3334H355.184C353.763 71.6997 352.161 68.1396 350.384 64.6667H459.333C462.161 64.6695 464.873 65.7942 466.873 67.794C468.872 69.7938 469.997 72.5053 470 75.3334V363.333ZM246 171.333C256.548 171.333 266.86 168.205 275.63 162.345C284.401 156.485 291.237 148.155 295.273 138.41C299.31 128.664 300.366 117.941 298.308 107.595C296.251 97.2496 291.171 87.7465 283.712 80.2877C276.253 72.8289 266.75 67.7494 256.405 65.6915C246.059 63.6336 235.335 64.6898 225.59 68.7265C215.845 72.7631 207.515 79.599 201.655 88.3696C195.794 97.1402 192.667 107.452 192.667 118C192.683 132.14 198.308 145.696 208.306 155.694C218.304 165.692 231.86 171.317 246 171.333ZM246 86C252.329 86 258.516 87.8768 263.778 91.393C269.04 94.9092 273.142 99.9069 275.564 105.754C277.986 111.601 278.62 118.036 277.385 124.243C276.15 130.45 273.103 136.152 268.627 140.627C264.152 145.103 258.45 148.15 252.243 149.385C246.035 150.62 239.601 149.986 233.754 147.564C227.907 145.142 222.909 141.041 219.393 135.778C215.877 130.516 214 124.329 214 118C214.009 109.516 217.384 101.382 223.383 95.3829C229.382 89.3838 237.516 86.0093 246 86Z" fill="url(#paint0_linear_22_34)"/>
<defs>
<linearGradient id="paint0_linear_22_34" x1="370.711" y1="379.4" x2="141.733" y2="79.8888" gradientUnits="userSpaceOnUse">
<stop stop-color="#B41F3E"/>
<stop offset="1" stop-color="#711972"/>
</linearGradient>
</defs>
</svg>
