<svg width="684" height="683" viewBox="0 0 684 683" fill="none" xmlns="http://www.w3.org/2000/svg">
<path d="M389.588 0.000488281C382.223 0.000488281 376.254 5.96923 376.254 13.3338C376.254 20.6984 382.223 26.6671 389.588 26.6671C537.04 26.6671 656.999 146.631 656.999 294.078C656.999 301.443 662.973 307.412 670.332 307.412C677.697 307.412 683.665 301.443 683.665 294.078C683.665 131.927 551.744 0.000488281 389.588 0.000488281Z" fill="url(#paint0_linear_22_33)"/>
<path d="M590.124 307.417C597.488 307.417 603.457 301.443 603.457 294.083C603.457 176.151 507.514 80.2087 389.588 80.2087C382.223 80.2087 376.254 86.1827 376.254 93.542C376.254 100.907 382.223 106.875 389.588 106.875C492.811 106.875 576.79 190.854 576.79 294.083C576.79 301.443 582.759 307.417 590.124 307.417Z" fill="url(#paint1_linear_22_33)"/>
<path d="M496.567 294.083C496.567 301.443 502.535 307.417 509.9 307.417C517.264 307.417 523.233 301.443 523.233 294.083C523.233 220.391 463.28 160.438 389.588 160.438C382.223 160.438 376.254 166.407 376.254 173.766C376.254 181.13 382.223 187.099 389.588 187.099C448.577 187.099 496.567 235.089 496.567 294.083Z" fill="url(#paint2_linear_22_33)"/>
<path d="M376.254 253.979C376.254 261.339 382.223 267.307 389.588 267.307C404.348 267.307 416.358 279.318 416.358 294.083C416.358 301.443 422.327 307.417 429.692 307.417C437.051 307.417 443.025 301.443 443.025 294.083C443.025 264.615 419.051 240.646 389.588 240.646C382.223 240.646 376.254 246.615 376.254 253.979Z" fill="url(#paint3_linear_22_33)"/>
<path d="M250.911 432.906C250.911 440.271 244.942 446.24 237.577 446.24C230.213 446.24 224.244 440.271 224.244 432.906C224.244 425.547 230.213 419.573 237.577 419.573C244.942 419.573 250.911 425.547 250.911 432.906Z" fill="url(#paint4_linear_22_33)"/>
<path d="M366.374 666.479C427.087 696.234 500.129 683.854 548.139 635.843L575.707 608.276C590.676 593.323 590.681 569.099 575.712 554.135L469.192 447.625C454.249 432.661 430.02 432.641 415.061 447.62L369.801 492.885C360.937 501.75 347.254 503.557 337.275 497.187C321.004 486.786 305.176 475.318 290.234 463.099C284.53 458.437 276.135 459.281 271.473 464.979C266.812 470.682 267.655 479.083 273.353 483.739C289.098 496.614 305.77 508.698 322.921 519.656C343.364 532.713 371.009 529.385 388.655 511.739L433.926 466.469C438.452 461.937 445.785 461.927 450.332 466.474L556.858 572.989C561.395 577.531 561.405 584.875 556.858 589.411L529.285 616.989C489.291 656.984 428.541 667.25 378.108 642.536C193.353 551.937 92.8327 408.281 41.0411 303.719C16.2651 253.714 26.5516 193.193 66.6401 153.115L93.6088 126.151C98.1296 121.62 105.468 121.604 110.01 126.157L216.546 232.688C221.057 237.193 221.103 244.537 216.536 249.094L171.275 294.359C153.63 312.005 150.301 339.651 163.359 360.099C171.051 372.135 179.343 384.01 188.01 395.391C192.468 401.25 200.833 402.38 206.692 397.922C212.551 393.464 213.687 385.099 209.223 379.234C201.004 368.438 193.129 357.167 185.827 345.745C179.458 335.76 181.265 322.078 190.129 313.214L235.385 267.958C250.348 253.016 250.364 228.781 235.395 213.828L128.869 107.308C113.932 92.3441 89.6973 92.3233 74.7442 107.302L47.7859 134.261C-0.401512 182.433 -12.714 255.292 17.1453 315.557C70.7755 423.823 174.89 572.583 366.374 666.479Z" fill="url(#paint5_linear_22_33)"/>
<defs>
<linearGradient id="paint0_linear_22_33" x1="515.843" y1="526.833" x2="197.342" y2="110.143" gradientUnits="userSpaceOnUse">
<stop stop-color="#B41F3E"/>
<stop offset="1" stop-color="#711972"/>
</linearGradient>
<linearGradient id="paint1_linear_22_33" x1="515.843" y1="526.833" x2="197.342" y2="110.143" gradientUnits="userSpaceOnUse">
<stop stop-color="#B41F3E"/>
<stop offset="1" stop-color="#711972"/>
</linearGradient>
<linearGradient id="paint2_linear_22_33" x1="515.843" y1="526.833" x2="197.342" y2="110.143" gradientUnits="userSpaceOnUse">
<stop stop-color="#B41F3E"/>
<stop offset="1" stop-color="#711972"/>
</linearGradient>
<linearGradient id="paint3_linear_22_33" x1="515.843" y1="526.833" x2="197.342" y2="110.143" gradientUnits="userSpaceOnUse">
<stop stop-color="#B41F3E"/>
<stop offset="1" stop-color="#711972"/>
</linearGradient>
<linearGradient id="paint4_linear_22_33" x1="515.843" y1="526.833" x2="197.342" y2="110.143" gradientUnits="userSpaceOnUse">
<stop stop-color="#B41F3E"/>
<stop offset="1" stop-color="#711972"/>
</linearGradient>
<linearGradient id="paint5_linear_22_33" x1="515.843" y1="526.833" x2="197.342" y2="110.143" gradientUnits="userSpaceOnUse">
<stop stop-color="#B41F3E"/>
<stop offset="1" stop-color="#711972"/>
</linearGradient>
</defs>
</svg>
