<svg width="1725" height="185" viewBox="0 0 1725 185" fill="none" xmlns="http://www.w3.org/2000/svg">
<path d="M339.933 30.7382H361.133V95.9672C361.133 103.291 359.387 109.7 355.894 115.193C352.434 120.686 347.587 124.969 341.353 128.042C335.119 131.083 327.857 132.603 319.566 132.603C311.243 132.603 303.965 131.083 297.731 128.042C291.496 124.969 286.649 120.686 283.19 115.193C279.73 109.7 278 103.291 278 95.9672V30.7382H299.199V94.1525C299.199 97.978 300.032 101.378 301.696 104.354C303.394 107.329 305.776 109.667 308.844 111.367C311.912 113.067 315.486 113.917 319.566 113.917C323.679 113.917 327.253 113.067 330.288 111.367C333.357 109.667 335.723 107.329 337.388 104.354C339.085 101.378 339.933 97.978 339.933 94.1525V30.7382Z" fill="white" fill-opacity="0.04"/>
<path d="M378.183 159.431V55.8489H398.746V68.5023H399.676C400.59 66.4752 401.912 64.4153 403.642 62.3228C405.404 60.1975 407.689 58.4319 410.496 57.026C413.336 55.5873 416.861 54.868 421.071 54.868C426.555 54.868 431.614 56.3067 436.249 59.1839C440.883 62.0285 444.588 66.328 447.362 72.0826C450.137 77.8044 451.524 84.9812 451.524 93.6131C451.524 102.016 450.169 109.111 447.46 114.898C444.784 120.653 441.128 125.018 436.493 127.993C431.891 130.936 426.734 132.407 421.022 132.407C416.975 132.407 413.531 131.737 410.692 130.396C407.885 129.056 405.584 127.372 403.789 125.345C401.993 123.285 400.623 121.209 399.676 119.116H399.04V159.431H378.183ZM398.599 93.515C398.599 97.9944 399.219 101.902 400.459 105.237C401.7 108.572 403.495 111.171 405.845 113.035C408.195 114.866 411.051 115.781 414.413 115.781C417.807 115.781 420.68 114.849 423.03 112.986C425.38 111.089 427.158 108.473 428.366 105.138C429.606 101.771 430.227 97.8963 430.227 93.515C430.227 89.1664 429.623 85.3409 428.415 82.0386C427.207 78.7363 425.429 76.1533 423.079 74.2896C420.728 72.4259 417.84 71.4941 414.413 71.4941C411.018 71.4941 408.146 72.3932 405.796 74.1915C403.478 75.9898 401.7 78.5401 400.459 81.8424C399.219 85.1447 398.599 89.0356 398.599 93.515Z" fill="white" fill-opacity="0.04"/>
<path d="M499.406 132.652C491.703 132.652 485.077 131.018 479.529 127.748C474.012 124.446 469.769 119.868 466.799 114.016C463.862 108.163 462.393 101.427 462.393 93.8092C462.393 86.0929 463.878 79.3248 466.848 73.5049C469.851 67.6522 474.11 63.0911 479.626 59.8215C485.143 56.5192 491.703 54.868 499.308 54.868C505.869 54.868 511.613 56.0614 516.542 58.4482C521.47 60.8351 525.371 64.1864 528.243 68.5023C531.115 72.8182 532.698 77.8862 532.992 83.7061H513.31C512.756 79.946 511.287 76.9216 508.904 74.6329C506.554 72.3115 503.47 71.1507 499.651 71.1507C496.419 71.1507 493.596 72.0335 491.181 73.7991C488.798 75.532 486.938 78.066 485.599 81.401C484.261 84.736 483.592 88.774 483.592 93.515C483.592 98.3213 484.245 102.408 485.551 105.776C486.889 109.144 488.766 111.71 491.181 113.476C493.596 115.242 496.419 116.124 499.651 116.124C502.033 116.124 504.171 115.634 506.064 114.653C507.99 113.672 509.573 112.25 510.813 110.386C512.086 108.49 512.919 106.217 513.31 103.569H532.992C532.666 109.324 531.099 114.392 528.292 118.773C525.518 123.121 521.682 126.522 516.787 128.974C511.891 131.426 506.097 132.652 499.406 132.652Z" fill="white" fill-opacity="0.04"/>
<path d="M580.323 132.652C572.718 132.652 566.142 131.034 560.593 127.797C555.077 124.527 550.817 119.983 547.814 114.163C544.812 108.31 543.31 101.526 543.31 93.8092C543.31 86.0275 544.812 79.2267 547.814 73.4068C550.817 67.5542 555.077 63.0094 560.593 59.7724C566.142 56.5028 572.718 54.868 580.323 54.868C587.928 54.868 594.489 56.5028 600.005 59.7724C605.554 63.0094 609.829 67.5542 612.832 73.4068C615.835 79.2267 617.337 86.0275 617.337 93.8092C617.337 101.526 615.835 108.31 612.832 114.163C609.829 119.983 605.554 124.527 600.005 127.797C594.489 131.034 587.928 132.652 580.323 132.652ZM580.421 116.468C583.881 116.468 586.77 115.487 589.087 113.525C591.404 111.531 593.151 108.817 594.326 105.384C595.533 101.951 596.137 98.0434 596.137 93.6621C596.137 89.2808 595.533 85.3736 594.326 81.9405C593.151 78.5074 591.404 75.7936 589.087 73.7991C586.77 71.8047 583.881 70.8074 580.421 70.8074C576.929 70.8074 573.991 71.8047 571.609 73.7991C569.259 75.7936 567.48 78.5074 566.272 81.9405C565.097 85.3736 564.51 89.2808 564.51 93.6621C564.51 98.0434 565.097 101.951 566.272 105.384C567.48 108.817 569.259 111.531 571.609 113.525C573.991 115.487 576.929 116.468 580.421 116.468Z" fill="white" fill-opacity="0.04"/>
<path d="M630.898 131.181V55.8489H650.776V69.1399H651.657C653.224 64.7259 655.835 61.2438 659.49 58.6935C663.146 56.1432 667.52 54.868 672.612 54.868C677.769 54.868 682.159 56.1595 685.782 58.7425C689.405 61.2928 691.82 64.7586 693.028 69.1399H693.811C695.345 64.824 698.119 61.3746 702.134 58.7916C706.181 56.1759 710.963 54.868 716.479 54.868C723.497 54.868 729.192 57.1077 733.566 61.5871C737.972 66.0338 740.175 72.3442 740.175 80.5182V131.181H719.368V84.6379C719.368 80.4528 718.258 77.314 716.038 75.2214C713.819 73.1289 711.045 72.0826 707.715 72.0826C703.929 72.0826 700.975 73.2923 698.854 75.7119C696.732 78.0987 695.671 81.2539 695.671 85.1774V131.181H675.451V84.1965C675.451 80.5019 674.39 77.5592 672.269 75.3686C670.18 73.1779 667.422 72.0826 663.995 72.0826C661.677 72.0826 659.588 72.6711 657.728 73.8482C655.9 74.9926 654.448 76.611 653.371 78.7036C652.293 80.7634 651.755 83.183 651.755 85.9621V131.181H630.898Z" fill="white" fill-opacity="0.04"/>
<path d="M756.65 131.181V55.8489H777.507V131.181H756.65ZM767.127 46.1381C764.027 46.1381 761.367 45.1082 759.147 43.0483C756.96 40.9558 755.867 38.4545 755.867 35.5445C755.867 32.6673 756.96 30.1987 759.147 28.1388C761.367 26.0463 764.027 25 767.127 25C770.228 25 772.872 26.0463 775.059 28.1388C777.278 30.1987 778.388 32.6673 778.388 35.5445C778.388 38.4545 777.278 40.9558 775.059 43.0483C772.872 45.1082 770.228 46.1381 767.127 46.1381Z" fill="white" fill-opacity="0.04"/>
<path d="M815.071 87.6296V131.181H794.214V55.8489H814.092V69.1399H814.973C816.637 64.7586 819.428 61.2928 823.345 58.7425C827.262 56.1595 832.011 54.868 837.592 54.868C842.814 54.868 847.368 56.0124 851.252 58.3011C855.136 60.5899 858.155 63.8595 860.309 68.11C862.463 72.3278 863.54 77.363 863.54 83.2157V131.181H842.684V86.943C842.716 82.3329 841.541 78.7363 839.159 76.1533C836.776 73.5376 833.496 72.2297 829.318 72.2297C826.511 72.2297 824.03 72.8346 821.876 74.0444C819.755 75.2541 818.09 77.0197 816.882 79.3412C815.707 81.6299 815.103 84.3927 815.071 87.6296Z" fill="white" fill-opacity="0.04"/>
<path d="M913.858 161C907.102 161 901.308 160.068 896.478 158.204C891.68 156.373 887.861 153.872 885.021 150.701C882.182 147.529 880.338 143.965 879.489 140.009L898.779 137.41C899.366 138.914 900.297 140.32 901.57 141.627C902.842 142.935 904.523 143.982 906.612 144.766C908.734 145.584 911.312 145.992 914.348 145.992C918.885 145.992 922.622 144.881 925.56 142.657C928.53 140.467 930.015 136.788 930.015 131.622V117.841H929.134C928.22 119.934 926.849 121.912 925.021 123.775C923.193 125.639 920.843 127.159 917.971 128.336C915.099 129.514 911.671 130.102 907.689 130.102C902.043 130.102 896.902 128.794 892.267 126.179C887.665 123.53 883.993 119.492 881.251 114.065C878.542 108.604 877.188 101.705 877.188 93.3678C877.188 84.8341 878.575 77.7063 881.349 71.9845C884.124 66.2627 887.812 61.9794 892.414 59.1349C897.049 56.2903 902.124 54.868 907.64 54.868C911.851 54.868 915.376 55.5873 918.216 57.026C921.055 58.4319 923.34 60.1975 925.07 62.3228C926.832 64.4153 928.187 66.4752 929.134 68.5023H929.917V55.8489H950.627V131.917C950.627 138.325 949.06 143.687 945.927 148.003C942.793 152.319 938.452 155.556 932.903 157.714C927.387 159.905 921.039 161 913.858 161ZM914.299 114.408C917.661 114.408 920.5 113.574 922.818 111.907C925.168 110.206 926.963 107.787 928.203 104.648C929.476 101.477 930.113 97.6837 930.113 93.2697C930.113 88.8558 929.493 85.0303 928.252 81.7934C927.012 78.5237 925.217 75.9898 922.867 74.1915C920.517 72.3932 917.661 71.4941 914.299 71.4941C910.872 71.4941 907.983 72.4259 905.633 74.2896C903.283 76.1206 901.504 78.6709 900.297 81.9405C899.089 85.2101 898.485 88.9865 898.485 93.2697C898.485 97.6183 899.089 101.378 900.297 104.55C901.537 107.689 903.316 110.125 905.633 111.858C907.983 113.558 910.872 114.408 914.299 114.408Z" fill="white" fill-opacity="0.04"/>
<path d="M999.525 131.181V30.7382H1067.09V48.247H1020.72V72.1807H1063.61V89.6895H1020.72V113.672H1067.28V131.181H999.525Z" fill="white" fill-opacity="0.04"/>
<path d="M1153.66 55.8489L1127.37 131.181H1103.87L1077.58 55.8489H1099.61L1115.23 109.749H1116.01L1131.58 55.8489H1153.66Z" fill="white" fill-opacity="0.04"/>
<path d="M1196.18 132.652C1188.45 132.652 1181.79 131.083 1176.21 127.944C1170.66 124.773 1166.38 120.293 1163.38 114.506C1160.38 108.686 1158.87 101.803 1158.87 93.8583C1158.87 86.1093 1160.38 79.3085 1163.38 73.4558C1166.38 67.6032 1170.61 63.0421 1176.06 59.7724C1181.54 56.5028 1187.97 54.868 1195.35 54.868C1200.31 54.868 1204.93 55.6691 1209.2 57.2712C1213.51 58.8406 1217.27 61.2111 1220.47 64.3826C1223.7 67.5542 1226.21 71.5431 1228.01 76.3494C1229.8 81.1231 1230.7 86.7141 1230.7 93.1226V98.8608H1167.2V85.9131H1211.07C1211.07 82.905 1210.41 80.2403 1209.11 77.9189C1207.8 75.5974 1205.99 73.7828 1203.67 72.4749C1201.39 71.1344 1198.73 70.4641 1195.69 70.4641C1192.53 70.4641 1189.72 71.1998 1187.27 72.6711C1184.86 74.1097 1182.96 76.0552 1181.59 78.5074C1180.22 80.9269 1179.52 83.6244 1179.49 86.5997V98.9098C1179.49 102.637 1180.17 105.858 1181.54 108.572C1182.95 111.285 1184.92 113.378 1187.47 114.849C1190.01 116.321 1193.03 117.056 1196.52 117.056C1198.84 117.056 1200.96 116.729 1202.89 116.075C1204.81 115.421 1206.46 114.441 1207.83 113.133C1209.2 111.825 1210.25 110.223 1210.97 108.326L1230.26 109.602C1229.28 114.244 1227.27 118.299 1224.24 121.765C1221.23 125.198 1217.35 127.879 1212.58 129.808C1207.85 131.704 1202.38 132.652 1196.18 132.652Z" fill="white" fill-opacity="0.04"/>
<path d="M1265.17 87.6296V131.181H1244.31V55.8489H1264.19V69.1399H1265.07C1266.73 64.7586 1269.52 61.2928 1273.44 58.7425C1277.36 56.1595 1282.11 54.868 1287.69 54.868C1292.91 54.868 1297.46 56.0124 1301.35 58.3011C1305.23 60.5899 1308.25 63.8595 1310.4 68.11C1312.56 72.3278 1313.64 77.363 1313.64 83.2157V131.181H1292.78V86.943C1292.81 82.3329 1291.64 78.7363 1289.25 76.1533C1286.87 73.5376 1283.59 72.2297 1279.41 72.2297C1276.61 72.2297 1274.12 72.8346 1271.97 74.0444C1269.85 75.2541 1268.18 77.0197 1266.98 79.3412C1265.8 81.6299 1265.2 84.3927 1265.17 87.6296Z" fill="white" fill-opacity="0.04"/>
<path d="M1370.07 55.8489V71.5431H1324.79V55.8489H1370.07ZM1335.07 37.8006H1355.92V108.032C1355.92 109.961 1356.22 111.465 1356.8 112.544C1357.39 113.59 1358.21 114.326 1359.25 114.751C1360.33 115.176 1361.57 115.389 1362.97 115.389C1363.95 115.389 1364.93 115.307 1365.91 115.144C1366.89 114.947 1367.64 114.8 1368.16 114.702L1371.44 130.249C1370.4 130.576 1368.93 130.952 1367.04 131.377C1365.14 131.835 1362.84 132.113 1360.13 132.211C1355.11 132.407 1350.7 131.737 1346.92 130.2C1343.16 128.663 1340.24 126.277 1338.15 123.04C1336.06 119.803 1335.03 115.716 1335.07 110.779V37.8006Z" fill="white" fill-opacity="0.04"/>
<path d="M1445.29 77.3303L1426.19 78.5074C1425.87 76.8726 1425.16 75.4013 1424.09 74.0934C1423.01 72.7529 1421.59 71.6902 1419.83 70.9055C1418.1 70.0881 1416.03 69.6794 1413.61 69.6794C1410.38 69.6794 1407.65 70.366 1405.43 71.7393C1403.21 73.0798 1402.1 74.8781 1402.1 77.1341C1402.1 78.9324 1402.82 80.4528 1404.26 81.6953C1405.69 82.9377 1408.16 83.935 1411.65 84.687L1425.26 87.4335C1432.57 88.9375 1438.02 91.357 1441.61 94.692C1445.2 98.027 1447 102.408 1447 107.836C1447 112.773 1445.55 117.105 1442.64 120.833C1439.77 124.56 1435.82 127.47 1430.79 129.563C1425.8 131.622 1420.04 132.652 1413.51 132.652C1403.56 132.652 1395.63 130.576 1389.72 126.424C1383.84 122.239 1380.4 116.549 1379.39 109.356L1399.9 108.277C1400.52 111.318 1402.02 113.639 1404.41 115.242C1406.79 116.811 1409.84 117.596 1413.56 117.596C1417.22 117.596 1420.15 116.893 1422.37 115.487C1424.63 114.048 1425.77 112.201 1425.8 109.945C1425.77 108.048 1424.97 106.495 1423.4 105.286C1421.83 104.043 1419.42 103.095 1416.16 102.441L1403.13 99.8417C1395.79 98.3704 1390.32 95.82 1386.73 92.1908C1383.17 88.5615 1381.39 83.935 1381.39 78.3112C1381.39 73.4722 1382.7 69.3034 1385.31 65.8049C1387.96 62.3064 1391.66 59.609 1396.43 57.7126C1401.22 55.8162 1406.84 54.868 1413.27 54.868C1422.77 54.868 1430.24 56.8788 1435.69 60.9005C1441.17 64.9221 1444.37 70.3987 1445.29 77.3303Z" fill="white" fill-opacity="0.04"/>
</svg>
